<svg width="23" height="23" viewBox="0 0 23 23" fill="none" xmlns="http://www.w3.org/2000/svg">
<g clip-path="url(#clip0_849_23274)">
<path d="M6.2961 13.0317C6.27075 13.0317 6.24505 13.0295 6.21923 13.025C5.89194 12.9679 5.57049 12.9373 5.26382 12.9338C5.01825 12.931 4.82141 12.7297 4.82425 12.4841C4.827 12.2402 5.02556 12.0444 5.2688 12.0444C5.27048 12.0444 5.27224 12.0444 5.27392 12.0445C5.62828 12.0485 5.99773 12.0836 6.37194 12.1488C6.6139 12.191 6.77585 12.4214 6.73365 12.6633C6.69592 12.8794 6.50819 13.0317 6.2961 13.0317Z" fill="#303030"/>
<path d="M3.14423 13.352C2.97123 13.352 2.80671 13.2504 2.73478 13.0811C2.6387 12.8552 2.74402 12.5941 2.97007 12.4979C3.09889 12.4431 3.22935 12.393 3.35787 12.3489C3.59011 12.2693 3.84307 12.3928 3.92286 12.625C4.00261 12.8573 3.87895 13.1103 3.6467 13.19C3.53803 13.2273 3.42743 13.2699 3.31795 13.3164C3.26119 13.3406 3.20223 13.352 3.14423 13.352Z" fill="#303030"/>
<path d="M12.2478 6.56661C12.3559 6.46653 12.3624 6.29771 12.2623 6.18955C12.1622 6.0814 11.9934 6.07496 11.8853 6.17499C11.4131 6.61202 10.8034 7.01808 10.1219 7.34928C9.30423 7.7467 8.45886 7.99725 7.74158 8.0547C7.59471 8.06647 7.48519 8.19504 7.49696 8.34195C7.50813 8.48155 7.62488 8.58743 7.76259 8.58743C7.76977 8.58743 7.77699 8.58717 7.78421 8.58657C8.56607 8.52396 9.47915 8.25498 10.3552 7.82924C11.0832 7.47544 11.7376 7.03879 12.2478 6.56661Z" fill="#303030"/>
<path d="M20.1889 11.1621C19.547 11.1166 18.8337 10.9496 18.1261 10.6791C17.2768 10.3544 16.5158 9.90919 15.9833 9.42532C15.8742 9.32619 15.7055 9.33431 15.6065 9.44332C15.5074 9.55237 15.5154 9.72111 15.6245 9.8202C16.2049 10.3476 17.0257 10.8297 17.9356 11.1775C18.6915 11.4665 19.4577 11.6452 20.1512 11.6944C20.1577 11.6948 20.164 11.695 20.1703 11.695C20.3091 11.695 20.4263 11.5876 20.4362 11.447C20.4466 11.3001 20.3359 11.1725 20.1889 11.1621Z" fill="#303030"/>
<path d="M19.185 7.33584C17.5188 6.69896 16.0315 6.62879 15.1447 7.09225L13.1219 4.25859C13.1207 4.2567 13.1193 4.25486 13.1179 4.25301C12.3981 3.27706 10.4615 3.29227 8.40848 4.29005C6.29756 5.31597 5.11252 6.78748 5.45971 7.95167C5.45988 7.95223 5.46001 7.95275 5.46018 7.95326L6.32553 10.8158C6.05564 10.7901 5.77532 10.7766 5.48631 10.7766C3.13936 10.7766 1.43027 11.5821 1.23361 12.7809C1.23352 12.7814 1.23343 12.782 1.23335 12.7826L0.462617 17.5952C0.458879 17.6184 0.457031 17.642 0.457031 17.6655C0.457031 18.2881 0.752742 19.1602 2.16164 19.7791C3.05183 20.1701 4.23944 20.3855 5.50582 20.3855C6.77223 20.3855 7.95985 20.1701 8.85003 19.7791C10.2589 19.1602 10.5546 18.2881 10.5546 17.6655C10.5546 17.6407 10.5526 17.6159 10.5484 17.5914L9.90539 13.79C10.557 13.7011 11.2684 13.5025 11.9867 13.2087C12.1072 13.6148 12.3707 14.0699 12.865 14.5579C13.5569 15.241 14.5894 15.8662 15.7723 16.3184C16.8508 16.7306 17.9319 16.9522 18.8504 16.9522C18.9393 16.9522 19.0268 16.9502 19.1125 16.946C20.6495 16.871 21.2371 16.1619 21.4594 15.5803C21.4682 15.5571 21.4752 15.5332 21.4801 15.5089L22.4321 10.7525C22.4325 10.7503 22.433 10.748 22.4334 10.7457C22.653 9.55307 21.3171 8.15092 19.185 7.33584ZM5.50582 19.4961C3.50764 19.4961 1.38507 18.8661 1.34687 17.6977L2.11137 12.9242C2.21385 12.3056 3.50382 11.666 5.48631 11.666C7.42106 11.666 8.74411 12.3375 8.86318 12.9609L9.66472 17.6995C9.6245 18.8668 7.50305 19.4961 5.50582 19.4961ZM9.73944 12.8086C9.73905 12.8063 9.73867 12.804 9.73824 12.8018C9.58106 11.9529 8.64932 11.2866 7.30217 10.973L6.31174 7.69674C6.13346 7.09556 7.01411 5.9565 8.79718 5.08991C10.5374 4.2442 12.0209 4.26998 12.4004 4.77852L14.4887 7.704L12.0578 11.9112C12.046 11.9316 12.0359 11.9529 12.0275 11.9749C11.994 12.0625 11.9649 12.1581 11.9431 12.2604C11.1895 12.5965 10.4249 12.8238 9.75702 12.9121L9.73944 12.8086ZM21.5594 10.5819L20.6161 15.2943C20.1618 16.3702 17.9555 16.2007 16.0899 15.4876C14.2234 14.7741 12.4656 13.4278 12.8472 12.3227L15.2656 8.13713C15.5818 7.59563 17.0153 7.45865 18.8675 8.1666C20.6746 8.85741 21.6707 9.95711 21.5594 10.5819Z" fill="#303030"/>
<path d="M7.78955 13.9921C7.17363 14.1788 6.44772 14.2775 5.69022 14.2775C4.781 14.2775 3.91114 14.1333 3.24096 13.8714C3.1035 13.8177 2.94894 13.8856 2.89532 14.0228C2.84169 14.1601 2.9095 14.3148 3.04674 14.3685C3.77734 14.6539 4.71612 14.8111 5.69022 14.8111C6.49945 14.8111 7.2789 14.7045 7.94432 14.5028C8.08538 14.46 8.16501 14.311 8.12229 14.1701C8.0795 14.029 7.9307 13.9493 7.78955 13.9921Z" fill="#303030"/>
<path d="M19.2823 13.2699C19.1433 13.2213 18.9911 13.2946 18.9424 13.4337L18.7201 14.0698C18.6715 14.2089 18.7448 14.361 18.8839 14.4097C18.9131 14.4198 18.9427 14.4247 18.9719 14.4247C19.0822 14.4247 19.1854 14.3558 19.2238 14.2458L19.4461 13.6098C19.4948 13.4707 19.4214 13.3185 19.2823 13.2699Z" fill="#303030"/>
<path d="M17.3742 13.2528C17.2351 13.2042 17.0829 13.2775 17.0343 13.4166L16.8119 14.0526C16.7633 14.1917 16.8366 14.3439 16.9757 14.3926C17.0048 14.4028 17.0345 14.4076 17.0637 14.4076C17.174 14.4076 17.2772 14.3387 17.3156 14.2288L17.538 13.5927C17.5866 13.4536 17.5133 13.3014 17.3742 13.2528Z" fill="#303030"/>
<path d="M7.44062 15.9038C7.29328 15.9038 7.17383 16.0233 7.17383 16.1706L7.17383 16.8444C7.17383 16.9918 7.29328 17.1112 7.44062 17.1112C7.58796 17.1112 7.70741 16.9918 7.70741 16.8444L7.70741 16.1706C7.70741 16.0233 7.58796 15.9038 7.44062 15.9038Z" fill="#303030"/>
<path d="M5.40546 16.9644C5.25812 16.9644 5.13867 17.0838 5.13867 17.2311L5.13867 17.905C5.13867 18.0523 5.25812 18.1718 5.40546 18.1718C5.5528 18.1718 5.67226 18.0523 5.67226 17.905L5.67226 17.2311C5.67226 17.0839 5.5528 16.9644 5.40546 16.9644Z" fill="#303030"/>
</g>
<defs>
<clipPath id="clip0_849_23274">
<rect width="22" height="22" fill="white" transform="translate(0.457031 0.953125)"/>
</clipPath>
</defs>
</svg>
