<svg width="23" height="23" viewBox="0 0 23 23" fill="none" xmlns="http://www.w3.org/2000/svg">
<path d="M18.6556 4.55713L3.98893 4.55713C3.56422 4.55954 3.15759 4.72932 2.85727 5.02964C2.55695 5.32996 2.38717 5.73659 2.38477 6.1613L2.38477 17.1613C2.38717 17.586 2.55695 17.9926 2.85727 18.293C3.15759 18.5933 3.56422 18.7631 3.98893 18.7655L18.6556 18.7655C19.0803 18.7631 19.4869 18.5933 19.7873 18.293C20.0876 17.9926 20.2574 17.586 20.2598 17.1613L20.2598 6.1613C20.2574 5.73659 20.0876 5.32996 19.7873 5.02964C19.4869 4.72932 19.0803 4.55954 18.6556 4.55713ZM3.75977 6.1613C3.75977 6.10052 3.78391 6.04223 3.82689 5.99925C3.86986 5.95627 3.92815 5.93213 3.98893 5.93213L8.80143 5.93213L8.80143 8.36129C8.46428 8.24481 8.10423 8.21031 7.75109 8.26066C7.39795 8.311 7.06188 8.44474 6.77071 8.6508C6.47953 8.85686 6.24163 9.12932 6.0767 9.44561C5.91177 9.7619 5.82455 10.1129 5.82227 10.4696C5.80828 10.6374 5.80828 10.806 5.82227 10.9738L3.75977 10.9738L3.75977 6.1613ZM8.80143 17.3905L3.98893 17.3905C3.92815 17.3905 3.86986 17.3663 3.82689 17.3233C3.78391 17.2804 3.75977 17.2221 3.75977 17.1613L3.75977 12.3488L6.50977 12.3488L6.65643 12.5413L8.81977 14.6955L8.80143 17.3905ZM7.6556 11.5605C7.51023 11.4185 7.39478 11.2488 7.31607 11.0614C7.23735 10.8741 7.19695 10.6728 7.19727 10.4696C7.20903 10.2345 7.31078 10.013 7.48143 9.85088C7.65208 9.68876 7.87855 9.5985 8.11393 9.5988C8.22844 9.59713 8.34206 9.61906 8.44773 9.66321C8.55339 9.70737 8.64883 9.77281 8.7281 9.85546L9.0856 10.2038C9.1488 10.2687 9.22435 10.3202 9.30779 10.3554C9.39123 10.3906 9.48087 10.4087 9.57143 10.4087C9.66199 10.4087 9.75164 10.3906 9.83508 10.3554C9.91852 10.3202 9.99407 10.2687 10.0573 10.2038L10.4148 9.85546C10.5428 9.75264 10.6962 9.68612 10.8588 9.66285C11.0214 9.63958 11.1872 9.66042 11.339 9.72319C11.4907 9.78596 11.6229 9.88835 11.7215 10.0197C11.8202 10.151 11.8817 10.3064 11.8998 10.4696C11.9001 10.6728 11.8597 10.8741 11.781 11.0614C11.7022 11.2488 11.5868 11.4185 11.4414 11.5605L9.6081 13.3938L7.6556 11.5605ZM18.8848 17.1613C18.8848 17.2221 18.8606 17.2804 18.8176 17.3233C18.7747 17.3663 18.7164 17.3905 18.6556 17.3905L10.1764 17.3905L10.1764 14.6955L12.3398 12.578L12.4864 12.3855L18.9031 12.3855L18.8848 17.1613ZM18.8848 10.9738L13.1556 10.9738C13.1696 10.806 13.1696 10.6374 13.1556 10.4696C13.1554 10.1085 13.0681 9.75282 12.9011 9.43263C12.7342 9.11245 12.4925 8.83725 12.1965 8.63036C11.9006 8.42346 11.5591 8.29098 11.2011 8.24414C10.843 8.1973 10.479 8.23749 10.1398 8.36129L10.1398 5.93213L18.6556 5.93213C18.7164 5.93213 18.7747 5.95627 18.8176 5.99925C18.8606 6.04223 18.8848 6.10052 18.8848 6.1613L18.8848 10.9738Z" fill="#303030"/>
</svg>
