<svg width="23" height="23" viewBox="0 0 23 23" fill="none" xmlns="http://www.w3.org/2000/svg">
<path d="M20.5957 11.7055L20.1261 11.7055L20.1261 8.5775C20.1261 7.13071 19.6064 5.72734 18.663 4.62588C17.8164 3.63748 16.6768 2.94452 15.4224 2.64792C15.1246 1.81881 14.3309 1.22412 13.4005 1.22412C12.7812 1.22412 12.1386 1.48301 11.6372 1.93442C11.4911 2.06603 11.332 2.23688 11.1823 2.45306C11.0326 2.23688 10.8735 2.06603 10.7273 1.93442C10.2261 1.48301 9.58339 1.22412 8.96414 1.22412C8.02611 1.22412 7.22715 1.82881 6.93519 2.66869C5.69946 2.97977 4.57778 3.67668 3.74536 4.65785C2.81447 5.7551 2.30181 7.14711 2.30181 8.5775L2.30181 11.7055L1.77313 11.7055C1.44971 11.7055 1.1875 11.9677 1.1875 12.2911L1.1875 14.8796C1.1875 15.203 1.44971 15.4652 1.77313 15.4652L2.30938 15.4652C2.36545 16.5625 2.76387 18.878 4.93845 21.0526C5.04827 21.1624 5.19722 21.2241 5.35253 21.2241L17.0309 21.2241C17.1582 21.2241 17.282 21.1827 17.3836 21.1061C17.4837 21.0306 19.7281 19.2936 19.9402 15.4652L20.5957 15.4652C20.9191 15.4652 21.1813 15.203 21.1813 14.8796L21.1813 12.2911C21.1813 11.9677 20.9192 11.7055 20.5957 11.7055ZM13.4005 2.39539C13.939 2.39539 14.3771 2.83348 14.3771 3.37195C14.3771 3.71607 14.1923 4.03876 13.8949 4.21394C13.6468 4.36015 13.5418 4.66511 13.6473 4.9331C13.6775 5.00997 13.6929 5.09087 13.6929 5.1736C13.6929 5.53603 13.398 5.83084 13.0356 5.83084L12.8052 5.83084C12.8604 5.66339 12.8907 5.48473 12.8907 5.299C12.8907 4.59769 12.4646 3.99421 11.8577 3.73345C12.1434 2.76223 12.8966 2.39539 13.4005 2.39539ZM14.2973 8.7879L14.031 8.86899C13.8459 8.92537 13.7006 9.06955 13.6427 9.25422L13.5518 9.54446L11.0179 7.00215L12.5115 7.00215L14.2973 8.7879ZM11.1869 4.76721L11.1881 4.76721C11.4812 4.76744 11.7195 5.00591 11.7195 5.29904C11.7195 5.59229 11.4809 5.83088 11.1877 5.83088C10.8944 5.83088 10.6558 5.59229 10.6558 5.29904C10.6558 5.00599 10.894 4.7676 11.1869 4.76721ZM8.96414 2.39539C9.46884 2.39539 10.2235 2.76329 10.5082 3.73774C9.90639 4.00069 9.48457 4.6014 9.48457 5.29904C9.48457 5.48477 9.51487 5.66342 9.57008 5.83088L9.32903 5.83088C8.9666 5.83088 8.67175 5.53603 8.67175 5.17364C8.67175 5.09091 8.68709 5.01001 8.71735 4.93314C8.82288 4.66515 8.71786 4.36019 8.46971 4.21398C8.17228 4.03876 7.98753 3.71611 7.98753 3.37199C7.98757 2.83348 8.42567 2.39539 8.96414 2.39539ZM10.3576 7.99874L8.81012 9.54614L8.71868 9.25418C8.66086 9.06951 8.51554 8.92533 8.3304 8.86895L8.0641 8.78786L9.60662 7.24534L10.3576 7.99874ZM3.47307 8.5775C3.47307 7.42435 3.88696 6.30145 4.63849 5.41558C5.23634 4.71087 6.01785 4.18743 6.88404 3.90231C6.98766 4.30514 7.20645 4.67234 7.51348 4.95481C7.50482 5.02711 7.50044 5.10008 7.50044 5.1736C7.50044 5.8554 7.8758 6.45079 8.43043 6.76516L6.54586 8.64977C6.40039 8.7952 6.34194 9.0063 6.3918 9.20585C6.44166 9.40539 6.59259 9.56418 6.78937 9.62411L7.69339 9.8994L7.98144 10.8192C8.04266 11.0148 8.2016 11.1641 8.40056 11.2129C8.44687 11.2243 8.49376 11.2299 8.5403 11.2299C8.69373 11.2299 8.84326 11.1695 8.95442 11.0583L11.1844 8.82835L13.4064 11.0577C13.5176 11.1692 13.6674 11.2299 13.8212 11.2299C13.8676 11.2299 13.9143 11.2244 13.9605 11.2131C14.1597 11.1643 14.3188 11.015 14.38 10.8193L14.6681 9.89944L15.5721 9.62415C15.7689 9.56422 15.9198 9.40547 15.9697 9.20589C16.0195 9.00634 15.9611 8.79524 15.8156 8.64981L13.9322 6.76641C14.488 6.45235 14.8642 5.85629 14.8642 5.17368C14.8642 5.10016 14.8599 5.02719 14.8512 4.95489C15.1641 4.66699 15.3852 4.29105 15.4863 3.87911C16.3681 4.1546 17.1643 4.67663 17.7735 5.3879C18.5353 6.27729 18.9549 7.41006 18.9549 8.57758L18.9549 11.7056L3.47307 11.7056L3.47307 8.5775ZM17.7337 18.8987C17.3712 19.4933 17.0044 19.8747 16.8133 20.0529L5.59951 20.0529C4.63876 19.0409 3.99066 17.8923 3.67188 16.6358C3.55241 16.1647 3.50298 15.761 3.48405 15.4653L18.7668 15.4653C18.6868 16.7504 18.3405 17.9033 17.7337 18.8987ZM20.0101 14.294L2.35877 14.294L2.35877 12.8768L20.0101 12.8768L20.0101 14.294Z" fill="#303030"/>
<path d="M14.4453 19.3442L16.5385 19.3442C16.8944 19.3442 17.183 19.0557 17.183 18.6997C17.183 18.3438 16.8944 18.0552 16.5385 18.0552L14.4453 18.0552C14.0894 18.0552 13.8008 18.3438 13.8008 18.6997C13.8008 19.0557 14.0894 19.3442 14.4453 19.3442Z" fill="#303030"/>
<path d="M7.83594 20.7695L9.92912 20.7695C10.2851 20.7695 10.5736 20.481 10.5736 20.125C10.5736 19.769 10.2851 19.4805 9.92912 19.4805L7.83594 19.4805C7.47998 19.4805 7.19141 19.769 7.19141 20.125C7.19141 20.481 7.47998 20.7695 7.83594 20.7695Z" fill="#303030"/>
</svg>
