<svg width="22" height="21" viewBox="0 0 22 21" fill="none" xmlns="http://www.w3.org/2000/svg">
<g clip-path="url(#clip0_1506_30271)">
<path d="M21.8738 13.3029L17.0114 8.66146L17.2429 8.59303C17.3878 8.55028 17.4986 8.4382 17.535 8.29768C17.5714 8.15717 17.5281 8.00874 17.4209 7.90637L15.1731 5.76074C15.0919 5.68322 14.9819 5.63971 14.8671 5.63971C14.7523 5.63971 14.6422 5.68322 14.561 5.76074L14.2667 6.0417L8.06439 0.12103C7.98325 0.04351 7.87319 0 7.75844 0C7.64369 0 7.53356 0.04351 7.45242 0.12103L3.79173 3.61546C3.79122 3.61595 3.7905 3.61629 3.78999 3.61684C3.78949 3.61739 3.78913 3.61801 3.78855 3.61849L0.127715 7.11293C-0.0412697 7.27423 -0.0412697 7.53578 0.127715 7.69701L3.38069 10.8021C3.3812 10.8026 3.38149 10.8032 3.38199 10.8036C3.38243 10.8041 3.38307 10.8043 3.38351 10.8048L6.3304 13.6177L6.03606 13.8987C5.86708 14.06 5.86708 14.3216 6.03606 14.4828L8.28364 16.6284C8.36579 16.7069 8.47628 16.7494 8.58966 16.7494C8.62428 16.7494 8.65919 16.7454 8.69359 16.7373C8.84079 16.7026 8.95821 16.5967 9.00307 16.4585L9.07476 16.2374L13.9372 20.8789C14.0184 20.9564 14.1284 20.9999 14.2432 20.9999C14.3579 20.9999 14.4681 20.9564 14.5492 20.8789L21.8739 13.8869C22.0428 13.7258 22.0428 13.4642 21.8738 13.3029ZM10.6047 9.53758L7.9624 7.01538L11.0126 4.10364L13.6549 6.62585L10.6047 9.53758ZM7.75844 0.99722L10.4007 3.51949L7.35044 6.43123L4.70813 3.90902L7.75844 0.99722ZM4.09616 4.49317L6.73854 7.01544L3.68808 9.92731L1.04577 7.40504L4.09616 4.49317ZM4.29998 10.5114L7.35044 7.59953L9.99275 10.1218L6.94236 13.0337L4.29998 10.5114ZM6.95405 14.1908L7.24831 13.9099L7.24838 13.9099L7.24845 13.9098L10.9098 10.4147C10.9101 10.4144 10.9105 10.4142 10.9109 10.4138C10.9112 10.4135 10.9114 10.4132 10.9117 10.4128L14.8672 6.63693L16.3017 8.00626L13.732 8.76548C13.5955 8.80576 13.4887 8.90772 13.4465 9.0379L12.5065 11.9372L9.46928 12.8344C9.33282 12.8747 9.226 12.9767 9.18381 13.1069L8.38851 15.56L6.95405 14.1908ZM14.2432 20.0028L9.36405 15.3454L9.94313 13.5594L12.9804 12.6621C13.1168 12.6218 13.2236 12.5199 13.2658 12.3896L14.2058 9.49042L16.0767 8.93774L20.9559 13.5951L14.2432 20.0028Z" fill="#303030"/>
</g>
<defs>
<clipPath id="clip0_1506_30271">
<rect width="22" height="21" fill="white"/>
</clipPath>
</defs>
</svg>
