<svg width="22" height="21" viewBox="0 0 22 21" fill="none" xmlns="http://www.w3.org/2000/svg">
<g clip-path="url(#clip0_1506_30273)">
<path d="M21.6986 5.50122C21.2044 5.16524 20.9434 5.18286 20.3632 4.62915C19.6149 3.91491 19.84 3.65792 19.0031 2.85907C18.1693 2.06311 17.8965 2.27444 17.1493 1.56115C16.5662 1.00456 16.5934 0.766156 16.2357 0.286786C15.9673 -0.0729017 15.4191 -0.0998181 15.1462 0.237599C13.9526 1.7132 13.9634 3.84841 14.0569 4.89736C11.6112 3.67762 8.45078 4.0027 6.32164 6.03506C4.18999 8.06982 3.85312 11.088 5.1306 13.4203C4.78685 13.3929 4.33081 13.3733 3.81804 13.3937C2.32672 13.4536 1.12561 13.8118 0.247944 14.4585C-0.107555 14.7206 -0.0751603 15.2437 0.299641 15.4986C0.799656 15.8386 1.62563 16.0427 2.25757 17.1819C2.66376 17.9139 3.22722 18.4537 3.99865 18.8436C5.1922 19.447 5.40621 20.2358 5.76238 20.713C6.02892 21.0702 6.57677 21.1022 6.85187 20.7622C8.04543 19.2866 8.03469 17.1513 7.94119 16.1023C10.3869 17.322 13.5473 16.9971 15.6764 14.9646C17.8082 12.9297 18.1448 9.91168 16.8676 7.57971C18.5268 7.71141 20.4374 7.50858 21.7501 6.54119C22.1056 6.27907 22.0732 5.75596 21.6986 5.50122ZM6.77735 6.47021L6.79698 6.45146L6.79698 12.3159C6.79698 12.6532 7.44152 12.66 7.44152 12.3159L7.44152 5.92179C8.02881 5.5041 8.68627 5.19664 9.38535 5.01047L9.38535 15.9894C8.68627 15.8032 8.02881 15.4957 7.44152 15.078L7.44152 13.5574C7.44152 13.1508 6.79698 13.1501 6.79698 13.5574L6.79698 14.5484C4.44059 12.3188 4.44092 8.70043 6.77735 6.47021ZM6.34497 20.384C6.14423 20.4559 5.97454 19.1464 4.30027 18.3C3.6455 17.969 3.17435 17.5198 2.82724 16.8939C1.96149 15.3333 0.64507 15.154 0.641881 14.9455C1.59743 14.2414 2.90361 14.0475 3.83113 14.0091C4.62572 13.9759 5.28771 14.0482 5.55039 14.0833C5.614 14.1711 5.68013 14.2574 5.74861 14.3423C5.22812 14.4945 4.54801 14.7368 3.9404 15.1468C3.58893 15.3841 3.96759 15.882 4.31252 15.6492C4.95688 15.2142 5.69591 14.9915 6.20919 14.8549C6.33322 14.979 6.4623 15.0984 6.59674 15.2131C6.46431 15.683 6.23151 16.4008 5.75986 17.0277C5.5091 17.361 6.03647 17.7147 6.28337 17.3866C6.73622 16.7848 6.98866 16.1291 7.14292 15.6319C7.17665 15.6551 7.21073 15.6782 7.24497 15.7008C7.32822 16.2718 7.61188 18.8159 6.34497 20.384ZM10.0299 16.1246L10.0299 4.87525C10.6705 4.77607 11.3324 4.77607 11.9737 4.87605L11.9737 16.1236C11.3332 16.2236 10.6714 16.2239 10.0299 16.1246ZM15.2207 14.5296C15.216 14.5341 15.2113 14.5386 15.2066 14.5429L15.2066 9.06349C15.2066 8.65685 14.5621 8.65621 14.5621 9.06349L14.5621 15.074C13.9749 15.4927 13.3175 15.8009 12.6182 15.9879L12.6182 5.01191C13.3175 5.19889 13.9749 5.50714 14.5621 5.92579L14.5621 7.83238C14.5621 8.23885 15.2066 8.23965 15.2066 7.83238L15.2066 6.45691C15.2113 6.46124 15.216 6.46572 15.2207 6.47021C17.5539 8.69723 17.5541 12.3021 15.2207 14.5296ZM16.4477 6.91658C16.424 6.88389 16.3998 6.85137 16.3755 6.819C16.9227 6.66455 17.6496 6.40773 18.3061 5.93364C18.6458 5.68819 18.2576 5.19728 17.917 5.4429C17.2406 5.93156 16.451 6.16564 15.9366 6.29782C15.8166 6.16964 15.6917 6.0466 15.5613 5.92771C15.7101 5.41838 15.954 4.68267 16.4426 4.05253C16.6959 3.72569 16.1784 3.35927 15.9245 3.6866C15.459 4.28677 15.1908 4.96913 15.0243 5.48808C14.9354 5.42271 14.8449 5.35974 14.7531 5.29902C14.5335 3.79859 14.6779 1.82391 15.6531 0.615872C15.782 0.56989 15.9609 1.29696 16.6934 1.99614C17.5283 2.79306 17.7992 2.57998 18.5474 3.29422C19.2957 4.00847 19.0708 4.2653 19.9075 5.06414C20.3435 5.48039 20.6453 5.63307 20.9117 5.76782C21.0222 5.82373 21.3552 5.9878 21.3562 6.05429C20.0876 6.98915 18.0187 7.12582 16.4477 6.91658Z" fill="#303030"/>
</g>
<defs>
<clipPath id="clip0_1506_30273">
<rect width="22" height="21" fill="white"/>
</clipPath>
</defs>
</svg>
