<!-- sample rectangle -->
<svg class="nav_icons_img" width="23" height="22" viewBox="0 0 23 22" fill="none" xmlns="http://www.w3.org/2000/svg">
                            <g clip-path="url(#clip0_652_9053)">
                                <path d="M6.75801 11.6753C6.73266 11.6753 6.70697 11.6732 6.68114 11.6689C6.35385 11.6144 6.0324 11.5852 5.72573 11.5818C5.48017 11.5791 5.28333 11.387 5.28616 11.1526C5.28891 10.9198 5.48747 10.7329 5.73072 10.7329C5.73239 10.7329 5.73416 10.7329 5.73583 10.733C6.09019 10.7368 6.45964 10.7703 6.83385 10.8326C7.07581 10.8728 7.23776 11.0927 7.19557 11.3236C7.15784 11.5299 6.97011 11.6753 6.75801 11.6753Z" fill="#000000"></path>
                                <path d="M3.60712 11.9811C3.43412 11.9811 3.2696 11.8841 3.19767 11.7225C3.10159 11.5068 3.20691 11.2576 3.43296 11.1658C3.56178 11.1135 3.69224 11.0657 3.82076 11.0236C4.053 10.9476 4.30596 11.0655 4.38575 11.2872C4.4655 11.5089 4.34184 11.7504 4.10959 11.8265C4.00093 11.8621 3.89032 11.9027 3.78084 11.9471C3.72408 11.9702 3.66512 11.9811 3.60712 11.9811Z" fill="#000000"></path>
                                <path d="M12.7116 5.50456C12.8197 5.40904 12.8263 5.24789 12.7262 5.14465C12.6261 5.04141 12.4573 5.03526 12.3492 5.13075C11.877 5.54792 11.2672 5.93551 10.5858 6.25166C9.76809 6.63102 8.92273 6.87018 8.20545 6.92502C8.05858 6.93625 7.94905 7.05897 7.96083 7.19921C7.972 7.33246 8.08875 7.43353 8.22646 7.43353C8.23364 7.43353 8.24086 7.43328 8.24807 7.43271C9.02993 7.37295 9.94302 7.11619 10.8191 6.70981C11.547 6.37208 12.2015 5.95528 12.7116 5.50456Z" fill="#000000"></path>
                                <path d="M20.6518 9.89052C20.0099 9.84713 19.2966 9.6877 18.589 9.4295C17.7397 9.11955 16.9786 8.69459 16.4462 8.23271C16.3371 8.13809 16.1684 8.14584 16.0693 8.24989C15.9703 8.35399 15.9783 8.51506 16.0873 8.60964C16.6678 9.11311 17.4886 9.57322 18.3985 9.90524C19.1544 10.1811 19.9205 10.3517 20.6141 10.3986C20.6205 10.399 20.6269 10.3992 20.6332 10.3992C20.772 10.3992 20.8891 10.2967 20.8991 10.1625C20.9095 10.0223 20.7988 9.90045 20.6518 9.89052Z" fill="#000000"></path>
                                <path d="M19.6479 6.23859C17.9817 5.63066 16.4944 5.56368 15.6075 6.00607L13.5848 3.30122C13.5835 3.29941 13.5822 3.29765 13.5808 3.29588C12.861 2.3643 10.9244 2.37882 8.87138 3.33124C6.76045 4.31053 5.57541 5.71515 5.9226 6.82643C5.92277 6.82696 5.9229 6.82745 5.92307 6.82794L6.78842 9.56036C6.51854 9.5358 6.23821 9.52292 5.9492 9.52292C3.60225 9.52292 1.89316 10.2918 1.6965 11.4361C1.69641 11.4367 1.69632 11.4372 1.69624 11.4377L0.925508 16.0316C0.92177 16.0538 0.919922 16.0763 0.919922 16.0987C0.919922 16.693 1.21563 17.5255 2.62454 18.1163C3.51472 18.4895 4.70233 18.695 5.96871 18.695C7.23513 18.695 8.42274 18.4895 9.31292 18.1163C10.7218 17.5255 11.0175 16.693 11.0175 16.0987C11.0175 16.075 11.0155 16.0513 11.0113 16.028L10.3683 12.3993C11.0199 12.3146 11.7312 12.1249 12.4496 11.8445C12.5701 12.2321 12.8336 12.6665 13.3279 13.1324C14.0198 13.7844 15.0523 14.3812 16.2352 14.8128C17.3137 15.2063 18.3948 15.4179 19.3133 15.4179C19.4022 15.4179 19.4897 15.4159 19.5754 15.4119C21.1124 15.3403 21.7 14.6635 21.9223 14.1083C21.9311 14.0862 21.938 14.0634 21.9429 14.0401L22.895 9.49999C22.8954 9.49786 22.8959 9.49564 22.8963 9.49347C23.1159 8.35504 21.78 7.01662 19.6479 6.23859ZM5.96871 17.8461C3.97053 17.8461 1.84796 17.2448 1.80976 16.1294L2.57426 11.5729C2.67674 10.9824 3.96671 10.3719 5.9492 10.3719C7.88395 10.3719 9.207 11.0129 9.32607 11.6079L10.1276 16.1311C10.0874 17.2454 7.96594 17.8461 5.96871 17.8461ZM10.2023 11.4625C10.2019 11.4604 10.2016 11.4582 10.2011 11.4561C10.0439 10.6458 9.11221 10.0098 7.76506 9.71044L6.77463 6.58308C6.59635 6.00923 7.477 4.92195 9.26007 4.09474C11.0003 3.28748 12.4838 3.31209 12.8633 3.7975L14.9516 6.59001L12.5207 10.606C12.5089 10.6255 12.4988 10.6458 12.4904 10.6668C12.4569 10.7504 12.4278 10.8416 12.406 10.9394C11.6524 11.2601 10.8878 11.4771 10.2199 11.5614L10.2023 11.4625ZM22.0223 9.33708L21.079 13.8353C20.6247 14.8623 18.4184 14.7005 16.5528 14.0198C14.6863 13.3388 12.9285 12.0536 13.3101 10.9987L15.7285 7.00345C16.0447 6.48657 17.4782 6.35581 19.3304 7.03159C21.1375 7.691 22.1336 8.74071 22.0223 9.33708Z" fill="#000000"></path>
                                <path d="M8.25244 12.5922C7.63652 12.7705 6.91061 12.8646 6.15311 12.8646C5.24389 12.8646 4.37403 12.727 3.70385 12.477C3.56639 12.4258 3.41183 12.4906 3.35821 12.6216C3.30458 12.7526 3.37239 12.9003 3.50963 12.9515C4.24023 13.224 5.17901 13.374 6.15311 13.374C6.96234 13.374 7.74179 13.2722 8.40721 13.0797C8.54827 13.0389 8.6279 12.8967 8.58519 12.7621C8.54239 12.6274 8.39359 12.5514 8.25244 12.5922Z" fill="#000000"></path>
                                <path d="M19.7442 11.903C19.6052 11.8566 19.453 11.9266 19.4043 12.0594L19.182 12.6665C19.1334 12.7993 19.2067 12.9445 19.3459 12.991C19.375 13.0007 19.4046 13.0053 19.4339 13.0053C19.5441 13.0053 19.6473 12.9396 19.6857 12.8346L19.9081 12.2274C19.9567 12.0947 19.8834 11.9494 19.7442 11.903Z" fill="#000000"></path>
                                <path d="M17.8371 11.8869C17.698 11.8405 17.5458 11.9105 17.4972 12.0432L17.2748 12.6504C17.2262 12.7831 17.2995 12.9284 17.4386 12.9748C17.4677 12.9846 17.4974 12.9892 17.5266 12.9892C17.6369 12.9892 17.7401 12.9235 17.7785 12.8185L18.0009 12.2113C18.0495 12.0786 17.9762 11.9333 17.8371 11.8869Z" fill="#000000"></path>
                                <path d="M7.90351 14.417C7.75617 14.417 7.63672 14.531 7.63672 14.6717L7.63672 15.3149C7.63672 15.4555 7.75617 15.5695 7.90351 15.5695C8.05085 15.5695 8.1703 15.4555 8.1703 15.3149L8.1703 14.6717C8.1703 14.531 8.05085 14.417 7.90351 14.417Z" fill="#000000"></path>
                                <path d="M5.86933 15.4297C5.72199 15.4297 5.60254 15.5437 5.60254 15.6844L5.60254 16.3276C5.60254 16.4682 5.72199 16.5822 5.86933 16.5822C6.01667 16.5822 6.13613 16.4682 6.13613 16.3276L6.13613 15.6844C6.13613 15.5438 6.01667 15.4297 5.86933 15.4297Z" fill="#000000"></path>
                            </g>
                            <defs>
                                <clipPath id="clip0_652_9053">
                                    <rect width="22" height="21" fill="#E92827" transform="translate(0.919922 0.145996)"></rect>
                                </clipPath>
                            </defs>
                        </svg>