<svg width="25" height="24" viewBox="0 0 25 24" fill="none" xmlns="http://www.w3.org/2000/svg">
<path d="M20.8333 4.25049H4.16667C3.68404 4.25311 3.22196 4.43833 2.88069 4.76595C2.53942 5.09357 2.34648 5.53717 2.34375 6.00049V18.0005C2.34648 18.4638 2.53942 18.9074 2.88069 19.235C3.22196 19.5626 3.68404 19.7479 4.16667 19.7505H20.8333C21.316 19.7479 21.778 19.5626 22.1193 19.235C22.4606 18.9074 22.6535 18.4638 22.6562 18.0005V6.00049C22.6535 5.53717 22.4606 5.09357 22.1193 4.76595C21.778 4.43833 21.316 4.25311 20.8333 4.25049ZM3.90625 6.00049C3.90625 5.93418 3.93369 5.8706 3.98252 5.82371C4.03136 5.77683 4.0976 5.75049 4.16667 5.75049H9.63542V8.40049C9.25229 8.27341 8.84314 8.23578 8.44184 8.2907C8.04055 8.34562 7.65865 8.49152 7.32777 8.71631C6.99689 8.94111 6.72655 9.23833 6.53913 9.58337C6.35171 9.92842 6.2526 10.3114 6.25 10.7005C6.23411 10.8835 6.23411 11.0675 6.25 11.2505H3.90625V6.00049ZM9.63542 18.2505H4.16667C4.0976 18.2505 4.03136 18.2241 3.98252 18.1773C3.93369 18.1304 3.90625 18.0668 3.90625 18.0005V12.7505H7.03125L7.19792 12.9605L9.65625 15.3105L9.63542 18.2505ZM8.33333 11.8905C8.16814 11.7356 8.03695 11.5505 7.9475 11.3461C7.85805 11.1417 7.81214 10.9222 7.8125 10.7005C7.82587 10.444 7.9415 10.2023 8.13542 10.0255C8.32934 9.84863 8.58669 9.75017 8.85417 9.75049C8.98429 9.74867 9.11341 9.77259 9.23348 9.82076C9.35355 9.86893 9.462 9.94033 9.55208 10.0305L9.95833 10.4105C10.0302 10.4812 10.116 10.5375 10.2108 10.5759C10.3056 10.6143 10.4075 10.6341 10.5104 10.6341C10.6133 10.6341 10.7152 10.6143 10.81 10.5759C10.9048 10.5375 10.9907 10.4812 11.0625 10.4105L11.4687 10.0305C11.6143 9.91832 11.7885 9.84575 11.9733 9.82036C12.1581 9.79498 12.3465 9.81771 12.519 9.88619C12.6915 9.95467 12.8416 10.0664 12.9537 10.2096C13.0658 10.3529 13.1358 10.5224 13.1562 10.7005C13.1566 10.9222 13.1107 11.1417 13.0213 11.3461C12.9318 11.5505 12.8006 11.7356 12.6354 11.8905L10.5521 13.8905L8.33333 11.8905ZM21.0937 18.0005C21.0937 18.0668 21.0663 18.1304 21.0175 18.1773C20.9686 18.2241 20.9024 18.2505 20.8333 18.2505H11.1979V15.3105L13.6562 13.0005L13.8229 12.7905H21.1146L21.0937 18.0005ZM21.0937 11.2505H14.5833C14.5992 11.0675 14.5992 10.8835 14.5833 10.7005C14.5831 10.3066 14.4839 9.91851 14.2942 9.56922C14.1045 9.21993 13.8298 8.91971 13.4935 8.69401C13.1572 8.46831 12.7692 8.32378 12.3623 8.27269C11.9554 8.22159 11.5417 8.26543 11.1562 8.40049V5.75049H20.8333C20.9024 5.75049 20.9686 5.77683 21.0175 5.82371C21.0663 5.8706 21.0937 5.93418 21.0937 6.00049V11.2505Z" fill="#303030"/>
</svg>
