<svg width="210" height="200" viewBox="0 0 210 200" fill="none" xmlns="http://www.w3.org/2000/svg">
<g clip-path="url(#clip0_3285_33996)">
<path d="M55.7099 109.805C55.4679 109.805 55.2227 109.785 54.9762 109.744C51.852 109.225 48.7836 108.947 45.8563 108.915C43.5123 108.889 41.6334 107.059 41.6604 104.827C41.6867 102.61 43.582 100.83 45.9039 100.83C45.9199 100.83 45.9367 100.83 45.9527 100.83C49.3353 100.867 52.8618 101.186 56.4339 101.779C58.7434 102.163 60.2893 104.257 59.8866 106.456C59.5264 108.421 57.7345 109.805 55.7099 109.805Z" fill="black"/>
<path d="M25.6384 112.728C23.9871 112.728 22.4166 111.804 21.73 110.265C20.8129 108.211 21.8182 105.837 23.9761 104.963C25.2057 104.465 26.4509 104.01 27.6777 103.608C29.8946 102.885 32.3092 104.008 33.0709 106.119C33.8321 108.231 32.6517 110.53 30.4348 111.255C29.3975 111.594 28.3418 111.981 27.2967 112.404C26.7549 112.624 26.1921 112.728 25.6384 112.728Z" fill="black"/>
<path d="M112.544 51.0355C113.576 50.1258 113.639 48.591 112.683 47.6078C111.728 46.6246 110.117 46.566 109.085 47.4754C104.577 51.4484 98.7569 55.1398 92.2522 58.1508C84.4469 61.7637 76.3775 64.0414 69.5308 64.5637C68.1289 64.6707 67.0834 65.8395 67.1958 67.175C67.3024 68.4441 68.4168 69.4066 69.7314 69.4066C69.7999 69.4066 69.8688 69.4043 69.9377 69.3988C77.4009 68.8297 86.1167 66.3844 94.479 62.5141C101.428 59.2977 107.674 55.3281 112.544 51.0355Z" fill="black"/>
<path d="M188.337 92.8079C182.21 92.3946 175.401 90.8762 168.647 88.4172C160.539 85.4653 153.275 81.418 148.193 77.0192C147.152 76.118 145.541 76.1919 144.595 77.1829C143.65 78.1743 143.727 79.7083 144.767 80.609C150.308 85.404 158.143 89.786 166.828 92.9481C174.044 95.5751 181.357 97.2001 187.977 97.6469C188.039 97.6508 188.099 97.6528 188.16 97.6528C189.485 97.6528 190.603 96.6766 190.698 95.3985C190.797 94.0626 189.741 92.9024 188.337 92.8079Z" fill="black"/>
<path d="M178.767 58.0267C162.862 52.2368 148.665 51.5989 140.2 55.8122L120.892 30.0517C120.88 30.0345 120.867 30.0177 120.854 30.0009C113.983 21.1286 95.4975 21.2669 75.9002 30.3376C55.7505 39.6642 44.4388 53.0415 47.7529 63.6251C47.7545 63.6302 47.7557 63.6349 47.7574 63.6396L56.0175 89.6626C53.4413 89.4286 50.7654 89.306 48.0067 89.306C25.604 89.306 9.29004 96.6286 7.41275 107.527C7.41193 107.532 7.41111 107.537 7.41029 107.542L0.0533203 151.294C0.0176367 151.505 6.67451e-10 151.719 6.68565e-10 151.933C6.98013e-10 157.593 2.8227 165.521 16.2713 171.147C24.7685 174.702 36.1048 176.659 48.1929 176.659C60.2815 176.659 71.6178 174.702 80.115 171.147C93.5636 165.521 96.3863 157.593 96.3863 151.933C96.3863 151.707 96.3666 151.481 96.3268 151.259L90.1889 116.701C96.4089 115.893 103.199 114.087 110.056 111.416C111.206 115.108 113.721 119.245 118.44 123.682C125.044 129.892 134.9 135.575 146.191 139.686C156.486 143.434 166.806 145.449 175.573 145.449C176.422 145.449 177.257 145.43 178.075 145.392C192.746 144.709 198.355 138.264 200.477 132.977C200.561 132.766 200.628 132.549 200.674 132.327L209.762 89.0876C209.766 89.0673 209.77 89.0462 209.774 89.0255C211.87 78.1833 199.119 65.4364 178.767 58.0267ZM48.1929 168.575C29.1195 168.575 8.85855 162.847 8.49393 152.225L15.7914 108.83C16.7696 103.206 29.0829 97.3915 48.0067 97.3915C66.4748 97.3915 79.104 103.497 80.2405 109.163L87.8916 152.242C87.5077 162.854 67.2574 168.575 48.1929 168.575ZM88.6048 107.779C88.6011 107.758 88.5974 107.738 88.5933 107.717C87.093 100 78.1992 93.9431 65.3399 91.0919L55.8858 61.3075C54.1841 55.8423 62.5903 45.4872 79.6105 37.6091C96.2214 29.9208 110.382 30.1552 114.005 34.7782L133.939 61.3735L110.735 99.6208C110.622 99.8064 110.526 99.9997 110.445 100.2C110.125 100.997 109.848 101.865 109.64 102.796C102.446 105.851 95.1476 107.917 88.7726 108.72L88.6048 107.779ZM201.431 87.536L192.428 130.376C188.091 140.158 167.031 138.617 149.223 132.134C131.406 125.647 114.628 113.408 118.27 103.361L141.354 65.311C144.373 60.3884 158.057 59.1431 175.736 65.579C192.986 71.8591 202.494 81.8564 201.431 87.536Z" fill="black"/>
<path d="M69.9789 118.536C64.0997 120.233 57.1705 121.13 49.9399 121.13C41.2609 121.13 32.9577 119.819 26.5605 117.439C25.2484 116.95 23.7731 117.568 23.2612 118.815C22.7494 120.063 23.3966 121.47 24.7066 121.957C31.6805 124.552 40.6416 125.981 49.9399 125.981C57.6643 125.981 65.1046 125.012 71.4562 123.178C72.8028 122.789 73.5628 121.435 73.1551 120.154C72.7466 118.871 71.3262 118.147 69.9789 118.536Z" fill="black"/>
<path d="M179.682 111.984C178.355 111.543 176.902 112.209 176.437 113.473L174.315 119.256C173.851 120.52 174.551 121.903 175.879 122.346C176.157 122.438 176.44 122.482 176.719 122.482C177.772 122.482 178.756 121.856 179.124 120.856L181.246 115.074C181.71 113.81 181.01 112.426 179.682 111.984Z" fill="black"/>
<path d="M161.479 111.814C160.152 111.373 158.699 112.039 158.235 113.303L156.112 119.086C155.648 120.35 156.348 121.734 157.676 122.176C157.954 122.268 158.237 122.312 158.516 122.312C159.569 122.312 160.553 121.686 160.92 120.687L163.043 114.904C163.507 113.64 162.807 112.256 161.479 111.814Z" fill="black"/>
<path d="M66.6482 135.916C65.2418 135.916 64.1016 137.002 64.1016 138.341L64.1016 144.467C64.1016 145.807 65.2418 146.893 66.6482 146.893C68.0546 146.893 69.1949 145.807 69.1949 144.467L69.1949 138.341C69.1949 137.002 68.0546 135.916 66.6482 135.916Z" fill="black"/>
<path d="M47.2576 145.561C45.8512 145.561 44.7109 146.646 44.7109 147.986L44.7109 154.112C44.7109 155.451 45.8512 156.537 47.2576 156.537C48.664 156.537 49.8043 155.451 49.8043 154.112L49.8043 147.986C49.8043 146.647 48.664 145.561 47.2576 145.561Z" fill="black"/>
</g>
<defs>
<clipPath id="clip0_3285_33996">
<rect width="210" height="200" fill="white"/>
</clipPath>
</defs>
</svg>
