<?xml version="1.0" encoding="UTF-8"?>
<svg version="1.1" xmlns="http://www.w3.org/2000/svg" width="200" height="200">
<path d="M0 0 C36.3 0 72.6 0 110 0 C113 6 113 6 113 8 C113.73863281 7.95359375 114.47726563 7.9071875 115.23828125 7.859375 C128.08763749 7.40221874 137.35859015 11.55991598 147 20 C156.93925212 30.64036119 159.70923407 43.02087267 159.37109375 57.19140625 C158.76288705 68.20622432 153.72814929 77.29896702 146 85 C135.79402781 93.81578993 124.28768299 97.22909798 111 97 C110.87044922 98.37671875 110.87044922 98.37671875 110.73828125 99.78125 C109.67314475 109.08409355 108.06724084 115.49535414 101.0625 121.875 C95.78019713 125.54027138 91.13198335 126.25186887 84.77636719 126.29052734 C84.0795433 126.29724457 83.38271942 126.30396179 82.66477966 126.31088257 C80.37540427 126.32978181 78.08632342 126.33378294 75.796875 126.3359375 C74.19272749 126.34237219 72.58858114 126.34910104 70.98443604 126.35610962 C67.62550133 126.36806304 64.26666931 126.37179256 60.90771484 126.37060547 C56.62636687 126.37040265 52.34568545 126.39767432 48.06449509 126.43214989 C44.75110924 126.45450977 41.43788133 126.45844021 38.1244278 126.45738602 C36.54733235 126.45972949 34.9702317 126.46848154 33.39321136 126.48405075 C23.46541586 126.57287091 14.41443422 126.37932179 6.34375 119.8515625 C5.7353125 119.11679688 5.126875 118.38203125 4.5 117.625 C3.8709375 116.89539063 3.241875 116.16578125 2.59375 115.4140625 C-1.49544679 109.22013207 -1.26782764 103.07226236 -1.1953125 95.9140625 C-1.1924826 94.85714203 -1.18965271 93.80022156 -1.18673706 92.71127319 C-1.1755785 89.34906499 -1.15048159 85.98712714 -1.125 82.625 C-1.11496462 80.33984761 -1.10583975 78.05469102 -1.09765625 75.76953125 C-1.07565332 70.17959589 -1.04221873 64.58981727 -1 59 C-1.78552246 58.85900879 -2.57104492 58.71801758 -3.38037109 58.57275391 C-7.60176858 57.64979039 -10.13450419 55.13435715 -13 52 C-16.46905294 46.06903852 -16 43.46386963 -16 36 C-10.72 24.12 -5.44 12.24 0 0 Z M4 6 C2.14691879 10.25343229 0.29493761 14.50730768 -1.55419922 18.76245117 C-2.18407841 20.21097821 -2.81461103 21.65922129 -3.44580078 23.10717773 C-4.35098945 25.18399601 -5.25385192 27.2618117 -6.15625 29.33984375 C-6.44060913 29.99089584 -6.72496826 30.64194794 -7.01794434 31.31272888 C-8.40786107 34.05836199 -8.40786107 34.05836199 -9 37 C0.24 37 9.48 37 19 37 C21.31 26.77 23.62 16.54 26 6 C18.74 6 11.48 6 4 6 Z M32 6 C30.65798402 10.99785261 29.32231297 15.99694737 28 21 C27.53787109 22.74603516 27.53787109 22.74603516 27.06640625 24.52734375 C26.79699219 25.57019531 26.52757812 26.61304688 26.25 27.6875 C26.00765625 28.61949219 25.7653125 29.55148438 25.515625 30.51171875 C24.86472628 33.22927418 24.86472628 33.22927418 25 37 C33.91 37 42.82 37 52 37 C52 26.77 52 16.54 52 6 C45.4 6 38.8 6 32 6 Z M58 6 C58 16.23 58 26.46 58 37 C62.95 37 67.9 37 73 37 C76.1887754 32.65587119 77.98528999 29.73817794 80 25 C80.66 24.34 81.32 23.68 82 23 C82.09745897 21.05152847 82.09745897 21.05152847 81.75 18.875 C81.66234375 18.15054688 81.5746875 17.42609375 81.484375 16.6796875 C80.8342493 13.08302433 79.88645525 9.54582098 79 6 C72.07 6 65.14 6 58 6 Z M85 6 C85.66 9.63 86.32 13.26 87 17 C87.78503906 16.59007812 88.57007812 16.18015625 89.37890625 15.7578125 C94.8521038 12.95070014 99.98896889 10.36614343 106 9 C106 8.01 106 7.02 106 6 C99.07 6 92.14 6 85 6 Z M85.1875 28.3125 C78.78901203 37.11598809 75.96880775 46.14301875 77 57 C79.45343351 69.19326894 84.83728604 77.24525097 94.796875 84.5625 C103.52970916 90.26051945 113.47798511 91.20751049 123.65234375 89.57421875 C133.97555416 86.9159513 142.66275131 80.12342831 148.1796875 71.0625 C153.12781384 61.8163661 154.56618057 52.07613485 151.8125 41.875 C148.00203224 30.42562281 140.57803658 22.56377249 130 17 C113.87172279 10.77160026 96.33508471 14.78456422 85.1875 28.3125 Z M-10 41 C-8.92060764 46.39696182 -7.76765159 48.14671996 -4 52 C-0.05375462 54.28466838 3.49607457 54.47409741 8 54 C12.31187811 51.717241 15.33696183 49.0969818 18 45 C18 43.68 18 42.36 18 41 C8.76 41 -0.48 41 -10 41 Z M25 41 C26.03998587 47.23991521 26.44102355 48.18318251 31 52 C34.54998775 54.48499142 37.74718041 54.43249013 42 54 C45.73827228 52.5799171 48.46306097 50.69282455 50.9375 47.5 C52.26076043 44.83918176 52.26076043 44.83918176 52 41 C43.09 41 34.18 41 25 41 Z M58 41 C58.82917786 45.22880711 59.51799717 47.9870168 62.8125 50.875 C66.08102265 53.34618769 66.08102265 53.34618769 71 54 C71.33 49.71 71.66 45.42 72 41 C67.38 41 62.76 41 58 41 Z M17.4375 54.3125 C14.85418977 56.56936326 12.5570189 57.65091755 9.28515625 58.66796875 C8.48086182 58.92215576 7.67656738 59.17634277 6.84790039 59.43823242 C6.23809326 59.62361572 5.62828613 59.80899902 5 60 C4.8727096 66.5468254 4.78544409 73.09332902 4.7253418 79.64111328 C4.70027393 81.86616949 4.66621056 84.09114398 4.62280273 86.31591797 C4.56181191 89.52331765 4.53371216 92.72962407 4.51171875 95.9375 C4.48591232 96.92427734 4.4601059 97.91105469 4.43351746 98.92773438 C4.43087817 105.49963033 5.65062383 109.96643341 10 115 C14.30826202 118.36044438 17.71671132 120.15218506 23.1875 120.0625 C24.445625 120.041875 25.70375 120.02125 27 120 C27.0093457 118.97640381 27.01869141 117.95280762 27.02832031 116.89819336 C27.06840168 113.07533353 27.13420892 109.25326322 27.20751953 105.4309082 C27.23562456 103.78127234 27.25689091 102.13150442 27.27099609 100.48168945 C27.29257233 98.10039175 27.33929245 95.72066412 27.390625 93.33984375 C27.39246796 92.24566383 27.39246796 92.24566383 27.39434814 91.12937927 C27.54701151 85.70838743 28.89712097 82.46984753 32 78 C37.88277917 72.47801498 46.6358724 73.44195849 54.125 73.5625 C55.37410156 73.55541016 56.62320313 73.54832031 57.91015625 73.54101562 C64.26918274 73.5851284 68.3386516 73.93787745 74 77 C74.66 77 75.32 77 76 77 C78.23110538 82.50339327 79.18436486 87.02287194 79.31640625 92.94921875 C79.33718735 93.72183548 79.35796844 94.49445221 79.37937927 95.29048157 C79.44471038 97.7560648 79.50368315 100.22175361 79.5625 102.6875 C79.60570087 104.36003691 79.64931566 106.03256319 79.69335938 107.70507812 C79.8003749 111.8032775 79.90168857 115.90158296 80 120 C81.76291315 120.03047939 83.52597848 120.05224282 85.2890625 120.0703125 C86.76173584 120.08989014 86.76173584 120.08989014 88.26416016 120.10986328 C93.55518884 119.89739113 96.17922972 117.85807802 99.75 114.125 C104.15587713 108.00572621 104.25716949 103.35790485 104 96 C102.91460937 95.48050781 101.82921875 94.96101563 100.7109375 94.42578125 C99.26541192 93.72179152 97.8201113 93.01733975 96.375 92.3125 C95.66214844 91.97283203 94.94929688 91.63316406 94.21484375 91.28320312 C85.13255384 86.82538193 79.67334471 81.04667222 75 72 C74.31034431 69.82591813 73.66285398 67.63791634 73.0625 65.4375 C72.04622461 61.49802396 72.04622461 61.49802396 69.19140625 58.94140625 C67.13277359 58.4635043 67.13277359 58.4635043 65.03515625 58.28125 C61.74789077 57.82696379 59.56121705 55.99899867 57 54 C56.505 53.01 56.505 53.01 56 52 C53.48103951 53.119538 51.60265345 54.31981552 49.4375 56.0625 C44.14680964 60.26792054 37.4538105 59.58743171 31 59 C27.2258817 57.56965873 24.81014859 54.81014859 22 52 C19.67218515 51.77667849 19.67218515 51.77667849 17.4375 54.3125 Z M35 83 C32.47784655 86.60217011 32.74216116 90.38023134 32.8046875 94.609375 C32.80670166 95.25406738 32.80871582 95.89875977 32.81079102 96.56298828 C32.82121219 98.95873179 32.84913474 101.35437345 32.875 103.75 C32.91625 109.1125 32.9575 114.475 33 120 C46.53 120 60.06 120 74 120 C74.061875 114.493125 74.12375 108.98625 74.1875 103.3125 C74.21481201 101.58298096 74.24212402 99.85346191 74.27026367 98.0715332 C74.27903144 96.68962297 74.28667469 95.30770496 74.29296875 93.92578125 C74.30831665 93.21723999 74.32366455 92.50869873 74.33947754 91.77868652 C74.34181328 87.33533733 73.82766984 84.47747977 71 81 C66.2937514 77.69067459 60.19428282 78.63129706 54.6875 78.625 C53.01397461 78.58826172 53.01397461 78.58826172 51.30664062 78.55078125 C44.67655698 78.52720063 40.28745322 78.84296781 35 83 Z " fill="#000000" transform="translate(31,42)"/>
<path d="M0 0 C6.15680203 5.66064949 8.71320329 11.47531535 9.1953125 19.7734375 C8.81356003 28.56901446 4.60885147 35.00338517 -0.94921875 41.53125 C-4.16478055 45.46442439 -7.00578148 49.64440577 -9.82861328 53.86621094 C-10.89378027 55.40892565 -12.06111323 56.88004844 -13.2421875 58.3359375 C-14.2321875 58.3359375 -15.2221875 58.3359375 -16.2421875 58.3359375 C-17.57324219 56.93408203 -17.57324219 56.93408203 -18.9140625 54.96875 C-19.65861694 53.89463867 -19.65861694 53.89463867 -20.41821289 52.79882812 C-20.93762451 52.02732422 -21.45703613 51.25582031 -21.9921875 50.4609375 C-23.06884943 48.89051461 -24.14567157 47.32020156 -25.22265625 45.75 C-25.74134277 44.98719727 -26.2600293 44.22439453 -26.79443359 43.43847656 C-28.57079456 40.85870916 -30.43960376 38.35200336 -32.3046875 35.8359375 C-37.27345094 28.63183794 -38.88564955 22.573032 -37.75390625 13.84765625 C-36.57688218 8.07035491 -33.47243945 2.58503815 -28.5703125 -0.828125 C-19.46841372 -6.23480846 -8.70469693 -6.4602803 0 0 Z M-22.4921875 12.0234375 C-24.87206341 15.16827353 -25.17344058 17.41736291 -25.2421875 21.3359375 C-23.77258783 24.56905678 -21.96383704 27.06150737 -19.2421875 29.3359375 C-16.17385839 30.02544966 -13.3276305 29.90430858 -10.2421875 29.3359375 C-6.53999242 26.79067838 -5.474002 25.14728825 -4.2421875 20.8359375 C-4.2421875 16.1336559 -5.81117382 14.15722763 -8.6171875 10.5859375 C-13.52091289 6.81384105 -17.9791698 8.63867423 -22.4921875 12.0234375 Z " fill="#000000" transform="translate(161.2421875,67.6640625)"/>
</svg>
