<svg width="36" height="36" viewBox="0 0 36 36" fill="none" xmlns="http://www.w3.org/2000/svg">
<g clip-path="url(#clip0_84_16914)">
<path d="M32.8411 14.947L18.8005 0.904326C17.9724 0.078293 16.6329 0.0880664 15.8156 0.903271C14.9937 1.72727 14.9937 3.06517 15.8156 3.88811L29.8583 17.9298C30.6809 18.7524 32.0183 18.7524 32.8411 17.9298C33.666 17.1049 33.666 15.7717 32.8411 14.947Z" fill="#E92827"/>
<path d="M14.7741 5.82935L14.6685 6.35908C13.9241 10.0827 12.1149 13.6202 9.66797 16.4873L17.3072 24.1266C20.174 21.6801 23.6628 19.8224 27.3865 19.0771L27.9173 18.9714L14.7741 5.82935Z" fill="#E92827"/>
<path d="M8.26722 18.0696L3.04629 23.2894C1.81266 24.5231 1.80752 26.5259 3.04629 27.7646L6.0291 30.7474C7.26273 31.9811 9.26552 31.9861 10.5043 30.7474L15.7247 25.527L8.26722 18.0696ZM9.01295 26.2733C8.60099 26.6853 7.93351 26.6853 7.52155 26.2733C7.10959 25.8613 7.10959 25.1939 7.52155 24.7819L9.01295 23.2905C9.42491 22.8785 10.0924 22.8785 10.5044 23.2905C10.9163 23.7025 10.9163 24.3699 10.5044 24.7819L9.01295 26.2733Z" fill="#E92827"/>
<path d="M20.1276 31.3087L21.5623 29.874C22.8011 28.6354 22.7971 26.6326 21.5624 25.3999L20.4967 24.3335C19.9077 24.7291 19.3452 25.159 18.7983 25.6178L20.071 26.8923C20.4819 27.3012 20.4848 27.9666 20.071 28.3827L18.6125 29.8411L16.4693 27.7645L13.4863 30.7475L18.2716 35.3844C19.0882 36.2031 20.429 36.2078 21.2533 35.3833C22.0763 34.5604 22.0763 33.2225 21.2533 32.3995L20.1276 31.3087Z" fill="#E92827"/>
<path d="M24.3887 0C23.8057 0 23.334 0.471727 23.334 1.05469V3.16407C23.334 3.74703 23.8057 4.21876 24.3887 4.21876C24.9716 4.21876 25.4434 3.74703 25.4434 3.16407V1.05469C25.4434 0.471727 24.9716 0 24.3887 0Z" fill="#E92827"/>
<path d="M32.8262 8.4375H30.7168C30.1338 8.4375 29.6621 8.90923 29.6621 9.49219C29.6621 10.0752 30.1338 10.5469 30.7168 10.5469H32.8262C33.4091 10.5469 33.8809 10.0752 33.8809 9.49219C33.8809 8.90923 33.4091 8.4375 32.8262 8.4375Z" fill="#E92827"/>
<path d="M31.4625 2.41835C31.0505 2.00638 30.383 2.00638 29.9711 2.41835L27.8617 4.52772C27.4497 4.93969 27.4497 5.60716 27.8617 6.01913C28.2737 6.43109 28.9411 6.43116 29.3531 6.01913L31.4625 3.90975C31.8744 3.49779 31.8744 2.83031 31.4625 2.41835Z" fill="#E92827"/>
</g>
<defs>
<clipPath id="clip0_84_16914">
<rect width="36" height="36" fill="white"/>
</clipPath>
</defs>
</svg>
