<svg width="21" height="20" viewBox="0 0 21 20" fill="none" xmlns="http://www.w3.org/2000/svg">
<path d="M12.4616 8.11034C12.4177 8.11034 12.3734 8.10287 12.3307 8.08776L10.3721 7.39119L8.41329 8.08776C8.29199 8.13094 8.1571 8.11141 8.05288 8.03573C7.94866 7.95989 7.88839 7.83767 7.8919 7.70888L7.94912 5.63078L6.68142 3.98313C6.60283 3.8812 6.57964 3.74677 6.61947 3.62425C6.65929 3.50172 6.75695 3.40681 6.88054 3.37034L8.87457 2.78257L10.0498 1.06763C10.1227 0.961426 10.2433 0.897949 10.3721 0.897949C10.5009 0.897949 10.6214 0.961426 10.6943 1.06763L11.8696 2.78257L13.8636 3.37034C13.9872 3.40681 14.0849 3.50172 14.1247 3.62425C14.1645 3.74677 14.1413 3.88105 14.0627 3.98313L12.795 5.63094L12.8522 7.70888C12.8558 7.83767 12.7955 7.96004 12.6913 8.03573C12.6237 8.08486 12.5429 8.11034 12.4616 8.11034ZM7.64822 3.95857L8.65301 5.26457C8.70779 5.33568 8.73632 5.42357 8.73388 5.51344L8.68856 7.16063L10.2412 6.60857C10.3258 6.57851 10.4183 6.57851 10.503 6.60857L12.0554 7.16063L12.0103 5.51344C12.0077 5.42357 12.0364 5.33568 12.0911 5.26457L13.0959 3.95857L11.5154 3.49256C11.4292 3.46723 11.3544 3.41291 11.3036 3.33875L10.3721 1.9795L9.44052 3.33875C9.38971 3.41291 9.31494 3.46723 9.22873 3.49256L7.64822 3.95857Z" fill="white"/>
<path d="M16.0656 4.51396C15.9842 4.51396 15.9035 4.48848 15.8359 4.43934C15.7317 4.36366 15.6714 4.24144 15.6751 4.11265L15.6991 3.2371L15.165 2.54282C15.0864 2.44074 15.0634 2.30646 15.103 2.18393C15.1429 2.06141 15.2405 1.9665 15.3641 1.93003L16.2043 1.68238L16.6994 0.95987C16.7724 0.853516 16.8929 0.790039 17.0217 0.790039C17.1505 0.790039 17.271 0.853516 17.344 0.95987L17.8391 1.68238L18.6791 1.93003C18.8027 1.9665 18.9004 2.06141 18.9403 2.18393C18.98 2.30646 18.957 2.44074 18.8784 2.54282L18.3442 3.2371L18.3683 4.11265C18.3719 4.24144 18.3117 4.36366 18.2075 4.43934C18.1032 4.51503 17.9683 4.53441 17.847 4.49138L17.0217 4.19795L16.1965 4.49138C16.1538 4.50648 16.1095 4.51396 16.0656 4.51396ZM17.0217 3.39274C17.0659 3.39274 17.1102 3.40022 17.1525 3.41532L17.5716 3.56425L17.5594 3.11961C17.5568 3.02973 17.5855 2.94184 17.6403 2.87073L17.9114 2.5181L17.4848 2.39237C17.3987 2.36704 17.3238 2.31272 17.273 2.23856L17.0215 1.87159L16.7701 2.23856C16.7193 2.31272 16.6445 2.36689 16.5583 2.39237L16.1316 2.5181L16.4029 2.87073C16.4576 2.94184 16.4863 3.02973 16.4837 3.11961L16.4715 3.56425L16.8906 3.41532C16.9332 3.40022 16.9773 3.39274 17.0217 3.39274Z" fill="white"/>
<path d="M4.67698 4.51396C4.63303 4.51396 4.58878 4.50648 4.54606 4.49138L3.72086 4.19795L2.89566 4.49138C2.7742 4.53456 2.63946 4.51503 2.53509 4.43934C2.43088 4.36366 2.37076 4.24144 2.37427 4.11265L2.39837 3.2371L1.86416 2.54282C1.78558 2.44074 1.76254 2.30646 1.80236 2.18393C1.84219 2.06125 1.93985 1.96634 2.06344 1.92987L2.90344 1.68222L3.39859 0.959717C3.47153 0.853516 3.59207 0.790039 3.72086 0.790039C3.84964 0.790039 3.97019 0.853516 4.04313 0.959717L4.53827 1.68222L5.37827 1.93003C5.50187 1.96634 5.59953 2.06141 5.63935 2.18393C5.67918 2.30646 5.65598 2.44074 5.57755 2.54282L5.04334 3.23695L5.06745 4.1125C5.07096 4.24128 5.01084 4.36366 4.90662 4.43934C4.83903 4.48848 4.75846 4.51396 4.67698 4.51396ZM3.72086 3.39274C3.76511 3.39274 3.80951 3.40022 3.85178 3.41532L4.27094 3.56425L4.25873 3.11961C4.25614 3.02973 4.28483 2.94184 4.33945 2.87073L4.61075 2.5181L4.18412 2.39237C4.0979 2.36704 4.02314 2.31272 3.97232 2.23856L3.72086 1.87159L3.46939 2.23856C3.41858 2.31272 3.34381 2.36689 3.2576 2.39237L2.83096 2.5181L3.10227 2.87073C3.15704 2.94184 3.18558 3.02973 3.18314 3.11961L3.17093 3.56425L3.59009 3.41532C3.63236 3.40022 3.67661 3.39274 3.72086 3.39274Z" fill="white"/>
<path d="M10.3716 16.9426C10.3463 16.9426 10.3205 16.9399 10.2955 16.9349C10.2705 16.9301 10.2459 16.9224 10.2224 16.9126C10.1986 16.9028 10.1759 16.8906 10.1548 16.8766C10.1333 16.8625 10.1135 16.8462 10.0955 16.8282C10.0775 16.8102 10.0611 16.7904 10.0471 16.7688C10.0329 16.7478 10.0208 16.7251 10.0111 16.7012C10.0013 16.6778 9.99353 16.6532 9.9888 16.6282C9.98376 16.6031 9.98102 16.5773 9.98102 16.552C9.98102 16.5267 9.98376 16.5009 9.9888 16.4759C9.99353 16.4509 10.0013 16.4263 10.0111 16.4025C10.0208 16.379 10.0329 16.3562 10.0471 16.3352C10.0611 16.3137 10.0775 16.2938 10.0955 16.2758C10.1135 16.2578 10.1333 16.2415 10.1548 16.2275C10.1759 16.2133 10.1986 16.2012 10.2224 16.1915C10.2459 16.1817 10.2705 16.1742 10.2955 16.1692C10.3459 16.1591 10.3974 16.1591 10.4478 16.1692C10.4728 16.1742 10.4974 16.1817 10.5209 16.1915C10.5447 16.2012 10.5673 16.2133 10.5883 16.2275C10.6098 16.2415 10.6298 16.2578 10.6478 16.2758C10.6658 16.2938 10.6822 16.3137 10.6962 16.3352C10.7102 16.3562 10.7224 16.379 10.7322 16.4025C10.742 16.4263 10.7498 16.4509 10.7543 16.4759C10.7595 16.5009 10.7623 16.5267 10.7623 16.552C10.7623 16.5773 10.7595 16.6033 10.7543 16.6282C10.7493 16.6532 10.742 16.6778 10.7322 16.7012C10.7224 16.7251 10.7102 16.7478 10.6962 16.7688C10.6822 16.7904 10.6658 16.8102 10.6478 16.8282C10.6298 16.8462 10.6098 16.8625 10.5883 16.8766C10.5673 16.8906 10.5447 16.9028 10.5209 16.9126C10.4974 16.9224 10.4728 16.9301 10.4478 16.9349C10.4228 16.9399 10.397 16.9426 10.3716 16.9426Z" fill="white"/>
<path d="M10.3716 15.6535C10.1559 15.6535 9.98102 15.4786 9.98102 15.2629L9.98102 8.81738C9.98102 8.60178 10.1559 8.42676 10.3716 8.42676C10.5874 8.42676 10.7623 8.60178 10.7623 8.81738L10.7623 15.2629C10.7623 15.4785 10.5874 15.6535 10.3716 15.6535Z" fill="white"/>
<path d="M17.0024 13.1641C16.982 13.1641 16.9617 13.1625 16.9412 13.1592C16.814 13.139 16.7049 13.0576 16.6495 12.9411L15.9474 11.4642L14.4707 10.7622C14.3543 10.7069 14.2726 10.5978 14.2525 10.4706C14.2323 10.3433 14.2763 10.2142 14.3698 10.1257L15.5574 9.00175L15.7688 7.3802C15.7854 7.25248 15.864 7.14109 15.9787 7.08265C16.0936 7.02406 16.2297 7.02604 16.3429 7.08769L17.779 7.8697L19.3863 7.56971C19.513 7.54591 19.6431 7.58634 19.7342 7.67744C19.8253 7.76853 19.8656 7.89869 19.8421 8.02534L19.542 9.63271L20.3241 11.0687C20.3856 11.1819 20.3876 11.3182 20.329 11.4329C20.2706 11.5477 20.1592 11.6263 20.0315 11.6429L18.4101 11.8542L17.2859 13.0418C17.2116 13.1206 17.1088 13.1641 17.0024 13.1641ZM15.3208 10.3013L16.4084 10.8183C16.4894 10.8569 16.5549 10.9222 16.5935 11.0034L17.1105 12.0909L17.9381 11.2164C17.9999 11.1511 18.0823 11.1092 18.1714 11.0976L19.3654 10.9419L18.7894 9.88448C18.7465 9.80559 18.732 9.71434 18.7485 9.62599L18.9695 8.44221L17.7858 8.66331C17.6975 8.67964 17.6062 8.6653 17.5273 8.62227L16.4697 8.0464L16.3143 9.2404C16.3027 9.32951 16.2607 9.41191 16.1954 9.47356L15.3208 10.3013Z" fill="white"/>
<path d="M11.0611 19.6715C11.0475 19.6715 11.0341 19.6709 11.0204 19.6695C10.8058 19.6473 10.6499 19.4553 10.672 19.2408C10.9281 16.764 12.1205 14.8824 13.0759 13.7401C14.1075 12.5063 15.0832 11.8506 15.1241 11.8233C15.3037 11.7038 15.5461 11.7523 15.6658 11.9321C15.7852 12.1115 15.7366 12.3542 15.557 12.4736C15.5199 12.4983 14.6352 13.0931 13.6751 14.2412C12.7898 15.3 11.6847 17.0408 11.4491 19.3212C11.4284 19.522 11.2587 19.6715 11.0611 19.6715Z" fill="white"/>
<path d="M3.74093 13.1645C3.63457 13.1645 3.53173 13.121 3.45726 13.0424L2.3333 11.8548L0.711742 11.6435C0.584026 11.6269 0.472636 11.5483 0.414195 11.4334C0.355753 11.3186 0.357585 11.1824 0.41923 11.0693L1.20125 9.63329L0.901257 8.02577C0.877453 7.89912 0.917889 7.76896 1.00898 7.67787C1.10008 7.58677 1.23024 7.54634 1.35689 7.57014L2.96425 7.87028L4.40026 7.08811C4.51348 7.02647 4.64974 7.02464 4.76449 7.08308C4.87924 7.14152 4.95782 7.25291 4.97445 7.38063L5.18579 9.00218L6.37353 10.1261C6.46707 10.2148 6.51086 10.3437 6.49072 10.471C6.47058 10.5983 6.38895 10.7074 6.27267 10.7627L4.79577 11.4648L4.09386 12.9416C4.03847 13.0578 3.92937 13.1395 3.80211 13.1596C3.78167 13.163 3.76122 13.1645 3.74093 13.1645ZM1.37794 10.9423L2.57195 11.098C2.66106 11.1096 2.74346 11.1515 2.8051 11.2169L3.63289 12.0913L4.14986 11.0038C4.18847 10.9227 4.25378 10.8574 4.33495 10.8187L5.42245 10.3018L4.54797 9.47399C4.48266 9.41234 4.4407 9.32994 4.4291 9.24083L4.27346 8.04683L3.21602 8.62285C3.13713 8.66573 3.04573 8.68022 2.95754 8.66374L1.77376 8.44279L1.99471 9.62642C2.01134 9.71477 1.99684 9.80617 1.95381 9.88491L1.37794 10.9423Z" fill="white"/>
<path d="M9.68139 19.6716C9.48363 19.6716 9.31411 19.5221 9.29336 19.3211C9.05761 17.0407 7.95271 15.3001 7.0674 14.2413C6.10777 13.0938 5.2226 12.4984 5.18537 12.4737C5.00578 12.3541 4.9571 12.1115 5.07673 11.932C5.19636 11.7524 5.43882 11.7037 5.61842 11.8234C5.65946 11.8507 6.63557 12.5071 7.66661 13.7402C8.62197 14.8825 9.81445 16.764 10.0705 19.2408C10.0926 19.4554 9.93667 19.6473 9.72198 19.6695C9.7084 19.671 9.69482 19.6716 9.68139 19.6716Z" fill="white"/>
<path d="M13.4397 19.5988C13.3852 19.5988 13.3298 19.5873 13.277 19.5632C13.0809 19.4732 12.9949 19.2414 13.0849 19.0452C13.6812 17.745 14.6752 16.9427 15.4039 16.4985C16.1762 16.0277 16.8036 15.853 16.8726 15.8346C17.0812 15.779 17.2951 15.9029 17.3507 16.1114C17.4062 16.3198 17.2823 16.5339 17.0739 16.5894C17.0682 16.5909 16.5004 16.7451 15.8104 17.1656C15.1748 17.553 14.309 18.2502 13.7949 19.3709C13.7293 19.5142 13.5877 19.5988 13.4397 19.5988Z" fill="white"/>
<path d="M7.6731 19.5988C7.52509 19.5988 7.38349 19.5142 7.31773 19.3709C6.80381 18.2502 5.93802 17.553 5.30219 17.1656C4.61233 16.7451 4.0444 16.5909 4.03875 16.5894C3.83032 16.5337 3.70642 16.3198 3.76211 16.1114C3.81765 15.9029 4.03173 15.779 4.24017 15.8346C4.30929 15.853 4.93689 16.028 5.70883 16.4985C6.4376 16.9427 7.43156 17.745 8.02787 19.0452C8.1179 19.2414 8.03184 19.4732 7.83561 19.5632C7.78281 19.5873 7.72758 19.5988 7.6731 19.5988Z" fill="white"/>
<path d="M18.5694 14.6372C18.3538 14.6372 18.1788 14.4623 18.1788 14.2466L18.1788 13.9214C18.1788 13.7056 18.3538 13.5308 18.5694 13.5308C18.7852 13.5308 18.96 13.7056 18.96 13.9214L18.96 14.2466C18.96 14.4623 18.7852 14.6372 18.5694 14.6372Z" fill="white"/>
<path d="M18.5694 16.401C18.3538 16.401 18.1788 16.226 18.1788 16.0104L18.1788 15.6851C18.1788 15.4695 18.3538 15.2944 18.5694 15.2944C18.7852 15.2944 18.96 15.4695 18.96 15.6851L18.96 16.0104C18.96 16.226 18.7852 16.401 18.5694 16.401Z" fill="white"/>
<path d="M19.6137 15.3564L19.2885 15.3564C19.0729 15.3564 18.8979 15.1814 18.8979 14.9658C18.8979 14.7501 19.0729 14.5752 19.2885 14.5752L19.6137 14.5752C19.8294 14.5752 20.0043 14.7501 20.0043 14.9658C20.0043 15.1814 19.8294 15.3564 19.6137 15.3564Z" fill="white"/>
<path d="M17.8488 15.3564L17.5236 15.3564C17.3079 15.3564 17.133 15.1814 17.133 14.9658C17.133 14.7501 17.3079 14.5752 17.5236 14.5752L17.8488 14.5752C18.0645 14.5752 18.2394 14.7501 18.2394 14.9658C18.2394 15.1814 18.0645 15.3564 17.8488 15.3564Z" fill="white"/>
<path d="M2.17383 14.6372C1.95807 14.6372 1.7832 14.4623 1.7832 14.2466L1.7832 13.9214C1.7832 13.7056 1.95807 13.5308 2.17383 13.5308C2.38959 13.5308 2.56446 13.7056 2.56446 13.9214L2.56446 14.2466C2.56446 14.4623 2.38959 14.6372 2.17383 14.6372Z" fill="white"/>
<path d="M2.17383 16.401C1.95807 16.401 1.7832 16.226 1.7832 16.0104L1.7832 15.6851C1.7832 15.4695 1.95807 15.2944 2.17383 15.2944C2.38959 15.2944 2.56446 15.4695 2.56446 15.6851L2.56446 16.0104C2.56446 16.226 2.38959 16.401 2.17383 16.401Z" fill="white"/>
<path d="M3.21811 15.3564L2.89295 15.3564C2.67719 15.3564 2.50232 15.1814 2.50232 14.9658C2.50232 14.7501 2.67719 14.5752 2.89295 14.5752L3.21811 14.5752C3.43387 14.5752 3.60874 14.7501 3.60874 14.9658C3.60874 15.1814 3.43387 15.3564 3.21811 15.3564Z" fill="white"/>
<path d="M1.45514 15.3564L1.12982 15.3564C0.914216 15.3564 0.739197 15.1814 0.739197 14.9658C0.739197 14.7501 0.914216 14.5752 1.12982 14.5752L1.45514 14.5752C1.6709 14.5752 1.84577 14.7501 1.84577 14.9658C1.84577 15.1814 1.6709 15.3564 1.45514 15.3564Z" fill="white"/>
</svg>
