<svg width="36" height="36" viewBox="0 0 36 36" fill="none" xmlns="http://www.w3.org/2000/svg">
<path d="M36 8.22736V19.1249C36 19.1249 33.6677 19.5844 33.1872 19.6449C32.7082 19.7052 31.203 20.1912 30.1122 19.1427C28.4299 17.5304 22.4529 11.5863 22.4529 11.5863C22.4529 11.5863 21.4224 10.5751 19.7677 11.4491C18.2487 12.2496 15.9971 13.4229 15.0566 13.8798C13.2787 14.8261 11.8051 13.3247 11.8051 12.1811C11.8051 11.294 12.3587 10.6919 13.1499 10.2491C15.2945 8.94907 19.8144 6.41196 21.697 5.41169C22.8413 4.80308 23.6658 4.75092 25.2369 6.07442C27.1717 7.70169 28.8937 9.18499 28.8937 9.18499C28.8937 9.18499 29.4553 9.65371 30.351 9.46493C32.5504 8.99991 36 8.22736 36 8.22736ZM12.21 26.6922C12.4994 25.9486 12.4027 25.1168 11.8477 24.5462C11.3491 24.0358 10.6211 23.9013 9.92687 24.0603C10.121 23.3718 10.0138 22.639 9.51248 22.1218C9.01231 21.6127 8.28566 21.4755 7.59155 21.636C7.78426 20.9485 7.67733 20.2158 7.17571 19.7001C6.39022 18.8945 5.03157 18.929 4.13902 19.7798C3.25119 20.6318 2.68245 22.1753 3.47483 23.0838C4.26591 23.9878 5.17488 23.4378 5.86783 23.2799C5.67505 23.9674 5.09745 24.6068 5.80877 25.5067C6.51944 26.4071 7.50875 25.8608 8.20242 25.7044C8.00899 26.3893 7.45659 27.093 8.14061 27.9273C8.83079 28.7642 9.96123 28.3183 10.7079 28.0864C10.4197 28.8272 9.80295 29.6258 10.5953 30.5207C11.3865 31.422 13.2148 31.005 14.1079 30.1529C14.9985 29.3009 15.084 27.9507 14.3006 27.1425C13.7598 26.588 12.9535 26.459 12.21 26.6922ZM28.5054 21.0227C22.0495 14.5667 25.0861 17.6046 21.6118 14.1229C21.6118 14.1229 20.5677 13.0834 19.1915 13.6872C18.2255 14.1105 16.9817 14.6875 16.0459 15.1279C15.0175 15.6672 14.2774 15.8341 13.9299 15.8318C11.9419 15.8188 10.3289 14.2208 10.3289 12.2348C10.3289 10.9463 11.0129 9.82462 12.0331 9.18789C13.4677 8.19518 16.7697 6.43884 16.7697 6.43884C16.7697 6.43884 15.7638 5.16415 13.5601 5.16415C11.3571 5.16415 6.75449 8.17942 6.75449 8.17942C6.75449 8.17942 5.44879 9.01575 3.58749 8.26244L0 7.01317V19.4831C0 19.4831 1.02439 19.7796 1.94483 20.1556C2.15271 19.5627 2.48815 19.0153 2.95345 18.5631C4.48048 17.1086 7.01155 17.0935 8.40086 18.5241C8.81939 18.959 9.11146 19.4777 9.26051 20.0512C9.82031 20.224 10.3274 20.5301 10.7349 20.9499C11.1546 21.3819 11.4456 21.9036 11.5959 22.4741C12.1551 22.6471 12.6614 22.9543 13.0703 23.3744C13.5307 23.8493 13.8374 24.4228 13.9807 25.0442C14.5652 25.2144 15.0934 25.5312 15.5188 25.9662C16.3538 26.8238 16.6501 27.9873 16.4706 29.1097C16.472 29.1097 16.4748 29.1097 16.4761 29.1122C16.4898 29.1301 16.9934 29.6916 17.3075 30.0083C17.923 30.6244 18.9281 30.6244 19.5455 30.0083C20.1588 29.3924 20.1615 28.3893 19.5455 27.7703C19.5234 27.7483 17.3248 25.4486 17.5018 25.2703C17.6774 25.0932 20.4785 28.0078 20.5306 28.0611C21.1454 28.676 22.1498 28.676 22.7672 28.0611C23.3833 27.4452 23.382 26.4421 22.7672 25.8246C22.737 25.7958 22.6109 25.675 22.5642 25.6269C22.5642 25.6269 19.787 23.153 19.9984 22.9416C20.2123 22.7289 23.662 25.9481 23.6676 25.9481C24.2877 26.5066 25.2428 26.5024 25.8394 25.9056C26.4198 25.3252 26.4322 24.4072 25.9177 23.7885C25.9068 23.7556 23.2887 21.0196 23.493 20.8137C23.7003 20.6052 26.2909 23.2727 26.2963 23.2782C26.9097 23.8929 27.9155 23.8929 28.5329 23.2782C29.1477 22.6634 29.1477 21.6591 28.5329 21.0388C28.5246 21.0336 28.5136 21.0281 28.5054 21.0227Z" fill="#E92827"/>
</svg>
