<svg width="36" height="36" viewBox="0 0 36 36" fill="none" xmlns="http://www.w3.org/2000/svg">
<path fill-rule="evenodd" clip-rule="evenodd" d="M18.2388 22.5365V25.2731C18.2388 25.3506 18.2772 25.417 18.3442 25.4558L20.486 26.6923C20.6271 26.7738 20.8024 26.6726 20.8024 26.5097V22.8554L29.6426 17.7515L32.4294 19.3604C32.653 19.4895 32.7809 19.7111 32.7809 19.9693V29.3652C32.7809 29.6234 32.653 29.845 32.4294 29.9741L24.2922 34.672C24.0687 34.8011 23.8127 34.8011 23.5891 34.672L15.452 29.9741C15.2284 29.845 15.1004 29.6234 15.1004 29.3652V20.8625L17.6112 22.312C17.8099 22.4267 18.0223 22.5015 18.2388 22.5365ZM18.8769 1.32802C18.6533 1.19893 18.3973 1.19893 18.1738 1.32802L10.0366 6.02602C9.81301 6.15512 9.68504 6.37681 9.68504 6.63493V16.0309C9.68504 16.289 9.81301 16.5107 10.0366 16.6398L18.1737 21.3378C18.3973 21.4669 18.6533 21.4669 18.8769 21.3378L27.014 16.6398C27.2376 16.5107 27.3655 16.289 27.3655 16.0309V6.63493C27.3655 6.37674 27.2376 6.15512 27.014 6.02602L24.2272 4.41713L15.387 9.52104V13.1753C15.387 13.3382 15.2117 13.4394 15.0706 13.358L12.9288 12.1214C12.8618 12.0827 12.8234 12.0162 12.8234 11.9387V8.0409L21.6635 2.93698L18.8769 1.32802ZM8.56004 13.2434L6.35701 14.5153V18.4132C6.35701 18.4907 6.3954 18.5571 6.46248 18.5959L8.60427 19.8324C8.74531 19.9139 8.92067 19.8127 8.92067 19.6498V17.1249C9.06657 17.3197 9.25318 17.4865 9.47403 17.614L13.9754 20.2129V26.9087L12.4104 27.8122C12.1868 27.9413 11.9309 27.9413 11.7073 27.8122L3.57031 23.1143C3.34672 22.9852 3.21875 22.7636 3.21875 22.5054V13.1094C3.21875 12.8512 3.34672 12.6296 3.57031 12.5005L8.56004 9.61969V13.2434Z" fill="#E92827"/>
</svg>
