<svg width="39" height="25" viewBox="0 0 39 25" fill="none" xmlns="http://www.w3.org/2000/svg">
<g clip-path="url(#clip0_124_6318)">
<path opacity="0.2" d="M35.5838 0H3.32772C1.61411 0 0.303711 1.3104 0.303711 3.02401V21.1681C0.303711 22.8817 1.71492 24.1921 3.32772 24.1921H35.5838C37.2974 24.1921 38.6078 22.8817 38.6078 21.1681V3.02401C38.6078 1.3104 37.1966 0 35.5838 0Z" fill="black"/>
<path d="M35.5827 1.00781C36.6915 1.00781 37.5987 1.91502 37.5987 3.02382V21.1679C37.5987 22.2767 36.6915 23.1839 35.5827 23.1839H3.32655C2.21775 23.1839 1.31055 22.2767 1.31055 21.1679V3.02382C1.31055 1.91502 2.21775 1.00781 3.32655 1.00781H35.5827Z" fill="white"/>
<path d="M15.4232 19.1511C19.3201 19.1511 22.4792 15.992 22.4792 12.0951C22.4792 8.19815 19.3201 5.03906 15.4232 5.03906C11.5263 5.03906 8.36719 8.19815 8.36719 12.0951C8.36719 15.992 11.5263 19.1511 15.4232 19.1511Z" fill="#EB001B"/>
<path d="M23.4857 19.1511C27.3826 19.1511 30.5417 15.992 30.5417 12.0951C30.5417 8.19815 27.3826 5.03906 23.4857 5.03906C19.5888 5.03906 16.4297 8.19815 16.4297 12.0951C16.4297 15.992 19.5888 19.1511 23.4857 19.1511Z" fill="#F79E1B"/>
<path d="M22.4777 12.0952C22.4777 9.67602 21.2681 7.55921 19.4537 6.34961C17.6393 7.66001 16.4297 9.77682 16.4297 12.0952C16.4297 14.4136 17.6393 16.6312 19.4537 17.8408C21.2681 16.6312 22.4777 14.5144 22.4777 12.0952Z" fill="#FF5F00"/>
</g>
<defs>
<clipPath id="clip0_124_6318">
<rect width="38.3041" height="24.1921" fill="white" transform="translate(0.303711)"/>
</clipPath>
</defs>
</svg>
