<svg width="32" height="32" viewBox="0 0 32 32" fill="none" xmlns="http://www.w3.org/2000/svg">
<g clip-path="url(#clip0_637_13136)">
<path d="M32 13.3308V12.3233C32 12.2433 31.9806 12.1646 31.9444 12.0933L29.3206 7.00895C28.9906 6.3677 28.2375 5.96957 27.3544 5.96957H26.1344C26.2119 5.78082 26.255 5.57457 26.255 5.35832V1.59457C26.255 0.705195 25.5325 -0.0185547 24.6444 -0.0185547H7.35437C6.46625 -0.0185547 5.74375 0.705195 5.74375 1.59457V5.35832C5.74375 5.57457 5.78688 5.78082 5.86438 5.96957H4.64375C3.76063 5.96957 3.0075 6.3677 2.67812 7.00832L0.055625 12.0933C0.01875 12.1646 0 12.2433 0 12.3233V13.3308C0 15.1196 1.30813 16.6077 3.01688 16.8877V28.2689H1.87125C0.839375 28.2696 0 29.1108 0 30.1452V31.5177C0 31.7946 0.22375 32.0189 0.5 32.0189H31.5C31.7763 32.0189 32 31.7946 32 31.5177V30.1452C32 29.1108 31.16 28.2696 30.1269 28.2696H28.9813V16.8883C30.6906 16.6089 32 15.1202 32 13.3308Z" fill="#FDCF66"/>
<path d="M13.0644 28.2696V18.5721C13.0644 18.2952 12.8407 18.0708 12.5644 18.0708H6.47192C6.19567 18.0708 5.97192 18.2952 5.97192 18.5721V28.2696H13.0644Z" fill="#B5CDFF"/>
<path d="M12.565 18.0708H9.5188V28.2696H13.065V18.5721C13.0644 18.2952 12.8407 18.0708 12.565 18.0708Z" fill="#A9C5F7"/>
<path d="M24.6437 -0.0185547H7.35428C6.46615 -0.0185547 5.74365 0.705195 5.74365 1.59457V5.35832C5.74365 6.2477 6.46615 6.97145 7.35428 6.97145H24.6437C25.5318 6.97145 26.2543 6.2477 26.2543 5.35832V1.59457C26.2543 0.705195 25.5318 -0.0185547 24.6437 -0.0185547Z" fill="#E5E5E8"/>
<path d="M24.6437 -0.0185547H16V6.97145H24.6437C25.5319 6.97145 26.2544 6.2477 26.2544 5.35832V1.59457C26.2544 0.705195 25.5319 -0.0185547 24.6437 -0.0185547Z" fill="#DCDCE2"/>
<path d="M31.9444 12.0935L29.3206 7.0091C28.9906 6.36785 28.2375 5.96973 27.3544 5.96973H26.1344C25.8931 6.55723 25.3162 6.9716 24.6437 6.9716H7.35437C6.68187 6.9716 6.105 6.5566 5.86375 5.96973H4.64375C3.76063 5.96973 3.0075 6.36785 2.67812 7.00848L0.055625 12.0935C0.01875 12.1647 0 12.2435 0 12.3235V13.331C0 15.3185 1.61437 16.936 3.6 16.936C4.9175 16.936 6.07188 16.2229 6.69875 15.1622C7.32625 16.2229 8.48125 16.936 9.79875 16.936C11.1169 16.936 12.2719 16.2229 12.8994 15.1622C13.5269 16.2235 14.6819 16.936 16 16.936C17.3175 16.936 18.4719 16.2229 19.0987 15.1622C19.7262 16.2229 20.8813 16.936 22.1987 16.936C23.5169 16.936 24.6719 16.2229 25.2994 15.1622C25.9269 16.2235 27.0819 16.936 28.4 16.936C30.385 16.936 32 15.3185 32 13.331V12.3235C32 12.2435 31.9806 12.1647 31.9444 12.0935Z" fill="#FC6067"/>
<path d="M25.5438 18.0708H15.5C15.2237 18.0708 15 18.2952 15 18.5721V26.0196C15 26.2964 15.2237 26.5208 15.5 26.5208H25.5438C25.82 26.5208 26.0438 26.2964 26.0438 26.0196V18.5721C26.0438 18.2952 25.82 18.0708 25.5438 18.0708Z" fill="#B5CDFF"/>
<path d="M28.4 16.9359C27.0819 16.9359 25.9269 16.2227 25.2994 15.1621C24.6719 16.2234 23.5169 16.9359 22.1987 16.9359C20.8806 16.9359 19.7256 16.2227 19.0987 15.1621C18.4719 16.2227 17.3175 16.9359 16 16.9359V18.0709H25.5438C25.82 18.0709 26.0438 18.2952 26.0438 18.5721V26.0196C26.0438 26.2965 25.82 26.5209 25.5438 26.5209H16V28.2696H28.9813V16.8884C28.7919 16.919 28.5975 16.9359 28.4 16.9359Z" fill="#F5B354"/>
<path d="M10.8906 25.203C10.6144 25.203 10.3906 24.9787 10.3906 24.7018V24.0418C10.3906 23.7649 10.6144 23.5405 10.8906 23.5405C11.1669 23.5405 11.3906 23.7649 11.3906 24.0418V24.7018C11.3906 24.9787 11.1669 25.203 10.8906 25.203Z" fill="#334A5C"/>
<path d="M30.1269 28.2695H1.87125C0.839375 28.2695 0 29.1108 0 30.1452V31.5177C0 31.7945 0.22375 32.0189 0.5 32.0189H31.5C31.7763 32.0189 32 31.7945 32 31.5177V30.1452C32 29.1108 31.16 28.2695 30.1269 28.2695Z" fill="#334A5C"/>
<path d="M24.6437 -0.0185547H7.35428C6.46615 -0.0185547 5.74365 0.705195 5.74365 1.59457V5.35832C5.74365 6.2477 6.46615 6.97145 7.35428 6.97145H24.6437C25.5318 6.97145 26.2543 6.2477 26.2543 5.35832V1.59457C26.2543 0.705195 25.5318 -0.0185547 24.6437 -0.0185547ZM25.2549 5.35832C25.2549 5.6952 24.9812 5.96957 24.6443 5.96957H7.35428C7.0174 5.96957 6.74303 5.6952 6.74303 5.35832V1.59457C6.74303 1.2577 7.01678 0.98332 7.35428 0.98332H24.6437C24.9805 0.98332 25.2543 1.2577 25.2543 1.59457V5.35832H25.2549Z" fill="#334A5C"/>
<path d="M22.1175 1.33252H20.95C20.6737 1.33252 20.45 1.55689 20.45 1.83377V5.11877C20.45 5.39564 20.6737 5.62002 20.95 5.62002C21.2262 5.62002 21.45 5.39564 21.45 5.11877V4.30002H22.1175C22.9343 4.30002 23.5987 3.63439 23.5987 2.81627C23.5987 1.99814 22.9343 1.33252 22.1175 1.33252ZM22.1175 3.29814H21.45V2.33502H22.1175C22.3787 2.33502 22.5993 2.55564 22.5993 2.81627C22.5993 3.08189 22.3831 3.29814 22.1175 3.29814Z" fill="#2E4554"/>
<path d="M10.0692 3.00516C9.8142 2.91391 9.42795 2.77641 9.4042 2.65266C9.39795 2.62016 9.39545 2.58453 9.44045 2.53016C9.53045 2.42078 9.73295 2.33453 9.90045 2.33453C10.1154 2.33453 10.3173 2.44391 10.4404 2.62766C10.5948 2.85703 10.9054 2.91828 11.1342 2.76328C11.3629 2.60891 11.4236 2.29766 11.2698 2.06766C10.9604 1.60703 10.4486 1.33203 9.90045 1.33203C9.4317 1.33203 8.94857 1.55203 8.66857 1.89266C8.4442 2.16578 8.3567 2.50391 8.42295 2.84453C8.5567 3.52828 9.2092 3.76141 9.7342 3.94828C9.9892 4.03953 10.3742 4.17703 10.3986 4.29828C10.4048 4.33016 10.4073 4.36641 10.3629 4.42016C10.2723 4.53016 10.0698 4.61641 9.90107 4.61641C9.68545 4.61641 9.48482 4.50766 9.3642 4.32578C9.2117 4.09516 8.90107 4.03266 8.67107 4.18516C8.44107 4.33828 8.37857 4.64891 8.53107 4.87953C8.83732 5.34203 9.3492 5.61766 9.90045 5.61766C10.3698 5.61766 10.8542 5.39766 11.1342 5.05641C11.3586 4.78328 11.4461 4.44578 11.3792 4.10391C11.2442 3.42453 10.5923 3.19203 10.0692 3.00516Z" fill="#334A5C"/>
<path d="M15.0471 1.33252C14.7708 1.33252 14.5471 1.55689 14.5471 1.83377V2.97502H13.1177V1.83377C13.1177 1.55689 12.8939 1.33252 12.6177 1.33252C12.3414 1.33252 12.1177 1.55689 12.1177 1.83377V5.11877C12.1177 5.39564 12.3414 5.62002 12.6177 5.62002C12.8939 5.62002 13.1177 5.39564 13.1177 5.11877V3.97752H14.5471V5.11877C14.5471 5.39564 14.7708 5.62002 15.0471 5.62002C15.3233 5.62002 15.5471 5.39564 15.5471 5.11877V1.83377C15.5471 1.55689 15.3233 1.33252 15.0471 1.33252Z" fill="#334A5C"/>
<path d="M17.9718 1.33252C17.0262 1.33252 16.2568 2.10314 16.2568 3.05002V3.90127C16.2568 4.84877 17.0262 5.61877 17.9718 5.61877C18.9168 5.61877 19.6856 4.84814 19.6856 3.90127V3.05064C19.685 2.10314 18.9168 1.33252 17.9718 1.33252ZM18.6856 3.90189C18.6856 4.29627 18.3656 4.61752 17.9718 4.61752C17.5775 4.61752 17.2562 4.29627 17.2562 3.90189V3.05064C17.2562 2.65627 17.5775 2.33502 17.9718 2.33502C18.3656 2.33502 18.6856 2.65627 18.6856 3.05064V3.90189Z" fill="#2E4554"/>
<path d="M0.090625 12.0254L0.055625 12.0935C0.01875 12.1648 0 12.2435 0 12.3235V13.331C0 15.3185 1.61437 16.936 3.6 16.936C4.9175 16.936 6.07188 16.2229 6.69875 15.1623V12.0254H0.090625Z" fill="#EA5762"/>
<path d="M6.69873 12.0254V15.1623C7.32623 16.2229 8.48123 16.936 9.79873 16.936C11.1169 16.936 12.2719 16.2229 12.8994 15.1623V12.0254H6.69873Z" fill="#DCDCE2"/>
<path d="M12.8994 12.0254V15.1616C13.5269 16.2229 14.6819 16.9354 16 16.9354C17.3175 16.9354 18.4719 16.2223 19.0988 15.1616V12.0254H12.8994Z" fill="#EA5762"/>
<path d="M19.0986 15.1623C19.7261 16.2229 20.8811 16.936 22.1986 16.936C23.5168 16.936 24.6718 16.2229 25.2993 15.1623V12.0254H19.0986V15.1623Z" fill="#D2D2DB"/>
<path d="M25.2993 15.1621C25.9268 16.2234 27.0818 16.9359 28.3999 16.9359C30.3849 16.9359 31.9999 15.3184 31.9999 13.3309V12.3234C31.9999 12.2434 31.9806 12.1646 31.9443 12.0934L31.9093 12.0259H25.2993V15.1621Z" fill="#E55163"/>
<path d="M8.71234 6.97168L6.69922 12.0254H12.8998L13.6692 6.97168H8.71234Z" fill="#E5E5E8"/>
<path d="M29.3205 7.0091C28.9905 6.36785 28.2374 5.96973 27.3543 5.96973H26.1343C25.893 6.55723 25.3161 6.9716 24.6436 6.9716H23.2861L25.2993 12.0254H31.9093L29.3205 7.0091Z" fill="#EA5762"/>
<path d="M18.3301 6.97168L19.0995 12.0254H25.2995L23.2863 6.97168H18.3301Z" fill="#DCDCE2"/>
<path d="M30.1269 28.2695H16V32.0189H31.5C31.7762 32.0189 32 31.7945 32 31.5177V30.1452C32 29.1108 31.16 28.2695 30.1269 28.2695Z" fill="#2E4554"/>
<path d="M16 16.936C17.3175 16.936 18.4719 16.2229 19.0987 15.1623V12.0254H16V16.936Z" fill="#E55163"/>
<path d="M16 12.0254H19.0994L18.33 6.97168H16V12.0254Z" fill="#EA5762"/>
<path d="M24.6437 -0.0185547H16V0.98332H24.6437C24.9806 0.98332 25.2544 1.2577 25.2544 1.59457V5.35832C25.2544 5.6952 24.9806 5.96957 24.6437 5.96957H16V6.97145H24.6437C25.5319 6.97145 26.2544 6.2477 26.2544 5.35832V1.59457C26.2544 0.705195 25.5319 -0.0185547 24.6437 -0.0185547Z" fill="#2E4554"/>
<path d="M25.5438 18.0708H20.522V26.5202H25.5438C25.8201 26.5202 26.0438 26.2958 26.0438 26.0189V18.5721C26.0438 18.2952 25.8201 18.0708 25.5438 18.0708Z" fill="#A9C5F7"/>
</g>
<defs>
<clipPath id="clip0_637_13136">
<rect width="32" height="32" fill="white"/>
</clipPath>
</defs>
</svg>
