<svg width="33" height="33" viewBox="0 0 33 33" fill="none" xmlns="http://www.w3.org/2000/svg">
<path d="M3.16602 6.86011L3.16602 23.3601C3.16602 24.3266 3.94952 25.1101 4.91602 25.1101L20.4993 25.1101L20.4993 6.86011C20.4993 5.89361 19.7158 5.11011 18.7493 5.11011L4.91602 5.11011C3.94952 5.11011 3.16602 5.89361 3.16602 6.86011Z" stroke="#121219" stroke-width="1.5"/>
<path d="M20.5 9.23511L20.5 25.1101L28.8333 25.1101C29.3856 25.1101 29.8333 24.6624 29.8333 24.1101L29.8333 15.0703C29.8333 14.6882 29.7239 14.3141 29.5179 13.9922L26.1283 8.69605C25.9445 8.40885 25.627 8.23511 25.2861 8.23511L21.5 8.23511C20.9477 8.23511 20.5 8.68282 20.5 9.23511Z" stroke="#121219" stroke-width="1.5"/>
<path d="M29.8333 14.4434H20.5" stroke="#121219" stroke-width="1.5"/>
<path d="M27.1663 26.7768C27.1663 25.8563 26.4201 25.1101 25.4997 25.1101C24.5792 25.1101 23.833 25.8563 23.833 26.7768C23.833 27.6972 24.5792 28.4434 25.4997 28.4434C26.4201 28.4434 27.1663 27.6972 27.1663 26.7768Z" stroke="#121219" stroke-width="1.5"/>
<path d="M9.16634 26.7768C9.16634 25.8563 8.42015 25.1101 7.49967 25.1101C6.5792 25.1101 5.83301 25.8563 5.83301 26.7768C5.83301 27.6972 6.5792 28.4434 7.49967 28.4434C8.42015 28.4434 9.16634 27.6972 9.16634 26.7768Z" stroke="#121219" stroke-width="1.5"/>
</svg>
