<svg width="33" height="33" viewBox="0 0 33 33" fill="none" xmlns="http://www.w3.org/2000/svg">
<path d="M16.5004 9.26177L18.0844 7.67224C20.7185 5.02903 24.8024 4.94863 27.5261 7.48638V7.48638C30.5913 10.3423 30.7504 15.3697 27.8727 18.4397L24.6603 21.8669L17.7678 28.2549C17.0404 28.9291 15.9587 28.9293 15.2311 28.2553L12.6483 25.863" stroke="#121219" stroke-width="1.5" stroke-linecap="round"/>
<path d="M16.4993 9.26191L14.9158 7.67278C12.2818 5.02936 8.19785 4.94884 5.47411 7.48663V7.48663C2.40898 10.3425 2.24989 15.3697 5.12749 18.4397L8.34008 21.867L15.2314 28.255C15.9587 28.9292 17.0403 28.9295 17.7679 28.2557L20.3519 25.8631" stroke="#121219" stroke-width="1.5" stroke-linecap="round"/>
</svg>
