<svg width="33" height="33" viewBox="0 0 33 33" fill="none" xmlns="http://www.w3.org/2000/svg">
<path d="M10.5 10.1101L10.5 9.44344C10.5 6.12973 13.1863 3.44344 16.5 3.44344V3.44344C19.8137 3.44344 22.5 6.12973 22.5 9.44344L22.5 10.1101" stroke="#121219" stroke-width="1.5" stroke-linecap="round"/>
<path d="M28.5 26.1101V12.7768C28.5 11.304 27.3061 10.1101 25.8333 10.1101H7.16667C5.69391 10.1101 4.5 11.304 4.5 12.7768V26.1101C4.5 27.5829 5.69391 28.7768 7.16667 28.7768H25.8333C27.3061 28.7768 28.5 27.5829 28.5 26.1101Z" stroke="#121219" stroke-width="1.5"/>
<path d="M18.5 18.1101C18.5 17.0055 17.6046 16.1101 16.5 16.1101C15.3954 16.1101 14.5 17.0055 14.5 18.1101C14.5 19.2147 15.3954 20.1101 16.5 20.1101C17.6046 20.1101 18.5 19.2147 18.5 18.1101Z" stroke="#121219" stroke-width="1.5"/>
<path d="M16.5 20.7767L16.5 23.4434" stroke="#121219" stroke-width="1.5" stroke-linecap="round" stroke-linejoin="round"/>
</svg>
