<svg width="70" height="70" viewBox="0 0 70 70" fill="none" xmlns="http://www.w3.org/2000/svg">
<rect width="70" height="70" rx="35" fill="#FEE7F1"/>
<path d="M20 27.5L26.615 20.885C26.8941 20.6042 27.226 20.3815 27.5915 20.2296C27.9571 20.0777 28.3491 19.9997 28.745 20H41.255C41.6509 19.9997 42.0429 20.0777 42.4085 20.2296C42.774 20.3815 43.1059 20.6042 43.385 20.885L50 27.5" stroke="#E92827" stroke-width="3" stroke-linecap="round" stroke-linejoin="round"/>
<path d="M23 35V47C23 47.7956 23.3161 48.5587 23.8787 49.1213C24.4413 49.6839 25.2044 50 26 50H44C44.7956 50 45.5587 49.6839 46.1213 49.1213C46.6839 48.5587 47 47.7956 47 47V35" stroke="#E92827" stroke-width="3" stroke-linecap="round" stroke-linejoin="round"/>
<path d="M39.5 50V44C39.5 43.2044 39.1839 42.4413 38.6213 41.8787C38.0587 41.3161 37.2956 41 36.5 41H33.5C32.7044 41 31.9413 41.3161 31.3787 41.8787C30.8161 42.4413 30.5 43.2044 30.5 44V50" stroke="#E92827" stroke-width="3" stroke-linecap="round" stroke-linejoin="round"/>
<path d="M20 27.5H50" stroke="#E92827" stroke-width="3" stroke-linecap="round" stroke-linejoin="round"/>
<path d="M50 27.5V32C50 32.7956 49.6839 33.5587 49.1213 34.1213C48.5587 34.6839 47.7956 35 47 35C46.1236 34.9518 45.2866 34.6201 44.615 34.055C44.436 33.9257 44.2208 33.856 44 33.856C43.7792 33.856 43.564 33.9257 43.385 34.055C42.7134 34.6201 41.8764 34.9518 41 35C40.1236 34.9518 39.2866 34.6201 38.615 34.055C38.436 33.9257 38.2208 33.856 38 33.856C37.7792 33.856 37.564 33.9257 37.385 34.055C36.7134 34.6201 35.8764 34.9518 35 35C34.1236 34.9518 33.2866 34.6201 32.615 34.055C32.436 33.9257 32.2208 33.856 32 33.856C31.7792 33.856 31.564 33.9257 31.385 34.055C30.7134 34.6201 29.8764 34.9518 29 35C28.1236 34.9518 27.2866 34.6201 26.615 34.055C26.436 33.9257 26.2208 33.856 26 33.856C25.7792 33.856 25.564 33.9257 25.385 34.055C24.7134 34.6201 23.8764 34.9518 23 35C22.2044 35 21.4413 34.6839 20.8787 34.1213C20.3161 33.5587 20 32.7956 20 32V27.5" stroke="#E92827" stroke-width="3" stroke-linecap="round" stroke-linejoin="round"/>
</svg>
