<svg width="36" height="36" viewBox="0 0 36 36" fill="none" xmlns="http://www.w3.org/2000/svg">
<g clip-path="url(#clip0_84_16941)">
<path d="M19.0566 0C16.7299 0 14.7676 1.96235 14.7676 4.28905C14.7676 6.61576 16.7299 8.57811 19.0566 8.57811C21.3833 8.57811 23.2754 6.61576 23.2754 4.28905C23.2754 1.96235 21.3833 0 19.0566 0Z" fill="#E92827"/>
<path d="M23.7389 8.57812C22.5798 9.86336 20.9196 10.6875 19.0566 10.6875C17.1936 10.6875 15.4632 9.86336 14.3041 8.57812C13.2921 9.70024 12.6582 11.1703 12.6582 12.7969V13.8516C12.6582 14.4345 13.1299 14.9062 13.7129 14.9062H24.3301C24.913 14.9062 25.3847 14.4345 25.3847 13.8516V12.7969C25.3847 11.1703 24.7508 9.70024 23.7389 8.57812Z" fill="#E92827"/>
<path d="M10.1917 32.3721L4.81699 21.5964C4.29801 20.5558 3.03492 20.1315 1.9931 20.6477L0.588329 21.3435C0.0652755 21.6029 -0.14756 22.2386 0.11351 22.7608L6.44162 35.417C6.70185 35.9389 7.33487 36.1466 7.85371 35.8908L9.24041 35.2037C10.2863 34.6857 10.7126 33.4166 10.1917 32.3721Z" fill="#E92827"/>
<path d="M35.138 17.4164C34.2731 16.7836 33.0708 16.9102 32.3537 17.6907L26.5881 24.7782C26.1873 25.2 25.4279 25.4532 25.0271 25.4532H20.1122C19.5215 25.4532 19.0575 24.9892 19.0575 24.3985C19.0575 23.8078 19.5215 23.3438 20.1122 23.3438C21.5248 23.3438 23.0887 23.3438 24.331 23.3438C25.4911 23.3438 26.4403 22.3946 26.4403 21.2344C26.4403 20.0743 25.4911 19.125 24.331 19.125C19.3777 19.125 24.1024 19.125 18.8044 19.125C18.2788 19.125 18.0166 18.7917 17.6021 18.4289C15.9702 16.9604 13.5275 16.2529 11.0546 16.8261C9.68159 17.1443 8.75564 17.699 7.81655 18.4428L7.78526 18.4174L6.25977 19.76L12.2549 31.7813H14.0301H24.331C26.3138 31.7813 28.2123 30.832 29.3935 29.25L35.5809 20.3907C36.277 19.4625 36.0872 18.1126 35.138 17.4164Z" fill="#E92827"/>
</g>
<defs>
<clipPath id="clip0_84_16941">
<rect width="36" height="36" fill="white"/>
</clipPath>
</defs>
</svg>
