<svg width="39" height="25" viewBox="0 0 39 25" fill="none" xmlns="http://www.w3.org/2000/svg">
<g clip-path="url(#clip0_124_6314)">
<path opacity="0.2" d="M35.2821 0H3.02596C1.31236 0 0.00195312 1.3104 0.00195312 3.02401V21.1681C0.00195312 22.8817 1.41316 24.1921 3.02596 24.1921H35.2821C36.9957 24.1921 38.3061 22.8817 38.3061 21.1681V3.02401C38.3061 1.3104 36.8949 0 35.2821 0Z" fill="black"/>
<path d="M35.2809 1.00781C36.3897 1.00781 37.2969 1.91502 37.2969 3.02382V21.1679C37.2969 22.2767 36.3897 23.1839 35.2809 23.1839H3.0248C1.91599 23.1839 1.00879 22.2767 1.00879 21.1679V3.02382C1.00879 1.91502 1.91599 1.00781 3.0248 1.00781H35.2809Z" fill="white"/>
<path d="M28.5304 10.1813H28.228C27.8248 11.1893 27.5224 11.6933 27.22 13.2053H29.1352C28.8328 11.6933 28.8328 10.9877 28.5304 10.1813ZM31.4536 16.1285H29.74C29.6392 16.1285 29.6392 16.1285 29.5384 16.0277L29.3368 15.1205L29.236 14.9189H26.8168C26.716 14.9189 26.6152 14.9189 26.6152 15.1205L26.3128 16.0277C26.3128 16.1285 26.212 16.1285 26.212 16.1285H24.0952L24.2968 15.6245L27.22 8.77006C27.22 8.26605 27.5224 8.06445 28.0264 8.06445H29.5384C29.6392 8.06445 29.74 8.06445 29.74 8.26605L31.1512 14.8181C31.252 15.2213 31.3528 15.5237 31.3528 15.9269C31.4536 16.0277 31.4536 16.0277 31.4536 16.1285ZM17.9464 15.8261L18.3496 14.0117C18.4504 14.0117 18.5512 14.1125 18.5512 14.1125C19.2568 14.4149 19.9624 14.6165 20.668 14.5157C20.8696 14.5157 21.172 14.4149 21.3736 14.3141C21.8776 14.1125 21.8776 13.6085 21.4744 13.2053C21.2728 13.0037 20.9704 12.9029 20.668 12.7013C20.2648 12.4997 19.8616 12.2981 19.5592 11.9957C18.3496 10.9877 18.7528 9.57646 19.4584 8.87086C20.0632 8.46765 20.3656 8.06445 21.172 8.06445C22.3816 8.06445 23.692 8.06445 24.2968 8.26605H24.3976C24.2968 8.87086 24.196 9.37486 23.9944 9.97966C23.4904 9.77806 22.9864 9.57646 22.4824 9.57646C22.18 9.57646 21.8776 9.57646 21.5752 9.67726C21.3736 9.67726 21.2728 9.77806 21.172 9.87886C20.9704 10.0805 20.9704 10.3829 21.172 10.5845L21.676 10.9877C22.0792 11.1893 22.4824 11.3909 22.7848 11.5925C23.2888 11.8949 23.7928 12.3989 23.8936 13.0037C24.0952 13.9109 23.7928 14.7173 22.9864 15.3221C22.4824 15.7253 22.2808 15.9269 21.5752 15.9269C20.164 15.9269 19.0552 16.0277 18.148 15.7253C18.0472 15.9269 18.0472 15.9269 17.9464 15.8261ZM14.4184 16.1285C14.5192 15.4229 14.5192 15.4229 14.62 15.1205C15.124 12.9029 15.628 10.5845 16.0312 8.36685C16.132 8.16525 16.132 8.06445 16.3336 8.06445H18.148C17.9464 9.27406 17.7448 10.1813 17.4424 11.2901C17.14 12.8021 16.8376 14.3141 16.4344 15.8261C16.4344 16.0277 16.3336 16.0277 16.132 16.0277M5.04395 8.26605C5.04395 8.16525 5.24555 8.06445 5.34635 8.06445H8.77356C9.27756 8.06445 9.68076 8.36685 9.78156 8.87086L10.6888 13.3061C10.6888 13.4069 10.6888 13.4069 10.7896 13.5077C10.7896 13.4069 10.8904 13.4069 10.8904 13.4069L13.0072 8.26605C12.9064 8.16525 13.0072 8.06445 13.108 8.06445H15.2248C15.2248 8.16525 15.2248 8.16525 15.124 8.26605L11.9992 15.6245C11.8984 15.8261 11.8984 15.9269 11.7976 16.0277C11.6968 16.1285 11.4952 16.0277 11.2936 16.0277H9.78156C9.68076 16.0277 9.57996 16.0277 9.57996 15.8261L7.96715 9.57646C7.76555 9.37486 7.46315 9.07246 7.05995 8.97166C6.45515 8.66925 5.34635 8.46765 5.14475 8.46765L5.04395 8.26605Z" fill="#142688"/>
</g>
<defs>
<clipPath id="clip0_124_6314">
<rect width="38.3041" height="24.1921" fill="white"/>
</clipPath>
</defs>
</svg>
