<svg width="56" height="56" viewBox="0 0 56 56" fill="none" xmlns="http://www.w3.org/2000/svg">
<g clip-path="url(#clip0_434_1653)">
<path d="M28 56C12.5384 56 0 43.4616 0 28C0 12.5384 12.5384 0 28 0C43.4616 0 56 12.5384 56 28C56 43.4616 43.4616 56 28 56Z" fill="#25D366"/>
<path fill-rule="evenodd" clip-rule="evenodd" d="M41.0982 14.9632C37.6262 11.4856 33.0006 9.57042 28.0782 9.56482C17.9366 9.56482 9.67659 17.8192 9.67659 27.9664C9.67659 31.2088 10.5222 34.3784 12.135 37.1672L9.52539 46.704L19.2806 44.1448C21.9686 45.612 24.9926 46.3848 28.0726 46.3848H28.0782C38.2198 46.3848 46.4742 38.1304 46.4798 27.9832C46.4854 23.0664 44.5758 18.4408 41.0982 14.9632ZM28.0838 43.2768H28.0782C25.3342 43.2768 22.6406 42.5376 20.2942 41.1432L19.7342 40.8128L13.9438 42.3304L15.4894 36.6856L15.1254 36.1088C13.5966 33.6728 12.7846 30.8616 12.7846 27.9664C12.7902 19.5328 19.6502 12.6728 28.0894 12.6728C32.1774 12.6728 36.0134 14.2688 38.903 17.1584C41.7926 20.048 43.383 23.8952 43.3774 27.9776C43.3774 36.4168 36.5118 43.2768 28.0838 43.2768ZM36.4726 31.8192C36.0134 31.5896 33.751 30.4752 33.331 30.324C32.911 30.1728 32.603 30.0944 32.295 30.5536C31.987 31.0128 31.1078 32.0488 30.839 32.3568C30.5702 32.6648 30.3014 32.704 29.8422 32.4744C29.383 32.2448 27.899 31.7576 26.1462 30.1896C24.7798 28.9688 23.8558 27.4624 23.587 27.0032C23.3182 26.544 23.559 26.292 23.7886 26.0624C23.9958 25.8552 24.2478 25.5248 24.4774 25.256C24.707 24.9872 24.7854 24.7968 24.9366 24.4888C25.0878 24.1808 25.015 23.912 24.8974 23.6824C24.7798 23.4528 23.8614 21.1904 23.4806 20.2664C23.1054 19.3704 22.7302 19.4936 22.4446 19.4768C22.1758 19.4656 21.8678 19.46 21.5654 19.46C21.2574 19.46 20.759 19.5776 20.339 20.0368C19.919 20.496 18.7318 21.6104 18.7318 23.8728C18.7318 26.1352 20.3782 28.3248 20.6078 28.6272C20.8374 28.9352 23.8502 33.5776 28.4646 35.5712C29.5622 36.0472 30.419 36.3272 31.0854 36.54C32.1886 36.8928 33.191 36.8424 33.9806 36.7248C34.8654 36.5904 36.7022 35.6104 37.083 34.5408C37.4638 33.4656 37.4638 32.5472 37.3518 32.3568C37.2398 32.1664 36.9318 32.0544 36.4726 31.8192Z" fill="white"/>
</g>
<defs>
<clipPath id="clip0_434_1653">
<rect width="56" height="56" fill="white"/>
</clipPath>
</defs>
</svg>
