<svg width="2310" height="388" viewBox="0 0 2310 388" fill="none" xmlns="http://www.w3.org/2000/svg">
<g opacity="0.3">
<path d="M738.586 6.33992C740.328 4.53225 741.004 2.2312 741.555 0C744.623 0.585089 747.65 1.31863 750.682 2.03035C749.32 7.27868 744.02 11.9638 737.467 12.4004C735.668 12.038 734.222 10.9682 732.678 10.1648C734.789 9.06014 737.083 8.06462 738.586 6.33992Z" fill="#FFDA1A"/>
<path d="M1091.13 63.0759C1092.86 61.2683 1093.48 58.9716 1094.1 56.7666C1097.15 57.4041 1100.19 58.094 1103.21 58.8362C1101.77 64.0365 1096.59 68.7041 1090.06 69.1757C1088.21 68.8832 1086.73 67.7479 1085.16 66.9401C1087.31 65.8398 1089.63 64.8268 1091.13 63.0759Z" fill="#FFDA1A"/>
<path d="M893.537 72.1228C896.652 72.7035 899.752 73.3803 902.768 74.2492C901.156 79.3011 896.278 83.8944 889.855 84.4926C887.868 84.4009 886.324 83.0954 884.696 82.2571C886.901 81.1306 889.273 80.0652 890.77 78.24C892.398 76.4717 893.012 74.2667 893.537 72.1228Z" fill="#FFDA1A"/>
<path d="M597.16 152.201C598.903 150.394 599.589 148.097 600.13 145.87C603.204 146.442 606.23 147.18 609.262 147.887C607.905 153.145 602.574 157.851 596.006 158.253C594.227 157.869 592.782 156.83 591.263 156.018C593.369 154.917 595.663 153.917 597.16 152.201Z" fill="#FFDA1A"/>
<path d="M733.926 152.044C737.035 152.625 740.125 153.302 743.146 154.162C741.534 159.231 736.63 163.838 730.181 164.414C728.21 164.287 726.676 163.012 725.064 162.17C727.154 161.095 729.411 160.117 730.899 158.423C732.677 156.611 733.379 154.293 733.926 152.044Z" fill="#FFDA1A"/>
<path d="M840.97 304.64C844.091 305.016 847.086 305.928 850.118 306.631C848.86 310.338 846.145 313.844 841.979 315.643C840.279 316.329 838.417 317.023 836.498 316.897C834.938 316.403 833.523 315.63 832.212 314.783C833.799 313.5 836.05 312.897 837.429 311.395C839.53 309.552 840.174 307.011 840.97 304.64Z" fill="#FFDA1A"/>
<path d="M856.59 187.937C859.71 188.312 862.705 189.225 865.737 189.928C864.479 193.635 861.764 197.141 857.598 198.94C855.898 199.625 854.036 200.32 852.117 200.193C850.557 199.7 849.142 198.927 847.832 198.08C849.418 196.796 851.67 196.193 853.048 194.691C855.149 192.849 855.794 190.308 856.59 187.937Z" fill="#FFDA1A"/>
<path d="M832.295 4.27443C833.621 2.28775 837.292 2.38818 838.837 4.12598C840.303 5.57123 839.877 7.98145 837.994 9.01627C835.951 10.3174 832.399 9.73235 831.65 7.53172C831.91 7.66707 832.419 7.93778 832.679 8.07751C832.601 8.1692 832.445 8.35258 832.367 8.44428C833.792 9.19092 835.691 9.75855 837.251 8.92021C839.3 8.03385 839.653 5.35728 837.802 4.16527C836.205 2.86411 833.012 3.4623 832.664 5.41841C832.128 7.12565 834.682 8.74556 836.45 7.73257C837.75 7.13438 837.797 5.2132 836.231 4.85952C835.285 4.49712 834.396 5.11277 834.13 5.85505C834.255 6.68028 835.222 6.64098 835.982 6.75451C835.743 6.32224 835.269 5.46644 835.03 5.03418C835.503 5.51884 837.235 5.71969 836.523 6.56239C836.138 7.85919 833.683 7.51425 833.465 6.29168C832.955 4.85079 835.051 3.60639 836.585 4.2526C838.286 4.75473 838.769 6.73268 837.584 7.82863C836.658 8.88092 834.947 8.5971 833.615 8.62767L833.902 8.06441C833.595 8.06441 832.986 8.07314 832.679 8.07751C832.045 6.8986 831.322 5.48391 832.295 4.27443Z" fill="#FF1F1F"/>
<path d="M1013.36 13.1468C1014.85 12.7539 1016.62 12.8237 1017.94 13.6053C1020.25 14.9894 1020.06 18.4301 1017.52 19.561C1015.67 20.3687 1013.07 20.2159 1011.65 18.8405C1009.85 17.094 1010.58 13.8454 1013.36 13.1468Z" fill="#FF1F1F"/>
<path d="M947.15 52.0247C945.668 49.37 948.242 46.0254 951.695 45.973C955.58 45.5844 959.252 48.8329 958.279 52.0771C957.499 55.4916 952.319 57.1857 948.861 55.4261C946.88 54.5921 946.016 52.7976 945.314 51.1515C946.349 52.9198 947.68 54.8279 950.125 55.365C953.204 56.3474 957.052 54.531 957.348 51.7147C958.009 48.5753 953.521 45.7983 950.172 47.3571C947.597 48.3527 947.119 51.7409 949.558 53.0639C951.461 54.3869 954.904 53.4394 955.008 51.2475C955.336 49.6495 953.022 48.2653 951.352 49.1037C950.364 49.5228 949.813 50.9419 950.863 51.5313C951.425 52.099 953.079 51.5313 952.626 50.7541C952.278 50.6057 951.581 50.3088 951.232 50.1603C952.096 49.9464 953.328 49.5228 953.807 50.4791C954.42 52.278 951.508 53.4744 950.021 52.2125C947.946 50.7803 949.704 47.7457 952.262 47.8767C955.383 47.6933 957.4 51.0467 955.492 53.1032C953.453 55.6968 948.367 54.7799 947.15 52.0247Z" fill="#FF1F1F"/>
<path d="M1150.03 58.7926C1152.35 57.7359 1155.43 59.5436 1154.95 61.7486C1154.79 64.3771 1150.08 64.9185 1148.54 62.8838C1147.39 61.5041 1148.21 59.4301 1150.03 58.7926Z" fill="#FF1F1F"/>
<path d="M669.964 64.9272C671.149 62.4428 673.968 60.6264 677.088 60.1679C681.582 59.4562 686.481 61.3075 688.795 64.6259C690.678 67.2632 690.761 70.7301 689.003 73.4285C687.443 75.8736 684.489 77.6201 681.259 78.1616C677.109 78.8995 672.548 77.6289 669.839 74.8737C668.237 73.3499 667.452 71.3763 667.187 69.3852C667.967 72.184 669.958 74.7776 673.016 76.1661C676.532 77.8996 681.285 77.9389 684.614 75.8518C688.067 73.804 689.424 69.6516 687.692 66.4118C685.815 62.7266 680.172 60.6482 675.768 62.4035C672.075 63.709 670.244 67.7697 672.127 70.765C673.744 73.5289 678.274 74.9174 681.473 73.2363C684.187 71.957 685.201 68.4377 682.929 66.4903C681.311 64.9665 678.082 64.7656 676.496 66.4379C675.393 67.499 675.195 69.5293 676.891 70.2541C678.285 71.0706 680.781 69.8044 679.756 68.3897C679.174 68.3722 678.014 68.3417 677.437 68.3242C678.201 67.4204 679.522 66.4991 680.859 67.237C683.329 68.5076 681.644 71.8347 679.111 72.1447C675.721 72.8783 672.522 69.7695 673.703 67.0405C674.66 63.6435 680.016 62.4995 683.194 64.4731C686.881 66.3375 687.297 71.0051 684.416 73.5551C681.374 76.5067 675.544 76.284 672.299 73.6861C669.366 71.5815 668.455 67.8832 669.964 64.9272Z" fill="#FF1F1F"/>
<path d="M781.927 96.832C783.154 93.9938 787.747 93.2428 790.524 94.937C793.405 96.4084 794.107 100.046 791.938 102.207C789.926 104.394 785.859 104.831 783.191 103.259C781.672 102.456 780.944 101.024 780.247 99.7094C781.423 101.281 782.754 103.01 785.058 103.482C788.142 104.377 791.943 102.556 792.167 99.7356C792.677 96.9586 789.218 94.4217 786.01 95.1247C783.461 95.5308 781.88 98.2117 783.248 100.115C784.34 101.862 787.622 102.403 789.151 100.766C790.42 99.5871 789.879 97.3559 787.903 97.0153C786.389 96.5438 784.559 97.941 785.271 99.2291C785.625 100.163 787.793 99.9932 787.466 98.8579C787.112 98.7182 786.4 98.4388 786.046 98.299C786.774 98.1506 787.57 97.7183 788.287 98.155C789.567 99.443 787.539 101.342 785.807 100.731C783.716 100.303 783.342 97.8537 784.86 96.7359C786.691 95.1902 790.092 96.1333 790.831 98.1331C791.777 100.281 789.593 102.775 786.888 102.735C783.342 102.958 780.461 99.5827 781.927 96.832Z" fill="#FF1F1F"/>
<path d="M1047.59 103.438C1050.5 102.085 1054.42 104.294 1053.97 107.071C1053.82 109.839 1049.53 111.429 1046.96 109.708C1044.32 108.25 1044.68 104.508 1047.59 103.438Z" fill="#FF1F1F"/>
<path d="M599.34 195.197C603.583 194.153 608.196 197.712 607.323 201.349C606.459 204.31 602.954 207.021 599.142 206.44C596.693 206.174 595.127 204.432 593.848 202.838C593.858 201.65 593.858 200.463 593.853 199.28C595.226 197.572 596.802 195.695 599.34 195.197Z" fill="#FF1F1F"/>
<path d="M1019.36 215.764C1021.38 215.484 1023.76 215.58 1025.28 216.903C1027.35 218.523 1027.69 221.484 1025.87 223.344C1023.38 225.972 1017.7 225.702 1015.73 222.733C1013.9 220.161 1015.8 216.323 1019.36 215.764Z" fill="#FFDA1A"/>
<path d="M839.055 232.305C840.834 231.768 842.971 231.62 844.63 232.515C847.007 233.772 847.678 236.689 846.248 238.676C844.136 241.566 838.046 241.265 836.46 238.121C835.545 236.047 836.372 233.122 839.055 232.305Z" fill="#FF1F1F"/>
<path d="M659.516 231.56C659.188 229.656 661.393 227.953 663.619 228.254C666.048 228.377 667.972 230.529 667.296 232.516C666.739 234.542 663.884 235.629 661.622 234.935C660.046 234.507 659.308 233.149 658.413 232.101C659.713 233.044 660.545 234.699 662.527 234.743C664.898 235.136 667.244 233.175 666.656 231.184C666.219 229.08 662.574 228.054 660.93 229.809C659.588 231.058 660.571 233.315 662.6 233.455C664.331 233.795 665.949 231.861 664.685 230.713C663.811 229.73 661.669 230.307 661.892 231.599C662.246 232.485 663.25 231.931 663.931 231.743C663.541 231.573 662.766 231.224 662.381 231.053C663.151 230.988 664.144 230.66 664.43 231.551C664.383 232.918 662.106 233.293 661.362 232.136C660.369 230.796 662.246 229.101 663.947 229.604C666.058 229.962 666.614 232.485 664.945 233.559C663.005 234.974 659.698 233.642 659.516 231.56Z" fill="#FF1F1F"/>
<path d="M975.827 307.435C978.313 305.094 983.217 305.741 985.147 308.308C986.863 310.382 986.249 313.5 983.815 314.997C981.423 316.608 977.684 316.504 975.432 314.761C974.096 313.836 973.659 312.377 973.092 311.076C973.976 312.683 974.974 314.447 977.081 315.137C980.128 316.499 984.512 314.988 985.017 312.006C985.792 309.229 982.515 306.478 979.223 307.016C976.826 307.264 975.068 309.474 975.827 311.421C976.472 313.386 979.671 314.447 981.605 313.089C983.186 312.111 983.155 309.71 981.205 309.063C979.681 308.339 977.455 309.67 978.152 311.107C978.474 312.054 980.154 311.936 980.549 311.063C980.154 310.849 979.369 310.421 978.979 310.207C979.754 310.011 980.758 309.574 981.376 310.282C982.312 311.714 980.159 313.299 978.516 312.618C976.254 311.98 976.384 309.133 978.37 308.286C980.934 306.976 984.492 309.142 983.904 311.591C983.628 314.233 979.65 315.495 977.117 314.133C974.241 312.91 973.586 309.356 975.827 307.435Z" fill="#FF1F1F"/>
<path d="M880.158 383.326C879.065 380.614 881.832 377.575 885.218 377.68C889.03 377.466 892.473 380.719 891.443 383.88C890.632 387.181 885.66 388.84 882.243 387.229C880.262 386.469 879.299 384.736 878.618 383.116C879.684 384.841 881.094 386.666 883.522 387.137C886.752 388.067 890.658 385.928 890.569 382.985C890.881 379.667 885.577 377.265 882.56 379.536C880.09 381.134 881.036 384.88 884.193 385.321C886.632 385.963 889.212 383.553 887.875 381.645C886.976 380.108 883.741 380.269 883.517 382.107C883.122 383.47 885.514 383.985 886.05 382.688C885.681 382.479 884.953 382.059 884.583 381.854C885.462 381.365 887.017 381.448 887.074 382.561C887.236 384.452 884.048 385.081 882.872 383.636C881.083 381.793 883.678 379.007 886.268 379.653C889.259 380.012 890.434 383.426 888.343 385.181C885.935 387.5 881.047 386.159 880.158 383.326Z" fill="#FF1F1F"/>
<path d="M919.857 12.2782C922.791 9.33532 925.874 6.47537 929.198 3.83374C930.768 6.5234 932.562 9.1563 933.722 11.9944C932.932 12.5315 931.84 12.3524 930.909 12.4223C927.227 12.3655 923.534 12.5227 919.857 12.2782Z" fill="#FC8D4D"/>
<path d="M664.856 14.3388C667.28 12.256 669.505 10.0161 671.997 7.99011C673.812 10.6972 675.445 13.5048 676.771 16.4128C672.215 16.7184 667.618 16.6354 663.052 16.5088C663.28 15.6094 664.17 15.0024 664.856 14.3388Z" fill="#FC8D4D"/>
<path d="M1131.6 19.4607C1133.41 16.9457 1135.39 14.4918 1137.78 12.3392C1139.93 15.2035 1142.17 18.0417 1143.85 21.1199C1139.72 20.9496 1135.61 20.2903 1131.6 19.4607Z" fill="#FC8D4D"/>
<path d="M1027.07 59.6527C1029.25 56.8582 1031.2 53.8804 1033.86 51.3872C1035.31 54.8672 1036.53 58.5786 1036.2 62.2987C1033.09 61.5739 1030 60.7748 1027.07 59.6527Z" fill="#FC8D4D"/>
<path d="M916.246 123.206C920.016 122.424 923.771 121.538 927.614 121.062C926.226 124.66 924.608 128.201 922.871 131.689C920.458 128.982 918.258 126.135 916.246 123.206Z" fill="#FC8D4D"/>
<path d="M1122.71 120.134C1127.38 120.422 1132.06 120.885 1136.63 121.775C1134.14 125.496 1131.77 129.29 1129.03 132.888C1127.52 130.827 1126.61 128.53 1125.48 126.321C1124.48 124.286 1123.3 122.291 1122.71 120.134Z" fill="#FC8D4D"/>
<path d="M596.131 247.436C598.513 246.108 600.811 244.667 603.344 243.541C604.405 246.711 605.424 249.903 606.121 253.151C600.728 252.614 595.325 252.073 589.994 251.221C591.788 249.684 594.04 248.636 596.131 247.436Z" fill="#FC8D4D"/>
<path d="M1074.7 10.492C1078.83 9.44843 1083.62 11.9067 1084.39 15.4652C1085.25 18.9365 1082.37 22.8269 1078.11 23.3727C1074.08 24.032 1069.8 21.5999 1069.1 18.1986C1068.2 14.902 1070.79 11.3085 1074.7 10.492Z" fill="#0051B9"/>
<path d="M602.949 15.6883C608.181 14.2299 613.917 18.9062 612.674 23.3293C611.816 26.233 608.607 28.9139 604.847 28.6082C600.801 28.8004 597.28 25.792 597.114 22.4779C596.822 19.4171 599.475 16.4917 602.949 15.6883Z" fill="#0051B9"/>
<path d="M806.219 54.854C809.428 54.365 813.219 55.4304 814.649 58.0502C815.876 60.4298 815.949 63.5518 813.749 65.5603C811.149 68.1189 806.136 68.6953 803 66.4947C799.968 64.6565 798.845 60.9189 800.769 58.1725C801.876 56.4565 803.931 55.2033 806.219 54.854Z" fill="#0051B9"/>
<path d="M656.499 129.138C659.417 127.903 663.192 130.256 662.584 132.959C662.282 135.548 658.319 137.159 655.802 135.518C652.983 134.064 653.394 130.125 656.499 129.138Z" fill="#0051B9"/>
<path d="M941.032 195.203C943.82 194.522 947.257 194.802 949.364 196.64C952.786 199.509 952.073 204.962 947.928 207.093C944.028 209.232 938.115 207.586 936.544 203.892C934.693 200.57 937.101 196.478 941.032 195.203Z" fill="#0051B9"/>
<path d="M579.6 318.929C582.216 317.763 585.773 319.37 586.064 321.837C586.501 324.531 582.637 326.862 579.756 325.544C576.693 324.365 576.474 320.138 579.6 318.929Z" fill="#0051B9"/>
<path d="M890.38 32.0708C891.842 31.4333 893.891 31.4726 895.118 32.4812C893.807 38.188 885.481 41.7509 879.116 39.6027C877.353 39.1268 875.631 38.2535 873.733 38.3714C872.215 38.7338 871.861 40.2227 871.174 41.2445C869.521 44.5934 864.799 46.7111 860.586 45.7374C858.293 45.2571 856.431 43.9472 854.907 42.4889C856.046 41.6374 857.211 40.7249 858.677 40.3013C860.576 40.5065 862.328 41.9867 864.304 41.2357C866.957 40.214 866.759 37.2798 868.704 35.7079C870.868 33.7475 874.399 33.5204 877.285 34.3238C879.891 34.8434 882.449 36.5113 885.211 35.5813C887.489 35.0836 888.778 33.3545 890.38 32.0708Z" fill="#3CC2AD"/>
<path d="M742.418 40.5895C743.027 40.3013 743.791 40.2839 744.02 40.9519C746.204 44.2179 747.515 47.9206 747.738 51.6625C747.759 52.6843 747.853 53.7671 747.307 54.7146C745.357 54.8456 743.162 54.9111 741.415 54.0815C740.749 51.7586 741.066 49.2611 739.938 47.0168C739.475 45.6457 738.221 44.4188 738.237 42.9779C739.386 41.9343 740.957 41.2838 742.418 40.5895Z" fill="#3CC2AD"/>
<path d="M603.411 108.158C604.946 104.866 608.721 102.028 613.069 101.954C614.328 102.831 613.844 104.552 613.693 105.77C612.284 106.975 609.881 107.241 608.934 108.892C606.709 111.852 610.209 115.454 607.874 118.375C606.038 120.943 601.919 121.296 598.773 120.545C596.812 120.008 596.344 118.148 595.871 116.686C598.232 116.009 600.957 116.734 603.172 115.839C602.98 113.289 602.226 110.625 603.411 108.158Z" fill="#3CC2AD"/>
<path d="M991.979 141.853C992.603 141.504 993.425 141.582 993.674 142.25C995.926 145.652 997.263 149.52 997.372 153.42C997.362 154.258 997.419 155.166 996.899 155.926C994.969 156.109 992.801 156.135 991.048 155.367C990.429 153.765 990.715 152.027 990.237 150.398C989.836 148.254 988.416 146.399 987.694 144.351C988.9 143.285 990.44 142.53 991.979 141.853Z" fill="#3CC2AD"/>
<path d="M891.817 275.495C891.76 273.884 892.113 272.259 892.67 270.723C897.579 270.731 902.036 273.639 904.709 276.979C903.035 278.045 901.334 279.128 899.41 279.853C897.751 279.01 896.643 277.512 894.781 276.918C893.814 276.442 892.399 276.364 891.817 275.495Z" fill="#F778E0"/>
<path d="M690.55 317.385C692.698 317.214 695.324 316.625 697.228 317.594C697.368 319.149 697.145 320.795 696.375 322.227C695.33 322.707 694.082 322.655 692.937 322.821C688.158 323.196 683.608 325.017 680.128 327.776C679.125 328.554 678.329 329.501 677.273 330.235C675.219 329.846 673.217 328.632 672.067 327.165C676.041 321.79 683.243 318.48 690.55 317.385Z" fill="#3CC2AD"/>
<path d="M1014.08 316.981C1016.57 316.632 1019.2 316.344 1021.67 316.942C1022.12 318.339 1021.76 319.841 1021.27 321.203C1020.84 322.295 1019.14 322.02 1018.09 322.264C1013.11 322.644 1008.23 324.382 1004.68 327.382C1003.65 328.207 1002.79 329.198 1001.55 329.814C999.869 328.962 997.809 328.216 996.722 326.845C997.118 325.487 998.548 324.557 999.624 323.552C1003.55 320.251 1008.61 317.859 1014.08 316.981Z" fill="#3CC2AD"/>
<path d="M604.774 62.111C606.891 61.5914 609.127 61.5084 611.301 61.2246C612.507 65.7176 610.656 70.455 607.801 74.2625C606.178 76.0876 604.519 78.1529 601.987 79.1266C600.536 77.8079 599.22 76.3408 598.247 74.7428C598.336 73.8389 599.475 73.2757 600.083 72.5771C602.678 70.2498 604.192 67.1104 604.322 63.9274C604.462 63.3292 604.311 62.6131 604.774 62.111Z" fill="#F778E0"/>
<path d="M962.585 90.0597C964.244 88.6799 966.023 87.4049 967.848 86.1824C972.955 89.2126 979.648 88.4747 985.026 90.9766C988.796 92.5223 992.203 95.3735 992.567 99.0456C990.648 100.128 987.969 99.6307 985.78 99.491C984.422 98.4605 983.497 96.9847 981.729 96.3778C977.209 94.6749 972.029 94.8015 967.557 92.9764C965.68 92.2996 964.026 91.2648 962.585 90.0597Z" fill="#F778E0"/>
<path d="M700.45 103.762C702.145 102.43 703.903 101.155 705.728 99.9497C710.788 102.954 717.409 102.246 722.76 104.678C726.749 106.29 730.291 109.337 730.442 113.25C728.179 113.328 725.808 113.717 723.603 113.175C722.292 112.228 721.403 110.861 719.791 110.228C716.135 108.787 712.021 108.626 708.188 107.656C705.302 106.879 702.488 105.691 700.45 103.762Z" fill="#F778E0"/>
<path d="M723.618 217.903C729.391 217.078 735.637 218.077 740.385 221.02C739.641 223.212 737.353 224.745 735.912 226.631C733.208 225.531 730.348 224.422 727.264 224.575C724.747 224.522 722.484 225.649 720.014 225.819C718.105 224.435 716.883 222.391 715.698 220.531C717.939 219.003 720.831 218.344 723.618 217.903Z" fill="#F778E0"/>
<path d="M752.94 301.458C756.752 298.795 763.299 300.668 764.563 304.659C765.915 308.047 762.961 311.89 758.827 312.475C755.269 313.182 751.593 311.553 749.845 308.929C751.925 310.436 754.292 312.2 757.261 311.986C760.917 312.029 764.11 309.069 763.58 306.004C763.252 302.803 758.827 300.485 755.269 301.742C752.456 302.602 751.099 305.816 752.888 307.894C754.307 309.776 757.906 310.313 759.742 308.567C761.354 307.231 760.98 304.554 758.697 303.925C756.861 303.188 754.432 304.69 755.061 306.397C755.405 307.702 758.265 307.51 757.839 306.048C757.396 305.912 756.502 305.641 756.06 305.506C757.064 305.148 758.535 304.515 759.18 305.668C760.044 307.598 757.1 309.239 755.165 308.165C752.368 306.973 753.434 303.161 756.351 302.69C759.752 301.825 763.232 304.934 761.978 307.737C760.995 310.977 755.68 311.759 752.919 309.628C749.85 307.681 749.923 303.415 752.94 301.458Z" fill="#F778E0"/>
<path d="M416.415 6.33992C414.672 4.53225 413.996 2.2312 413.445 0C410.377 0.585089 407.35 1.31863 404.318 2.03035C405.681 7.27868 410.98 11.9638 417.533 12.4004C419.332 12.038 420.778 10.9682 422.323 10.1648C420.211 9.06014 417.918 8.06462 416.415 6.33992Z" fill="#FFDA1A"/>
<path d="M63.8716 63.0759C62.145 61.2683 61.5157 58.9716 60.9021 56.7666C57.8493 57.4041 54.8069 58.094 51.7854 58.8362C53.2312 64.0365 58.4058 68.7041 64.9377 69.1757C66.7943 68.8832 68.2661 67.7479 69.8367 66.9401C67.694 65.8398 65.3746 64.8268 63.8716 63.0759Z" fill="#FFDA1A"/>
<path d="M261.463 72.1228C258.348 72.7035 255.248 73.3803 252.232 74.2492C253.844 79.3011 258.722 83.8944 265.145 84.4926C267.132 84.4009 268.676 83.0954 270.304 82.2571C268.099 81.1306 265.728 80.0652 264.23 78.24C262.602 76.4717 261.988 74.2667 261.463 72.1228Z" fill="#FFDA1A"/>
<path d="M421.075 152.044C417.965 152.625 414.876 153.302 411.854 154.162C413.466 159.231 418.37 163.838 424.819 164.414C426.79 164.287 428.324 163.012 429.937 162.17C427.846 161.095 425.589 160.117 424.101 158.423C422.323 156.611 421.621 154.293 421.075 152.044Z" fill="#FFDA1A"/>
<path d="M338.45 142.51C335.319 143.047 332.209 143.715 329.208 144.636C330.846 149.692 335.751 154.277 342.184 154.853C344.155 154.722 345.715 153.469 347.244 152.53C345.174 151.544 342.99 150.574 341.523 148.946C339.708 147.129 338.975 144.789 338.45 142.51Z" fill="#FFDA1A"/>
<path d="M314.03 304.64C310.91 305.016 307.914 305.928 304.882 306.631C306.141 310.338 308.855 313.844 313.021 315.643C314.722 316.329 316.584 317.023 318.503 316.897C320.063 316.403 321.477 315.63 322.788 314.783C321.202 313.5 318.95 312.897 317.572 311.395C315.471 309.552 314.826 307.011 314.03 304.64Z" fill="#FFDA1A"/>
<path d="M298.411 187.937C295.29 188.312 292.295 189.225 289.263 189.928C290.521 193.635 293.236 197.141 297.402 198.94C299.102 199.625 300.964 200.32 302.883 200.193C304.443 199.7 305.858 198.927 307.168 198.08C305.582 196.796 303.33 196.193 301.952 194.691C299.851 192.849 299.206 190.308 298.411 187.937Z" fill="#FFDA1A"/>
<path d="M322.706 4.27443C321.38 2.28775 317.708 2.38818 316.163 4.12598C314.697 5.57123 315.123 7.98145 317.006 9.01627C319.05 10.3174 322.602 9.73235 323.351 7.53172C323.091 7.66707 322.581 7.93778 322.321 8.07751C322.399 8.1692 322.555 8.35258 322.633 8.44428C321.208 9.19092 319.31 9.75855 317.75 8.92021C315.701 8.03385 315.347 5.35728 317.198 4.16527C318.795 2.86411 321.988 3.4623 322.336 5.41841C322.872 7.12565 320.319 8.74556 318.55 7.73257C317.25 7.13438 317.203 5.2132 318.769 4.85952C319.715 4.49712 320.605 5.11277 320.87 5.85505C320.745 6.68028 319.778 6.64098 319.018 6.75451C319.258 6.32224 319.731 5.46644 319.97 5.03418C319.497 5.51884 317.765 5.71969 318.478 6.56239C318.862 7.85919 321.317 7.51425 321.536 6.29168C322.045 4.85079 319.949 3.60639 318.415 4.2526C316.715 4.75473 316.231 6.73268 317.417 7.82863C318.342 8.88092 320.053 8.5971 321.385 8.62767L321.099 8.06441C321.406 8.06441 322.014 8.07314 322.321 8.07751C322.955 6.8986 323.678 5.48391 322.706 4.27443Z" fill="#FF1F1F"/>
<path d="M141.642 13.1468C140.149 12.7539 138.381 12.8237 137.065 13.6053C134.746 14.9894 134.938 18.4301 137.481 19.561C139.333 20.3687 141.928 20.2159 143.348 18.8405C145.147 17.094 144.419 13.8454 141.642 13.1468Z" fill="#FF1F1F"/>
<path d="M207.85 52.0247C209.332 49.37 206.758 46.0254 203.305 45.973C199.42 45.5844 195.748 48.8329 196.721 52.0771C197.501 55.4916 202.681 57.1857 206.139 55.4261C208.121 54.5921 208.984 52.7976 209.686 51.1515C208.651 52.9198 207.32 54.8279 204.875 55.365C201.797 56.3474 197.948 54.531 197.652 51.7147C196.991 48.5753 201.479 45.7983 204.829 47.3571C207.403 48.3527 207.881 51.7409 205.442 53.0639C203.539 54.3869 200.096 53.4394 199.992 51.2475C199.664 49.6495 201.979 48.2653 203.648 49.1037C204.636 49.5228 205.187 50.9419 204.137 51.5313C203.575 52.099 201.922 51.5313 202.374 50.7541C202.722 50.6057 203.419 50.3088 203.768 50.1603C202.904 49.9464 201.672 49.5228 201.193 50.4791C200.58 52.278 203.492 53.4744 204.979 52.2125C207.055 50.7803 205.297 47.7457 202.738 47.8767C199.618 47.6933 197.6 51.0467 199.508 53.1032C201.547 55.6968 206.633 54.7799 207.85 52.0247Z" fill="#FF1F1F"/>
<path d="M4.97497 58.7926C2.65031 57.7359 -0.428432 59.5436 0.0500227 61.7486C0.206041 64.3771 4.91776 64.9185 6.46233 62.8838C7.60646 61.5041 6.78998 59.4301 4.97497 58.7926Z" fill="#FF1F1F"/>
<path d="M485.037 64.9272C483.851 62.4428 481.032 60.6264 477.912 60.1679C473.418 59.4562 468.52 61.3075 466.205 64.6259C464.323 67.2632 464.239 70.7301 465.997 73.4285C467.557 75.8736 470.511 77.6201 473.741 78.1616C477.891 78.8995 482.452 77.6289 485.161 74.8737C486.763 73.3499 487.548 71.3763 487.814 69.3852C487.034 72.184 485.042 74.7776 481.984 76.1661C478.468 77.8996 473.715 77.9389 470.387 75.8518C466.933 73.804 465.576 69.6516 467.308 66.4118C469.185 62.7266 474.828 60.6482 479.233 62.4035C482.925 63.709 484.756 67.7697 482.873 70.765C481.256 73.5289 476.726 74.9174 473.528 73.2363C470.813 71.957 469.799 68.4377 472.072 66.4903C473.689 64.9665 476.918 64.7656 478.505 66.4379C479.607 67.499 479.805 69.5293 478.109 70.2541C476.716 71.0706 474.219 69.8044 475.244 68.3897C475.826 68.3722 476.986 68.3417 477.563 68.3242C476.799 67.4204 475.478 66.4991 474.141 67.237C471.671 68.5076 473.356 71.8347 475.889 72.1447C479.28 72.8783 482.478 69.7695 481.297 67.0405C480.34 63.6435 474.984 62.4995 471.806 64.4731C468.119 66.3375 467.703 71.0051 470.584 73.5551C473.626 76.5067 479.456 76.284 482.702 73.6861C485.635 71.5815 486.545 67.8832 485.037 64.9272Z" fill="#FF1F1F"/>
<path d="M373.073 96.832C371.846 93.9938 367.254 93.2428 364.477 94.937C361.595 96.4084 360.893 100.046 363.062 102.207C365.075 104.394 369.141 104.831 371.809 103.259C373.328 102.456 374.056 101.024 374.753 99.7094C373.578 101.281 372.246 103.01 369.942 103.482C366.858 104.377 363.057 102.556 362.833 99.7356C362.324 96.9586 365.782 94.4217 368.991 95.1247C371.539 95.5308 373.12 98.2117 371.752 100.115C370.66 101.862 367.378 102.403 365.85 100.766C364.581 99.5871 365.121 97.3559 367.098 97.0153C368.611 96.5438 370.442 97.941 369.729 99.2291C369.376 100.163 367.207 99.9932 367.535 98.8579C367.888 98.7182 368.601 98.4388 368.954 98.299C368.226 98.1506 367.43 97.7183 366.713 98.155C365.433 99.443 367.462 101.342 369.193 100.731C371.284 100.303 371.659 97.8537 370.14 96.7359C368.309 95.1902 364.908 96.1333 364.17 98.1331C363.223 100.281 365.407 102.775 368.112 102.735C371.659 102.958 374.54 99.5827 373.073 96.832Z" fill="#FF1F1F"/>
<path d="M107.411 103.438C104.499 102.085 100.583 104.294 101.03 107.071C101.176 109.839 105.466 111.429 108.035 109.708C110.682 108.25 110.318 104.508 107.411 103.438Z" fill="#FF1F1F"/>
<path d="M555.66 195.197C551.417 194.153 546.804 197.712 547.677 201.349C548.541 204.31 552.046 207.021 555.858 206.44C558.307 206.174 559.873 204.432 561.152 202.838C561.142 201.65 561.142 200.463 561.147 199.28C559.774 197.572 558.198 195.695 555.66 195.197Z" fill="#FF1F1F"/>
<path d="M135.644 215.764C133.615 215.484 131.244 215.58 129.72 216.903C127.645 218.523 127.312 221.484 129.133 223.344C131.624 225.972 137.297 225.702 139.274 222.733C141.099 220.161 139.196 216.323 135.644 215.764Z" fill="#FFDA1A"/>
<path d="M315.945 232.305C314.166 231.768 312.029 231.62 310.37 232.515C307.993 233.772 307.322 236.689 308.752 238.676C310.864 241.566 316.954 241.265 318.54 238.121C319.455 236.047 318.628 233.122 315.945 232.305Z" fill="#FF1F1F"/>
<path d="M495.485 231.56C495.812 229.656 493.607 227.953 491.381 228.254C488.953 228.377 487.028 230.529 487.705 232.516C488.261 234.542 491.116 235.629 493.378 234.935C494.954 234.507 495.693 233.149 496.587 232.101C495.287 233.044 494.455 234.699 492.473 234.743C490.102 235.136 487.757 233.175 488.344 231.184C488.781 229.08 492.427 228.054 494.07 229.809C495.412 231.058 494.429 233.315 492.401 233.455C490.669 233.795 489.051 231.861 490.315 230.713C491.189 229.73 493.332 230.307 493.108 231.599C492.754 232.485 491.751 231.931 491.069 231.743C491.459 231.573 492.234 231.224 492.619 231.053C491.849 230.988 490.856 230.66 490.57 231.551C490.617 232.918 492.895 233.293 493.638 232.136C494.632 230.796 492.754 229.101 491.054 229.604C488.942 229.962 488.386 232.485 490.055 233.559C491.995 234.974 495.303 233.642 495.485 231.56Z" fill="#FF1F1F"/>
<path d="M179.173 307.435C176.687 305.094 171.783 305.741 169.853 308.308C168.137 310.382 168.751 313.5 171.185 314.997C173.577 316.608 177.316 316.504 179.568 314.761C180.905 313.836 181.342 312.377 181.908 311.076C181.024 312.683 180.026 314.447 177.92 315.137C174.872 316.499 170.488 314.988 169.983 312.006C169.209 309.229 172.485 306.478 175.777 307.016C178.174 307.264 179.932 309.474 179.173 311.421C178.528 313.386 175.33 314.447 173.395 313.089C171.814 312.111 171.845 309.71 173.796 309.063C175.319 308.339 177.545 309.67 176.848 311.107C176.526 312.054 174.846 311.936 174.451 311.063C174.846 310.849 175.631 310.421 176.021 310.207C175.246 310.011 174.243 309.574 173.624 310.282C172.688 311.714 174.841 313.299 176.484 312.618C178.746 311.98 178.616 309.133 176.63 308.286C174.066 306.976 170.509 309.142 171.096 311.591C171.372 314.233 175.351 315.495 177.883 314.133C180.759 312.91 181.414 309.356 179.173 307.435Z" fill="#FF1F1F"/>
<path d="M274.842 383.326C275.935 380.614 273.168 377.575 269.782 377.68C265.97 377.466 262.527 380.719 263.557 383.88C264.368 387.181 269.34 388.84 272.757 387.229C274.738 386.469 275.701 384.736 276.382 383.116C275.316 384.841 273.906 386.666 271.478 387.137C268.248 388.067 264.342 385.928 264.431 382.985C264.119 379.667 269.423 377.265 272.44 379.536C274.91 381.134 273.964 384.88 270.807 385.321C268.368 385.963 265.788 383.553 267.125 381.645C268.024 380.108 271.259 380.269 271.483 382.107C271.878 383.47 269.486 383.985 268.95 382.688C269.319 382.479 270.047 382.059 270.417 381.854C269.538 381.365 267.983 381.448 267.926 382.561C267.764 384.452 270.952 385.081 272.128 383.636C273.917 381.793 271.322 379.007 268.732 379.653C265.741 380.012 264.566 383.426 266.657 385.181C269.065 387.5 273.953 386.159 274.842 383.326Z" fill="#FF1F1F"/>
<path d="M235.143 12.2782C232.209 9.33532 229.126 6.47537 225.802 3.83374C224.232 6.5234 222.438 9.1563 221.278 11.9944C222.068 12.5315 223.16 12.3524 224.091 12.4223C227.773 12.3655 231.466 12.5227 235.143 12.2782Z" fill="#FC8D4D"/>
<path d="M490.144 14.3388C487.72 12.256 485.495 10.0161 483.003 7.99011C481.188 10.6972 479.555 13.5048 478.229 16.4128C482.785 16.7184 487.382 16.6354 491.948 16.5088C491.72 15.6094 490.83 15.0024 490.144 14.3388Z" fill="#FC8D4D"/>
<path d="M23.4006 19.4607C21.5908 16.9457 19.6146 14.4918 17.2171 12.3392C15.0745 15.2035 12.833 18.0417 11.148 21.1199C15.2825 20.9496 19.3858 20.2903 23.4006 19.4607Z" fill="#FC8D4D"/>
<path d="M127.933 59.6527C125.754 56.8582 123.804 53.8804 121.141 51.3872C119.695 54.8672 118.473 58.5786 118.801 62.2987C121.905 61.5739 125 60.7748 127.933 59.6527Z" fill="#FC8D4D"/>
<path d="M238.755 123.206C234.984 122.424 231.229 121.538 227.386 121.062C228.775 124.66 230.392 128.201 232.129 131.689C234.542 128.982 236.742 126.135 238.755 123.206Z" fill="#FC8D4D"/>
<path d="M32.2915 120.134C27.6214 120.422 22.9356 120.885 18.3695 121.775C20.8606 125.496 23.2269 129.29 25.9676 132.888C27.4757 130.827 28.391 128.53 29.5196 126.321C30.5233 124.286 31.6986 122.291 32.2915 120.134Z" fill="#FC8D4D"/>
<path d="M558.869 247.436C556.487 246.108 554.189 244.667 551.656 243.541C550.595 246.711 549.576 249.903 548.879 253.151C554.272 252.614 559.675 252.073 565.006 251.221C563.212 249.684 560.96 248.636 558.869 247.436Z" fill="#FC8D4D"/>
<path d="M80.2954 10.492C76.1661 9.44843 71.3763 11.9067 70.6119 15.4652C69.7538 18.9365 72.6349 22.8269 76.8942 23.3727C80.9194 24.032 85.1995 21.5999 85.8964 18.1986C86.8013 14.902 84.2114 11.3085 80.2954 10.492Z" fill="#0051B9"/>
<path d="M552.051 15.6883C546.819 14.2299 541.083 18.9062 542.326 23.3293C543.184 26.233 546.393 28.9139 550.153 28.6082C554.199 28.8004 557.72 25.792 557.886 22.4779C558.178 19.4171 555.525 16.4917 552.051 15.6883Z" fill="#0051B9"/>
<path d="M348.781 54.854C345.572 54.365 341.781 55.4304 340.351 58.0502C339.124 60.4298 339.051 63.5518 341.251 65.5603C343.851 68.1189 348.864 68.6953 352 66.4947C355.032 64.6565 356.155 60.9189 354.231 58.1725C353.124 56.4565 351.069 55.2033 348.781 54.854Z" fill="#0051B9"/>
<path d="M213.968 195.203C211.18 194.522 207.743 194.802 205.637 196.64C202.215 199.509 202.927 204.962 207.072 207.093C210.972 209.232 216.885 207.586 218.456 203.892C220.307 200.57 217.9 196.478 213.968 195.203Z" fill="#0051B9"/>
<path d="M575.4 318.929C572.784 317.763 569.227 319.37 568.936 321.837C568.499 324.531 572.363 326.862 575.244 325.544C578.307 324.365 578.526 320.138 575.4 318.929Z" fill="#0051B9"/>
<path d="M264.62 32.0708C263.158 31.4333 261.109 31.4726 259.882 32.4812C261.193 38.188 269.519 41.7509 275.884 39.6027C277.647 39.1268 279.369 38.2535 281.267 38.3714C282.785 38.7338 283.139 40.2227 283.826 41.2445C285.479 44.5934 290.201 46.7111 294.414 45.7374C296.707 45.2571 298.569 43.9472 300.093 42.4889C298.954 41.6374 297.789 40.7249 296.323 40.3013C294.424 40.5065 292.672 41.9867 290.696 41.2357C288.043 40.214 288.241 37.2798 286.296 35.7079C284.132 33.7475 280.601 33.5204 277.715 34.3238C275.109 34.8434 272.551 36.5113 269.789 35.5813C267.511 35.0836 266.222 33.3545 264.62 32.0708Z" fill="#3CC2AD"/>
<path d="M412.582 40.5895C411.973 40.3013 411.209 40.2839 410.98 40.9519C408.796 44.2179 407.485 47.9206 407.262 51.6625C407.241 52.6843 407.147 53.7671 407.693 54.7146C409.643 54.8456 411.838 54.9111 413.585 54.0815C414.251 51.7586 413.934 49.2611 415.062 47.0168C415.525 45.6457 416.779 44.4188 416.763 42.9779C415.614 41.9343 414.043 41.2838 412.582 40.5895Z" fill="#3CC2AD"/>
<path d="M551.589 108.158C550.054 104.866 546.279 102.028 541.931 101.954C540.672 102.831 541.156 104.552 541.307 105.77C542.716 106.975 545.119 107.241 546.066 108.892C548.291 111.852 544.791 115.454 547.126 118.375C548.962 120.943 553.081 121.296 556.227 120.545C558.188 120.008 558.656 118.148 559.129 116.686C556.768 116.009 554.043 116.734 551.828 115.839C552.02 113.289 552.774 110.625 551.589 108.158Z" fill="#3CC2AD"/>
<path d="M163.021 141.853C162.397 141.504 161.575 141.582 161.326 142.25C159.074 145.652 157.737 149.52 157.628 153.42C157.638 154.258 157.581 155.166 158.101 155.926C160.031 156.109 162.199 156.135 163.952 155.367C164.571 153.765 164.285 152.027 164.763 150.398C165.164 148.254 166.584 146.399 167.306 144.351C166.1 143.285 164.56 142.53 163.021 141.853Z" fill="#3CC2AD"/>
<path d="M263.183 275.495C263.241 273.884 262.887 272.259 262.331 270.723C257.421 270.731 252.964 273.639 250.291 276.979C251.966 278.045 253.666 279.128 255.591 279.853C257.25 279.01 258.357 277.512 260.219 276.918C261.186 276.442 262.601 276.364 263.183 275.495Z" fill="#F778E0"/>
<path d="M464.45 317.385C462.302 317.214 459.676 316.625 457.772 317.594C457.632 319.149 457.855 320.795 458.625 322.227C459.67 322.707 460.918 322.655 462.063 322.821C466.842 323.196 471.392 325.017 474.872 327.776C475.875 328.554 476.671 329.501 477.727 330.235C479.781 329.846 481.783 328.632 482.933 327.165C478.959 321.79 471.757 318.48 464.45 317.385Z" fill="#3CC2AD"/>
<path d="M140.918 316.981C138.427 316.632 135.795 316.344 133.325 316.942C132.878 318.339 133.242 319.841 133.731 321.203C134.162 322.295 135.863 322.02 136.908 322.264C141.891 322.644 146.774 324.382 150.321 327.382C151.345 328.207 152.214 329.198 153.451 329.814C155.131 328.962 157.191 328.216 158.278 326.845C157.882 325.487 156.452 324.557 155.376 323.552C151.449 320.251 146.394 317.859 140.918 316.981Z" fill="#3CC2AD"/>
<path d="M550.226 62.111C548.109 61.5914 545.873 61.5084 543.699 61.2246C542.493 65.7176 544.344 70.455 547.199 74.2625C548.822 76.0876 550.481 78.1529 553.013 79.1266C554.464 77.8079 555.78 76.3408 556.753 74.7428C556.664 73.8389 555.525 73.2757 554.917 72.5771C552.322 70.2498 550.808 67.1104 550.678 63.9274C550.538 63.3292 550.689 62.6131 550.226 62.111Z" fill="#F778E0"/>
<path d="M192.415 90.0597C190.756 88.6799 188.977 87.4049 187.152 86.1824C182.045 89.2126 175.352 88.4747 169.974 90.9766C166.204 92.5223 162.798 95.3735 162.434 99.0456C164.353 100.128 167.031 99.6307 169.22 99.491C170.578 98.4605 171.503 96.9847 173.272 96.3778C177.791 94.6749 182.971 94.8015 187.443 92.9764C189.321 92.2996 190.974 91.2648 192.415 90.0597Z" fill="#F778E0"/>
<path d="M454.551 103.762C452.855 102.43 451.097 101.155 449.272 99.9497C444.212 102.954 437.591 102.246 432.24 104.678C428.251 106.29 424.71 109.337 424.559 113.25C426.821 113.328 429.192 113.717 431.397 113.175C432.708 112.228 433.597 110.861 435.21 110.228C438.866 108.787 442.979 108.626 446.812 107.656C449.698 106.879 452.512 105.691 454.551 103.762Z" fill="#F778E0"/>
<path d="M402.061 301.458C398.249 298.795 391.701 300.668 390.437 304.659C389.085 308.047 392.039 311.89 396.174 312.475C399.731 313.182 403.408 311.553 405.155 308.929C403.075 310.436 400.709 312.2 397.739 311.986C394.083 312.029 390.89 309.069 391.42 306.004C391.748 302.803 396.174 300.485 399.731 301.742C402.544 302.602 403.902 305.816 402.113 307.894C400.693 309.776 397.094 310.313 395.258 308.567C393.646 307.231 394.021 304.554 396.304 303.925C398.139 303.188 400.568 304.69 399.939 306.397C399.596 307.702 396.735 307.51 397.162 306.048C397.604 305.912 398.498 305.641 398.94 305.506C397.937 305.148 396.465 304.515 395.82 305.668C394.957 307.598 397.9 309.239 399.835 308.165C402.633 306.973 401.567 303.161 398.649 302.69C395.248 301.825 391.769 304.934 393.022 307.737C394.005 310.977 399.32 311.759 402.081 309.628C405.15 307.681 405.077 303.415 402.061 301.458Z" fill="#F778E0"/>
<path d="M1893.59 6.33992C1895.33 4.53225 1896 2.2312 1896.55 0C1899.62 0.585089 1902.65 1.31863 1905.68 2.03035C1904.32 7.27868 1899.02 11.9638 1892.47 12.4004C1890.67 12.038 1889.22 10.9682 1887.68 10.1648C1889.79 9.06014 1892.08 8.06462 1893.59 6.33992Z" fill="#FFDA1A"/>
<path d="M2246.13 63.0759C2247.85 61.2683 2248.48 58.9716 2249.1 56.7666C2252.15 57.4041 2255.19 58.094 2258.21 58.8362C2256.77 64.0365 2251.59 68.7041 2245.06 69.1757C2243.21 68.8832 2241.73 67.7479 2240.16 66.9401C2242.31 65.8398 2244.63 64.8268 2246.13 63.0759Z" fill="#FFDA1A"/>
<path d="M2048.54 72.1228C2051.65 72.7035 2054.75 73.3803 2057.77 74.2492C2056.16 79.3011 2051.28 83.8944 2044.85 84.4926C2042.87 84.4009 2041.32 83.0954 2039.7 82.2571C2041.9 81.1306 2044.27 80.0652 2045.77 78.24C2047.4 76.4717 2048.01 74.2667 2048.54 72.1228Z" fill="#FFDA1A"/>
<path d="M1888.92 152.044C1892.03 152.625 1895.12 153.302 1898.15 154.162C1896.53 159.231 1891.63 163.838 1885.18 164.414C1883.21 164.287 1881.68 163.012 1880.06 162.17C1882.15 161.095 1884.41 160.117 1885.9 158.423C1887.68 156.611 1888.38 154.293 1888.92 152.044Z" fill="#FFDA1A"/>
<path d="M1971.55 142.51C1974.68 143.047 1977.79 143.715 1980.79 144.636C1979.15 149.692 1974.25 154.277 1967.82 154.853C1965.85 154.722 1964.28 153.469 1962.76 152.53C1964.83 151.544 1967.01 150.574 1968.48 148.946C1970.29 147.129 1971.02 144.789 1971.55 142.51Z" fill="#FFDA1A"/>
<path d="M1995.97 304.64C1999.09 305.016 2002.09 305.928 2005.12 306.631C2003.86 310.338 2001.14 313.844 1996.98 315.643C1995.28 316.329 1993.42 317.023 1991.5 316.897C1989.94 316.403 1988.52 315.63 1987.21 314.783C1988.8 313.5 1991.05 312.897 1992.43 311.395C1994.53 309.552 1995.17 307.011 1995.97 304.64Z" fill="#FFDA1A"/>
<path d="M2011.59 187.937C2014.71 188.312 2017.7 189.225 2020.74 189.928C2019.48 193.635 2016.76 197.141 2012.6 198.94C2010.9 199.625 2009.04 200.32 2007.12 200.193C2005.56 199.7 2004.14 198.927 2002.83 198.08C2004.42 196.796 2006.67 196.193 2008.05 194.691C2010.15 192.849 2010.79 190.308 2011.59 187.937Z" fill="#FFDA1A"/>
<path d="M1987.29 4.27443C1988.62 2.28775 1992.29 2.38818 1993.84 4.12598C1995.3 5.57123 1994.88 7.98145 1992.99 9.01627C1990.95 10.3174 1987.4 9.73235 1986.65 7.53172C1986.91 7.66707 1987.42 7.93778 1987.68 8.07751C1987.6 8.1692 1987.45 8.35258 1987.37 8.44428C1988.79 9.19092 1990.69 9.75855 1992.25 8.92021C1994.3 8.03385 1994.65 5.35728 1992.8 4.16527C1991.21 2.86411 1988.01 3.4623 1987.66 5.41841C1987.13 7.12565 1989.68 8.74556 1991.45 7.73257C1992.75 7.13438 1992.8 5.2132 1991.23 4.85952C1990.28 4.49712 1989.4 5.11277 1989.13 5.85505C1989.25 6.68028 1990.22 6.64098 1990.98 6.75451C1990.74 6.32224 1990.27 5.46644 1990.03 5.03418C1990.5 5.51884 1992.23 5.71969 1991.52 6.56239C1991.14 7.85919 1988.68 7.51425 1988.46 6.29168C1987.95 4.85079 1990.05 3.60639 1991.58 4.2526C1993.29 4.75473 1993.77 6.73268 1992.58 7.82863C1991.66 8.88092 1989.95 8.5971 1988.62 8.62767L1988.9 8.06441C1988.59 8.06441 1987.99 8.07314 1987.68 8.07751C1987.04 6.8986 1986.32 5.48391 1987.29 4.27443Z" fill="#FF1F1F"/>
<path d="M2168.36 13.1468C2169.85 12.7539 2171.62 12.8237 2172.93 13.6053C2175.25 14.9894 2175.06 18.4301 2172.52 19.561C2170.67 20.3687 2168.07 20.2159 2166.65 18.8405C2164.85 17.094 2165.58 13.8454 2168.36 13.1468Z" fill="#FF1F1F"/>
<path d="M2102.15 52.0247C2100.67 49.37 2103.24 46.0254 2106.7 45.973C2110.58 45.5844 2114.25 48.8329 2113.28 52.0771C2112.5 55.4916 2107.32 57.1857 2103.86 55.4261C2101.88 54.5921 2101.02 52.7976 2100.31 51.1515C2101.35 52.9198 2102.68 54.8279 2105.12 55.365C2108.2 56.3474 2112.05 54.531 2112.35 51.7147C2113.01 48.5753 2108.52 45.7983 2105.17 47.3571C2102.6 48.3527 2102.12 51.7409 2104.56 53.0639C2106.46 54.3869 2109.9 53.4394 2110.01 51.2475C2110.34 49.6495 2108.02 48.2653 2106.35 49.1037C2105.36 49.5228 2104.81 50.9419 2105.86 51.5313C2106.42 52.099 2108.08 51.5313 2107.63 50.7541C2107.28 50.6057 2106.58 50.3088 2106.23 50.1603C2107.1 49.9464 2108.33 49.5228 2108.81 50.4791C2109.42 52.278 2106.51 53.4744 2105.02 52.2125C2102.95 50.7803 2104.7 47.7457 2107.26 47.8767C2110.38 47.6933 2112.4 51.0467 2110.49 53.1032C2108.45 55.6968 2103.37 54.7799 2102.15 52.0247Z" fill="#FF1F1F"/>
<path d="M2305.02 58.7926C2307.35 57.7359 2310.43 59.5436 2309.95 61.7486C2309.79 64.3771 2305.08 64.9185 2303.54 62.8838C2302.39 61.5041 2303.21 59.4301 2305.02 58.7926Z" fill="#FF1F1F"/>
<path d="M1824.96 64.9272C1826.15 62.4428 1828.97 60.6264 1832.09 60.1679C1836.58 59.4562 1841.48 61.3075 1843.79 64.6259C1845.68 67.2632 1845.76 70.7301 1844 73.4285C1842.44 75.8736 1839.49 77.6201 1836.26 78.1616C1832.11 78.8995 1827.55 77.6289 1824.84 74.8737C1823.24 73.3499 1822.45 71.3763 1822.19 69.3852C1822.97 72.184 1824.96 74.7776 1828.02 76.1661C1831.53 77.8996 1836.28 77.9389 1839.61 75.8518C1843.07 73.804 1844.42 69.6516 1842.69 66.4118C1840.81 62.7266 1835.17 60.6482 1830.77 62.4035C1827.07 63.709 1825.24 67.7697 1827.13 70.765C1828.74 73.5289 1833.27 74.9174 1836.47 73.2363C1839.19 71.957 1840.2 68.4377 1837.93 66.4903C1836.31 64.9665 1833.08 64.7656 1831.5 66.4379C1830.39 67.499 1830.19 69.5293 1831.89 70.2541C1833.28 71.0706 1835.78 69.8044 1834.76 68.3897C1834.17 68.3722 1833.01 68.3417 1832.44 68.3242C1833.2 67.4204 1834.52 66.4991 1835.86 67.237C1838.33 68.5076 1836.64 71.8347 1834.11 72.1447C1830.72 72.8783 1827.52 69.7695 1828.7 67.0405C1829.66 63.6435 1835.02 62.4995 1838.19 64.4731C1841.88 66.3375 1842.3 71.0051 1839.42 73.5551C1836.37 76.5067 1830.54 76.284 1827.3 73.6861C1824.37 71.5815 1823.45 67.8832 1824.96 64.9272Z" fill="#FF1F1F"/>
<path d="M1936.93 96.832C1938.15 93.9938 1942.75 93.2428 1945.52 94.937C1948.4 96.4084 1949.11 100.046 1946.94 102.207C1944.93 104.394 1940.86 104.831 1938.19 103.259C1936.67 102.456 1935.94 101.024 1935.25 99.7094C1936.42 101.281 1937.75 103.01 1940.06 103.482C1943.14 104.377 1946.94 102.556 1947.17 99.7356C1947.68 96.9586 1944.22 94.4217 1941.01 95.1247C1938.46 95.5308 1936.88 98.2117 1938.25 100.115C1939.34 101.862 1942.62 102.403 1944.15 100.766C1945.42 99.5871 1944.88 97.3559 1942.9 97.0153C1941.39 96.5438 1939.56 97.941 1940.27 99.2291C1940.62 100.163 1942.79 99.9932 1942.47 98.8579C1942.11 98.7182 1941.4 98.4388 1941.05 98.299C1941.77 98.1506 1942.57 97.7183 1943.29 98.155C1944.57 99.443 1942.54 101.342 1940.81 100.731C1938.72 100.303 1938.34 97.8537 1939.86 96.7359C1941.69 95.1902 1945.09 96.1333 1945.83 98.1331C1946.78 100.281 1944.59 102.775 1941.89 102.735C1938.34 102.958 1935.46 99.5827 1936.93 96.832Z" fill="#FF1F1F"/>
<path d="M2202.59 103.438C2205.5 102.085 2209.42 104.294 2208.97 107.071C2208.82 109.839 2204.53 111.429 2201.96 109.708C2199.32 108.25 2199.68 104.508 2202.59 103.438Z" fill="#FF1F1F"/>
<path d="M1754.34 195.197C1758.58 194.153 1763.2 197.712 1762.32 201.349C1761.46 204.31 1757.95 207.021 1754.14 206.44C1751.69 206.174 1750.13 204.432 1748.85 202.838C1748.86 201.65 1748.86 200.463 1748.85 199.28C1750.23 197.572 1751.8 195.695 1754.34 195.197Z" fill="#FF1F1F"/>
<path d="M2174.36 215.764C2176.38 215.484 2178.76 215.58 2180.28 216.903C2182.35 218.523 2182.69 221.484 2180.87 223.344C2178.38 225.972 2172.7 225.702 2170.73 222.733C2168.9 220.161 2170.8 216.323 2174.36 215.764Z" fill="#FFDA1A"/>
<path d="M1994.05 232.305C1995.83 231.768 1997.97 231.62 1999.63 232.515C2002.01 233.772 2002.68 236.689 2001.25 238.676C1999.14 241.566 1993.05 241.265 1991.46 238.121C1990.54 236.047 1991.37 233.122 1994.05 232.305Z" fill="#FF1F1F"/>
<path d="M2130.83 307.435C2133.31 305.094 2138.22 305.741 2140.15 308.308C2141.86 310.382 2141.25 313.5 2138.81 314.997C2136.42 316.608 2132.68 316.504 2130.43 314.761C2129.1 313.836 2128.66 312.377 2128.09 311.076C2128.98 312.683 2129.97 314.447 2132.08 315.137C2135.13 316.499 2139.51 314.988 2140.02 312.006C2140.79 309.229 2137.51 306.478 2134.22 307.016C2131.83 307.264 2130.07 309.474 2130.83 311.421C2131.47 313.386 2134.67 314.447 2136.6 313.089C2138.19 312.111 2138.15 309.71 2136.2 309.063C2134.68 308.339 2132.45 309.67 2133.15 311.107C2133.47 312.054 2135.15 311.936 2135.55 311.063C2135.15 310.849 2134.37 310.421 2133.98 310.207C2134.75 310.011 2135.76 309.574 2136.38 310.282C2137.31 311.714 2135.16 313.299 2133.52 312.618C2131.25 311.98 2131.38 309.133 2133.37 308.286C2135.93 306.976 2139.49 309.142 2138.9 311.591C2138.63 314.233 2134.65 315.495 2132.12 314.133C2129.24 312.91 2128.59 309.356 2130.83 307.435Z" fill="#FF1F1F"/>
<path d="M2035.16 383.326C2034.06 380.614 2036.83 377.575 2040.22 377.68C2044.03 377.466 2047.47 380.719 2046.44 383.88C2045.63 387.181 2040.66 388.84 2037.24 387.229C2035.26 386.469 2034.3 384.736 2033.62 383.116C2034.68 384.841 2036.09 386.666 2038.52 387.137C2041.75 388.067 2045.66 385.928 2045.57 382.985C2045.88 379.667 2040.58 377.265 2037.56 379.536C2035.09 381.134 2036.04 384.88 2039.19 385.321C2041.63 385.963 2044.21 383.553 2042.87 381.645C2041.98 380.108 2038.74 380.269 2038.52 382.107C2038.12 383.47 2040.51 383.985 2041.05 382.688C2040.68 382.479 2039.95 382.059 2039.58 381.854C2040.46 381.365 2042.02 381.448 2042.07 382.561C2042.24 384.452 2039.05 385.081 2037.87 383.636C2036.08 381.793 2038.68 379.007 2041.27 379.653C2044.26 380.012 2045.43 383.426 2043.34 385.181C2040.93 387.5 2036.05 386.159 2035.16 383.326Z" fill="#FF1F1F"/>
<path d="M2074.86 12.2782C2077.79 9.33532 2080.87 6.47537 2084.2 3.83374C2085.77 6.5234 2087.56 9.1563 2088.72 11.9944C2087.93 12.5315 2086.84 12.3524 2085.91 12.4223C2082.23 12.3655 2078.53 12.5227 2074.86 12.2782Z" fill="#FC8D4D"/>
<path d="M1819.86 14.3388C1822.28 12.256 1824.51 10.0161 1827 7.99011C1828.81 10.6972 1830.44 13.5048 1831.77 16.4128C1827.21 16.7184 1822.62 16.6354 1818.05 16.5088C1818.28 15.6094 1819.17 15.0024 1819.86 14.3388Z" fill="#FC8D4D"/>
<path d="M2286.6 19.4607C2288.41 16.9457 2290.39 14.4918 2292.78 12.3392C2294.93 15.2035 2297.17 18.0417 2298.85 21.1199C2294.72 20.9496 2290.61 20.2903 2286.6 19.4607Z" fill="#FC8D4D"/>
<path d="M2182.07 59.6527C2184.25 56.8582 2186.2 53.8804 2188.86 51.3872C2190.3 54.8672 2191.53 58.5786 2191.2 62.2987C2188.09 61.5739 2185 60.7748 2182.07 59.6527Z" fill="#FC8D4D"/>
<path d="M2071.25 123.206C2075.02 122.424 2078.77 121.538 2082.61 121.062C2081.23 124.66 2079.61 128.201 2077.87 131.689C2075.46 128.982 2073.26 126.135 2071.25 123.206Z" fill="#FC8D4D"/>
<path d="M2277.71 120.134C2282.38 120.422 2287.06 120.885 2291.63 121.775C2289.14 125.496 2286.77 129.29 2284.03 132.888C2282.52 130.827 2281.61 128.53 2280.48 126.321C2279.48 124.286 2278.3 122.291 2277.71 120.134Z" fill="#FC8D4D"/>
<path d="M1751.13 247.436C1753.51 246.108 1755.81 244.667 1758.34 243.541C1759.4 246.711 1760.42 249.903 1761.12 253.151C1755.73 252.614 1750.32 252.073 1744.99 251.221C1746.79 249.684 1749.04 248.636 1751.13 247.436Z" fill="#FC8D4D"/>
<path d="M2229.7 10.492C2233.83 9.44843 2238.62 11.9067 2239.39 15.4652C2240.25 18.9365 2237.36 22.8269 2233.11 23.3727C2229.08 24.032 2224.8 21.5999 2224.1 18.1986C2223.2 14.902 2225.79 11.3085 2229.7 10.492Z" fill="#0051B9"/>
<path d="M1757.95 15.6883C1763.18 14.2299 1768.92 18.9062 1767.67 23.3293C1766.82 26.233 1763.61 28.9139 1759.85 28.6082C1755.8 28.8004 1752.28 25.792 1752.11 22.4779C1751.82 19.4171 1754.47 16.4917 1757.95 15.6883Z" fill="#0051B9"/>
<path d="M1961.22 54.854C1964.43 54.365 1968.22 55.4304 1969.65 58.0502C1970.88 60.4298 1970.95 63.5518 1968.75 65.5603C1966.15 68.1189 1961.14 68.6953 1958 66.4947C1954.97 64.6565 1953.84 60.9189 1955.77 58.1725C1956.88 56.4565 1958.93 55.2033 1961.22 54.854Z" fill="#0051B9"/>
<path d="M2096.03 195.203C2098.82 194.522 2102.26 194.802 2104.36 196.64C2107.79 199.509 2107.07 204.962 2102.93 207.093C2099.03 209.232 2093.11 207.586 2091.54 203.892C2089.69 200.57 2092.1 196.478 2096.03 195.203Z" fill="#0051B9"/>
<path d="M1734.6 318.929C1737.22 317.763 1740.77 319.37 1741.06 321.837C1741.5 324.531 1737.64 326.862 1734.76 325.544C1731.69 324.365 1731.47 320.138 1734.6 318.929Z" fill="#0051B9"/>
<path d="M2045.38 32.0708C2046.84 31.4333 2048.89 31.4726 2050.12 32.4812C2048.81 38.188 2040.48 41.7509 2034.12 39.6027C2032.35 39.1268 2030.63 38.2535 2028.73 38.3714C2027.21 38.7338 2026.86 40.2227 2026.17 41.2445C2024.52 44.5934 2019.8 46.7111 2015.59 45.7374C2013.29 45.2571 2011.43 43.9472 2009.91 42.4889C2011.05 41.6374 2012.21 40.7249 2013.68 40.3013C2015.58 40.5065 2017.33 41.9867 2019.3 41.2357C2021.96 40.214 2021.76 37.2798 2023.7 35.7079C2025.87 33.7475 2029.4 33.5204 2032.28 34.3238C2034.89 34.8434 2037.45 36.5113 2040.21 35.5813C2042.49 35.0836 2043.78 33.3545 2045.38 32.0708Z" fill="#3CC2AD"/>
<path d="M1897.42 40.5895C1898.03 40.3013 1898.79 40.2839 1899.02 40.9519C1901.2 44.2179 1902.51 47.9206 1902.74 51.6625C1902.76 52.6843 1902.85 53.7671 1902.31 54.7146C1900.36 54.8456 1898.16 54.9111 1896.41 54.0815C1895.75 51.7586 1896.07 49.2611 1894.94 47.0168C1894.47 45.6457 1893.22 44.4188 1893.24 42.9779C1894.39 41.9343 1895.96 41.2838 1897.42 40.5895Z" fill="#3CC2AD"/>
<path d="M1758.41 108.158C1759.95 104.866 1763.72 102.028 1768.07 101.954C1769.33 102.831 1768.84 104.552 1768.69 105.77C1767.28 106.975 1764.88 107.241 1763.93 108.892C1761.71 111.852 1765.21 115.454 1762.87 118.375C1761.04 120.943 1756.92 121.296 1753.77 120.545C1751.81 120.008 1751.34 118.148 1750.87 116.686C1753.23 116.009 1755.96 116.734 1758.17 115.839C1757.98 113.289 1757.23 110.625 1758.41 108.158Z" fill="#3CC2AD"/>
<path d="M2146.98 141.853C2147.6 141.504 2148.42 141.582 2148.67 142.25C2150.93 145.652 2152.26 149.52 2152.37 153.42C2152.36 154.258 2152.42 155.166 2151.9 155.926C2149.97 156.109 2147.8 156.135 2146.05 155.367C2145.43 153.765 2145.71 152.027 2145.24 150.398C2144.84 148.254 2143.42 146.399 2142.69 144.351C2143.9 143.285 2145.44 142.53 2146.98 141.853Z" fill="#3CC2AD"/>
<path d="M1822.45 177.627C1823.54 176.203 1823.88 174.496 1824.82 173.016C1827.33 173.125 1830.13 173.094 1832.41 174.007C1831.59 179.827 1827.04 185.372 1820.73 187.957C1819 186.324 1818.17 184.159 1816.95 182.242C1818.98 180.884 1821.11 179.535 1822.45 177.627Z" fill="#3CC2AD"/>
<path d="M2046.82 275.495C2046.76 273.884 2047.11 272.259 2047.67 270.723C2052.58 270.731 2057.04 273.639 2059.71 276.979C2058.03 278.045 2056.33 279.128 2054.41 279.853C2052.75 279.01 2051.64 277.512 2049.78 276.918C2048.81 276.442 2047.4 276.364 2046.82 275.495Z" fill="#F778E0"/>
<path d="M1845.55 317.385C1847.7 317.214 1850.32 316.625 1852.23 317.594C1852.37 319.149 1852.14 320.795 1851.37 322.227C1850.33 322.707 1849.08 322.655 1847.94 322.821C1843.16 323.196 1838.61 325.017 1835.13 327.776C1834.12 328.554 1833.33 329.501 1832.27 330.235C1830.22 329.846 1828.22 328.632 1827.07 327.165C1831.04 321.79 1838.24 318.48 1845.55 317.385Z" fill="#3CC2AD"/>
<path d="M2169.08 316.981C2171.57 316.632 2174.2 316.344 2176.67 316.942C2177.12 318.339 2176.76 319.841 2176.27 321.203C2175.84 322.295 2174.14 322.02 2173.09 322.264C2168.11 322.644 2163.23 324.382 2159.68 327.382C2158.65 328.207 2157.79 329.198 2156.55 329.814C2154.87 328.962 2152.81 328.216 2151.72 326.845C2152.12 325.487 2153.55 324.557 2154.62 323.552C2158.55 320.251 2163.61 317.859 2169.08 316.981Z" fill="#3CC2AD"/>
<path d="M1759.77 62.111C1761.89 61.5914 1764.13 61.5084 1766.3 61.2246C1767.51 65.7176 1765.66 70.455 1762.8 74.2625C1761.18 76.0876 1759.52 78.1529 1756.99 79.1266C1755.54 77.8079 1754.22 76.3408 1753.25 74.7428C1753.34 73.8389 1754.47 73.2757 1755.08 72.5771C1757.68 70.2498 1759.19 67.1104 1759.32 63.9274C1759.46 63.3292 1759.31 62.6131 1759.77 62.111Z" fill="#F778E0"/>
<path d="M2117.58 90.0597C2119.24 88.6799 2121.02 87.4049 2122.85 86.1824C2127.95 89.2126 2134.65 88.4747 2140.03 90.9766C2143.8 92.5223 2147.2 95.3735 2147.57 99.0456C2145.65 100.128 2142.97 99.6307 2140.78 99.491C2139.42 98.4605 2138.5 96.9847 2136.73 96.3778C2132.21 94.6749 2127.03 94.8015 2122.56 92.9764C2120.68 92.2996 2119.03 91.2648 2117.58 90.0597Z" fill="#F778E0"/>
<path d="M1855.45 103.762C1857.14 102.43 1858.9 101.155 1860.73 99.9497C1865.79 102.954 1872.41 102.246 1877.76 104.678C1881.75 106.29 1885.29 109.337 1885.44 113.25C1883.18 113.328 1880.81 113.717 1878.6 113.175C1877.29 112.228 1876.4 110.861 1874.79 110.228C1871.13 108.787 1867.02 108.626 1863.19 107.656C1860.3 106.879 1857.49 105.691 1855.45 103.762Z" fill="#F778E0"/>
<path d="M1878.62 217.903C1884.39 217.078 1890.64 218.077 1895.38 221.02C1894.64 223.212 1892.35 224.745 1890.91 226.631C1888.21 225.531 1885.35 224.422 1882.26 224.575C1879.75 224.522 1877.48 225.649 1875.01 225.819C1873.11 224.435 1871.88 222.391 1870.7 220.531C1872.94 219.003 1875.83 218.344 1878.62 217.903Z" fill="#F778E0"/>
<path d="M1907.94 301.458C1911.75 298.795 1918.3 300.668 1919.56 304.659C1920.91 308.047 1917.96 311.89 1913.83 312.475C1910.27 313.182 1906.59 311.553 1904.84 308.929C1906.92 310.436 1909.29 312.2 1912.26 311.986C1915.92 312.029 1919.11 309.069 1918.58 306.004C1918.25 302.803 1913.83 300.485 1910.27 301.742C1907.46 302.602 1906.1 305.816 1907.89 307.894C1909.31 309.776 1912.91 310.313 1914.74 308.567C1916.35 307.231 1915.98 304.554 1913.7 303.925C1911.86 303.188 1909.43 304.69 1910.06 306.397C1910.4 307.702 1913.26 307.51 1912.84 306.048C1912.4 305.912 1911.5 305.641 1911.06 305.506C1912.06 305.148 1913.53 304.515 1914.18 305.668C1915.04 307.598 1912.1 309.239 1910.16 308.165C1907.37 306.973 1908.43 303.161 1911.35 302.69C1914.75 301.825 1918.23 304.934 1916.98 307.737C1915.99 310.977 1910.68 311.759 1907.92 309.628C1904.85 307.681 1904.92 303.415 1907.94 301.458Z" fill="#F778E0"/>
<path d="M1571.41 6.33992C1569.67 4.53225 1569 2.2312 1568.44 0C1565.38 0.585089 1562.35 1.31863 1559.32 2.03035C1560.68 7.27868 1565.98 11.9638 1572.53 12.4004C1574.33 12.038 1575.78 10.9682 1577.32 10.1648C1575.21 9.06014 1572.92 8.06462 1571.41 6.33992Z" fill="#FFDA1A"/>
<path d="M1218.87 63.0759C1217.14 61.2683 1216.51 58.9716 1215.9 56.7666C1212.85 57.4041 1209.81 58.094 1206.78 58.8362C1208.23 64.0365 1213.41 68.7041 1219.94 69.1757C1221.79 68.8832 1223.27 67.7479 1224.84 66.9401C1222.69 65.8398 1220.37 64.8268 1218.87 63.0759Z" fill="#FFDA1A"/>
<path d="M1416.46 72.1228C1413.35 72.7035 1410.25 73.3803 1407.23 74.2492C1408.84 79.3011 1413.72 83.8944 1420.14 84.4926C1422.13 84.4009 1423.68 83.0954 1425.3 82.2571C1423.1 81.1306 1420.73 80.0652 1419.23 78.24C1417.6 76.4717 1416.99 74.2667 1416.46 72.1228Z" fill="#FFDA1A"/>
<path d="M1712.84 152.201C1711.1 150.394 1710.41 148.097 1709.87 145.87C1706.8 146.442 1703.77 147.18 1700.74 147.887C1702.09 153.145 1707.43 157.851 1713.99 158.253C1715.77 157.869 1717.22 156.83 1718.74 156.018C1716.63 154.917 1714.34 153.917 1712.84 152.201Z" fill="#FFDA1A"/>
<path d="M1576.07 152.044C1572.96 152.625 1569.88 153.302 1566.85 154.162C1568.47 159.231 1573.37 163.838 1579.82 164.414C1581.79 164.287 1583.32 163.012 1584.94 162.17C1582.85 161.095 1580.59 160.117 1579.1 158.423C1577.32 156.611 1576.62 154.293 1576.07 152.044Z" fill="#FFDA1A"/>
<path d="M1469.03 304.64C1465.91 305.016 1462.91 305.928 1459.88 306.631C1461.14 310.338 1463.85 313.844 1468.02 315.643C1469.72 316.329 1471.58 317.023 1473.5 316.897C1475.06 316.403 1476.48 315.63 1477.79 314.783C1476.2 313.5 1473.95 312.897 1472.57 311.395C1470.47 309.552 1469.83 307.011 1469.03 304.64Z" fill="#FFDA1A"/>
<path d="M1453.41 187.937C1450.29 188.312 1447.29 189.225 1444.26 189.928C1445.52 193.635 1448.24 197.141 1452.4 198.94C1454.1 199.625 1455.96 200.32 1457.88 200.193C1459.44 199.7 1460.86 198.927 1462.17 198.08C1460.58 196.796 1458.33 196.193 1456.95 194.691C1454.85 192.849 1454.21 190.308 1453.41 187.937Z" fill="#FFDA1A"/>
<path d="M1477.71 4.27443C1476.38 2.28775 1472.71 2.38818 1471.16 4.12598C1469.7 5.57123 1470.12 7.98145 1472.01 9.01627C1474.05 10.3174 1477.6 9.73235 1478.35 7.53172C1478.09 7.66707 1477.58 7.93778 1477.32 8.07751C1477.4 8.1692 1477.55 8.35258 1477.63 8.44428C1476.21 9.19092 1474.31 9.75855 1472.75 8.92021C1470.7 8.03385 1470.35 5.35728 1472.2 4.16527C1473.79 2.86411 1476.99 3.4623 1477.34 5.41841C1477.87 7.12565 1475.32 8.74556 1473.55 7.73257C1472.25 7.13438 1472.2 5.2132 1473.77 4.85952C1474.71 4.49712 1475.6 5.11277 1475.87 5.85505C1475.74 6.68028 1474.78 6.64098 1474.02 6.75451C1474.26 6.32224 1474.73 5.46644 1474.97 5.03418C1474.5 5.51884 1472.76 5.71969 1473.48 6.56239C1473.86 7.85919 1476.32 7.51425 1476.54 6.29168C1477.04 4.85079 1474.95 3.60639 1473.41 4.2526C1471.71 4.75473 1471.23 6.73268 1472.42 7.82863C1473.34 8.88092 1475.05 8.5971 1476.38 8.62767L1476.1 8.06441C1476.41 8.06441 1477.01 8.07314 1477.32 8.07751C1477.95 6.8986 1478.68 5.48391 1477.71 4.27443Z" fill="#FF1F1F"/>
<path d="M1296.64 13.1468C1295.15 12.7539 1293.38 12.8237 1292.06 13.6053C1289.75 14.9894 1289.94 18.4301 1292.48 19.561C1294.33 20.3687 1296.93 20.2159 1298.35 18.8405C1300.15 17.094 1299.42 13.8454 1296.64 13.1468Z" fill="#FF1F1F"/>
<path d="M1362.85 52.0247C1364.33 49.37 1361.76 46.0254 1358.3 45.973C1354.42 45.5844 1350.75 48.8329 1351.72 52.0771C1352.5 55.4916 1357.68 57.1857 1361.14 55.4261C1363.12 54.5921 1363.98 52.7976 1364.69 51.1515C1363.65 52.9198 1362.32 54.8279 1359.87 55.365C1356.8 56.3474 1352.95 54.531 1352.65 51.7147C1351.99 48.5753 1356.48 45.7983 1359.83 47.3571C1362.4 48.3527 1362.88 51.7409 1360.44 53.0639C1358.54 54.3869 1355.1 53.4394 1354.99 51.2475C1354.66 49.6495 1356.98 48.2653 1358.65 49.1037C1359.64 49.5228 1360.19 50.9419 1359.14 51.5313C1358.57 52.099 1356.92 51.5313 1357.37 50.7541C1357.72 50.6057 1358.42 50.3088 1358.77 50.1603C1357.9 49.9464 1356.67 49.5228 1356.19 50.4791C1355.58 52.278 1358.49 53.4744 1359.98 52.2125C1362.05 50.7803 1360.3 47.7457 1357.74 47.8767C1354.62 47.6933 1352.6 51.0467 1354.51 53.1032C1356.55 55.6968 1361.63 54.7799 1362.85 52.0247Z" fill="#FF1F1F"/>
<path d="M1159.97 58.7926C1157.65 57.7359 1154.57 59.5436 1155.05 61.7486C1155.21 64.3771 1159.92 64.9185 1161.46 62.8838C1162.61 61.5041 1161.79 59.4301 1159.97 58.7926Z" fill="#FF1F1F"/>
<path d="M1640.04 64.9272C1638.85 62.4428 1636.03 60.6264 1632.91 60.1679C1628.42 59.4562 1623.52 61.3075 1621.2 64.6259C1619.32 67.2632 1619.24 70.7301 1621 73.4285C1622.56 75.8736 1625.51 77.6201 1628.74 78.1616C1632.89 78.8995 1637.45 77.6289 1640.16 74.8737C1641.76 73.3499 1642.55 71.3763 1642.81 69.3852C1642.03 72.184 1640.04 74.7776 1636.98 76.1661C1633.47 77.8996 1628.71 77.9389 1625.39 75.8518C1621.93 73.804 1620.58 69.6516 1622.31 66.4118C1624.18 62.7266 1629.83 60.6482 1634.23 62.4035C1637.92 63.709 1639.76 67.7697 1637.87 70.765C1636.26 73.5289 1631.73 74.9174 1628.53 73.2363C1625.81 71.957 1624.8 68.4377 1627.07 66.4903C1628.69 64.9665 1631.92 64.7656 1633.5 66.4379C1634.61 67.499 1634.8 69.5293 1633.11 70.2541C1631.71 71.0706 1629.22 69.8044 1630.24 68.3897C1630.83 68.3722 1631.99 68.3417 1632.56 68.3242C1631.8 67.4204 1630.48 66.4991 1629.14 67.237C1626.67 68.5076 1628.36 71.8347 1630.89 72.1447C1634.28 72.8783 1637.48 69.7695 1636.3 67.0405C1635.34 63.6435 1629.98 62.4995 1626.81 64.4731C1623.12 66.3375 1622.7 71.0051 1625.58 73.5551C1628.63 76.5067 1634.46 76.284 1637.7 73.6861C1640.63 71.5815 1641.54 67.8832 1640.04 64.9272Z" fill="#FF1F1F"/>
<path d="M1528.07 96.832C1526.85 93.9938 1522.25 93.2428 1519.48 94.937C1516.59 96.4084 1515.89 100.046 1518.06 102.207C1520.07 104.394 1524.14 104.831 1526.81 103.259C1528.33 102.456 1529.06 101.024 1529.75 99.7094C1528.58 101.281 1527.25 103.01 1524.94 103.482C1521.86 104.377 1518.06 102.556 1517.83 99.7356C1517.32 96.9586 1520.78 94.4217 1523.99 95.1247C1526.54 95.5308 1528.12 98.2117 1526.75 100.115C1525.66 101.862 1522.38 102.403 1520.85 100.766C1519.58 99.5871 1520.12 97.3559 1522.1 97.0153C1523.61 96.5438 1525.44 97.941 1524.73 99.2291C1524.38 100.163 1522.21 99.9932 1522.53 98.8579C1522.89 98.7182 1523.6 98.4388 1523.95 98.299C1523.23 98.1506 1522.43 97.7183 1521.71 98.155C1520.43 99.443 1522.46 101.342 1524.19 100.731C1526.28 100.303 1526.66 97.8537 1525.14 96.7359C1523.31 95.1902 1519.91 96.1333 1519.17 98.1331C1518.22 100.281 1520.41 102.775 1523.11 102.735C1526.66 102.958 1529.54 99.5827 1528.07 96.832Z" fill="#FF1F1F"/>
<path d="M1262.41 103.438C1259.5 102.085 1255.58 104.294 1256.03 107.071C1256.17 109.839 1260.47 111.429 1263.03 109.708C1265.68 108.25 1265.32 104.508 1262.41 103.438Z" fill="#FF1F1F"/>
<path d="M1710.66 195.197C1706.42 194.153 1701.8 197.712 1702.68 201.349C1703.54 204.31 1707.05 207.021 1710.86 206.44C1713.31 206.174 1714.87 204.432 1716.15 202.838C1716.14 201.65 1716.14 200.463 1716.15 199.28C1714.77 197.572 1713.2 195.695 1710.66 195.197Z" fill="#FF1F1F"/>
<path d="M1290.64 215.764C1288.61 215.484 1286.24 215.58 1284.72 216.903C1282.64 218.523 1282.31 221.484 1284.13 223.344C1286.62 225.972 1292.3 225.702 1294.27 222.733C1296.1 220.161 1294.2 216.323 1290.64 215.764Z" fill="#FFDA1A"/>
<path d="M1470.94 232.305C1469.17 231.768 1467.03 231.62 1465.37 232.515C1462.99 233.772 1462.32 236.689 1463.75 238.676C1465.86 241.566 1471.95 241.265 1473.54 238.121C1474.45 236.047 1473.63 233.122 1470.94 232.305Z" fill="#FF1F1F"/>
<path d="M1650.48 231.56C1650.81 229.656 1648.61 227.953 1646.38 228.254C1643.95 228.377 1642.03 230.529 1642.7 232.516C1643.26 234.542 1646.12 235.629 1648.38 234.935C1649.95 234.507 1650.69 233.149 1651.59 232.101C1650.29 233.044 1649.45 234.699 1647.47 234.743C1645.1 235.136 1642.76 233.175 1643.34 231.184C1643.78 229.08 1647.43 228.054 1649.07 229.809C1650.41 231.058 1649.43 233.315 1647.4 233.455C1645.67 233.795 1644.05 231.861 1645.31 230.713C1646.19 229.73 1648.33 230.307 1648.11 231.599C1647.75 232.485 1646.75 231.931 1646.07 231.743C1646.46 231.573 1647.23 231.224 1647.62 231.053C1646.85 230.988 1645.86 230.66 1645.57 231.551C1645.62 232.918 1647.89 233.293 1648.64 232.136C1649.63 230.796 1647.75 229.101 1646.05 229.604C1643.94 229.962 1643.39 232.485 1645.05 233.559C1646.99 234.974 1650.3 233.642 1650.48 231.56Z" fill="#FF1F1F"/>
<path d="M1334.17 307.435C1331.69 305.094 1326.78 305.741 1324.85 308.308C1323.14 310.382 1323.75 313.5 1326.18 314.997C1328.58 316.608 1332.32 316.504 1334.57 314.761C1335.9 313.836 1336.34 312.377 1336.91 311.076C1336.02 312.683 1335.03 314.447 1332.92 315.137C1329.87 316.499 1325.49 314.988 1324.98 312.006C1324.21 309.229 1327.48 306.478 1330.78 307.016C1333.17 307.264 1334.93 309.474 1334.17 311.421C1333.53 313.386 1330.33 314.447 1328.39 313.089C1326.81 312.111 1326.84 309.71 1328.79 309.063C1330.32 308.339 1332.54 309.67 1331.85 311.107C1331.53 312.054 1329.85 311.936 1329.45 311.063C1329.85 310.849 1330.63 310.421 1331.02 310.207C1330.25 310.011 1329.24 309.574 1328.62 310.282C1327.69 311.714 1329.84 313.299 1331.48 312.618C1333.75 311.98 1333.62 309.133 1331.63 308.286C1329.07 306.976 1325.51 309.142 1326.1 311.591C1326.37 314.233 1330.35 315.495 1332.88 314.133C1335.76 312.91 1336.41 309.356 1334.17 307.435Z" fill="#FF1F1F"/>
<path d="M1429.84 383.326C1430.93 380.614 1428.17 377.575 1424.78 377.68C1420.97 377.466 1417.53 380.719 1418.56 383.88C1419.37 387.181 1424.34 388.84 1427.76 387.229C1429.74 386.469 1430.7 384.736 1431.38 383.116C1430.32 384.841 1428.91 386.666 1426.48 387.137C1423.25 388.067 1419.34 385.928 1419.43 382.985C1419.12 379.667 1424.42 377.265 1427.44 379.536C1429.91 381.134 1428.96 384.88 1425.81 385.321C1423.37 385.963 1420.79 383.553 1422.12 381.645C1423.02 380.108 1426.26 380.269 1426.48 382.107C1426.88 383.47 1424.49 383.985 1423.95 382.688C1424.32 382.479 1425.05 382.059 1425.42 381.854C1424.54 381.365 1422.98 381.448 1422.93 382.561C1422.76 384.452 1425.95 385.081 1427.13 383.636C1428.92 381.793 1426.32 379.007 1423.73 379.653C1420.74 380.012 1419.57 383.426 1421.66 385.181C1424.06 387.5 1428.95 386.159 1429.84 383.326Z" fill="#FF1F1F"/>
<path d="M1390.14 12.2782C1387.21 9.33532 1384.13 6.47537 1380.8 3.83374C1379.23 6.5234 1377.44 9.1563 1376.28 11.9944C1377.07 12.5315 1378.16 12.3524 1379.09 12.4223C1382.77 12.3655 1386.47 12.5227 1390.14 12.2782Z" fill="#FC8D4D"/>
<path d="M1645.14 14.3388C1642.72 12.256 1640.49 10.0161 1638 7.99011C1636.19 10.6972 1634.56 13.5048 1633.23 16.4128C1637.78 16.7184 1642.38 16.6354 1646.95 16.5088C1646.72 15.6094 1645.83 15.0024 1645.14 14.3388Z" fill="#FC8D4D"/>
<path d="M1178.4 19.4607C1176.59 16.9457 1174.61 14.4918 1172.22 12.3392C1170.07 15.2035 1167.83 18.0417 1166.15 21.1199C1170.28 20.9496 1174.39 20.2903 1178.4 19.4607Z" fill="#FC8D4D"/>
<path d="M1282.93 59.6527C1280.75 56.8582 1278.8 53.8804 1276.14 51.3872C1274.69 54.8672 1273.47 58.5786 1273.8 62.2987C1276.9 61.5739 1280 60.7748 1282.93 59.6527Z" fill="#FC8D4D"/>
<path d="M1393.75 123.206C1389.98 122.424 1386.23 121.538 1382.39 121.062C1383.77 124.66 1385.39 128.201 1387.13 131.689C1389.54 128.982 1391.74 126.135 1393.75 123.206Z" fill="#FC8D4D"/>
<path d="M1713.87 247.436C1711.49 246.108 1709.19 244.667 1706.66 243.541C1705.59 246.711 1704.58 249.903 1703.88 253.151C1709.27 252.614 1714.67 252.073 1720.01 251.221C1718.21 249.684 1715.96 248.636 1713.87 247.436Z" fill="#FC8D4D"/>
<path d="M1235.29 10.492C1231.17 9.44843 1226.38 11.9067 1225.61 15.4652C1224.75 18.9365 1227.63 22.8269 1231.89 23.3727C1235.92 24.032 1240.2 21.5999 1240.9 18.1986C1241.8 14.902 1239.21 11.3085 1235.29 10.492Z" fill="#0051B9"/>
<path d="M1707.05 15.6883C1701.82 14.2299 1696.08 18.9062 1697.33 23.3293C1698.18 26.233 1701.39 28.9139 1705.15 28.6082C1709.2 28.8004 1712.72 25.792 1712.89 22.4779C1713.18 19.4171 1710.52 16.4917 1707.05 15.6883Z" fill="#0051B9"/>
<path d="M1503.78 54.854C1500.57 54.365 1496.78 55.4304 1495.35 58.0502C1494.12 60.4298 1494.05 63.5518 1496.25 65.5603C1498.85 68.1189 1503.86 68.6953 1507 66.4947C1510.03 64.6565 1511.16 60.9189 1509.23 58.1725C1508.12 56.4565 1506.07 55.2033 1503.78 54.854Z" fill="#0051B9"/>
<path d="M1653.5 129.138C1650.58 127.903 1646.81 130.256 1647.42 132.959C1647.72 135.548 1651.68 137.159 1654.2 135.518C1657.02 134.064 1656.61 130.125 1653.5 129.138Z" fill="#0051B9"/>
<path d="M1368.97 195.203C1366.18 194.522 1362.74 194.802 1360.64 196.64C1357.21 199.509 1357.93 204.962 1362.07 207.093C1365.97 209.232 1371.88 207.586 1373.46 203.892C1375.31 200.57 1372.9 196.478 1368.97 195.203Z" fill="#0051B9"/>
<path d="M1730.4 318.929C1727.78 317.763 1724.23 319.37 1723.94 321.837C1723.5 324.531 1727.36 326.862 1730.24 325.544C1733.31 324.365 1733.53 320.138 1730.4 318.929Z" fill="#0051B9"/>
<path d="M1419.62 32.0708C1418.16 31.4333 1416.11 31.4726 1414.88 32.4812C1416.19 38.188 1424.52 41.7509 1430.88 39.6027C1432.65 39.1268 1434.37 38.2535 1436.27 38.3714C1437.78 38.7338 1438.14 40.2227 1438.82 41.2445C1440.48 44.5934 1445.2 46.7111 1449.41 45.7374C1451.71 45.2571 1453.57 43.9472 1455.09 42.4889C1453.95 41.6374 1452.79 40.7249 1451.32 40.3013C1449.42 40.5065 1447.67 41.9867 1445.69 41.2357C1443.04 40.214 1443.24 37.2798 1441.3 35.7079C1439.13 33.7475 1435.6 33.5204 1432.71 34.3238C1430.11 34.8434 1427.55 36.5113 1424.79 35.5813C1422.51 35.0836 1421.22 33.3545 1419.62 32.0708Z" fill="#3CC2AD"/>
<path d="M1567.58 40.5895C1566.97 40.3013 1566.21 40.2839 1565.98 40.9519C1563.8 44.2179 1562.48 47.9206 1562.26 51.6625C1562.24 52.6843 1562.15 53.7671 1562.69 54.7146C1564.64 54.8456 1566.84 54.9111 1568.58 54.0815C1569.25 51.7586 1568.93 49.2611 1570.06 47.0168C1570.52 45.6457 1571.78 44.4188 1571.76 42.9779C1570.61 41.9343 1569.04 41.2838 1567.58 40.5895Z" fill="#3CC2AD"/>
<path d="M1706.59 108.158C1705.05 104.866 1701.28 102.028 1696.93 101.954C1695.67 102.831 1696.16 104.552 1696.31 105.77C1697.72 106.975 1700.12 107.241 1701.07 108.892C1703.29 111.852 1699.79 115.454 1702.13 118.375C1703.96 120.943 1708.08 121.296 1711.23 120.545C1713.19 120.008 1713.66 118.148 1714.13 116.686C1711.77 116.009 1709.04 116.734 1706.83 115.839C1707.02 113.289 1707.77 110.625 1706.59 108.158Z" fill="#3CC2AD"/>
<path d="M1318.02 141.853C1317.4 141.504 1316.58 141.582 1316.33 142.25C1314.07 145.652 1312.74 149.52 1312.63 153.42C1312.64 154.258 1312.58 155.166 1313.1 155.926C1315.03 156.109 1317.2 156.135 1318.95 155.367C1319.57 153.765 1319.28 152.027 1319.76 150.398C1320.16 148.254 1321.58 146.399 1322.31 144.351C1321.1 143.285 1319.56 142.53 1318.02 141.853Z" fill="#3CC2AD"/>
<path d="M1418.18 275.495C1418.24 273.884 1417.89 272.259 1417.33 270.723C1412.42 270.731 1407.96 273.639 1405.29 276.979C1406.97 278.045 1408.67 279.128 1410.59 279.853C1412.25 279.01 1413.36 277.512 1415.22 276.918C1416.19 276.442 1417.6 276.364 1418.18 275.495Z" fill="#F778E0"/>
<path d="M1619.45 317.385C1617.3 317.214 1614.68 316.625 1612.77 317.594C1612.63 319.149 1612.85 320.795 1613.62 322.227C1614.67 322.707 1615.92 322.655 1617.06 322.821C1621.84 323.196 1626.39 325.017 1629.87 327.776C1630.87 328.554 1631.67 329.501 1632.73 330.235C1634.78 329.846 1636.78 328.632 1637.93 327.165C1633.96 321.79 1626.76 318.48 1619.45 317.385Z" fill="#3CC2AD"/>
<path d="M1295.92 316.981C1293.43 316.632 1290.8 316.344 1288.32 316.942C1287.88 318.339 1288.24 319.841 1288.73 321.203C1289.16 322.295 1290.86 322.02 1291.91 322.264C1296.89 322.644 1301.77 324.382 1305.32 327.382C1306.34 328.207 1307.21 329.198 1308.45 329.814C1310.13 328.962 1312.19 328.216 1313.28 326.845C1312.88 325.487 1311.45 324.557 1310.38 323.552C1306.45 320.251 1301.39 317.859 1295.92 316.981Z" fill="#3CC2AD"/>
<path d="M1705.23 62.111C1703.11 61.5914 1700.87 61.5084 1698.7 61.2246C1697.49 65.7176 1699.34 70.455 1702.2 74.2625C1703.82 76.0876 1705.48 78.1529 1708.01 79.1266C1709.46 77.8079 1710.78 76.3408 1711.75 74.7428C1711.66 73.8389 1710.52 73.2757 1709.92 72.5771C1707.32 70.2498 1705.81 67.1104 1705.68 63.9274C1705.54 63.3292 1705.69 62.6131 1705.23 62.111Z" fill="#F778E0"/>
<path d="M1347.41 90.0597C1345.76 88.6799 1343.98 87.4049 1342.15 86.1824C1337.04 89.2126 1330.35 88.4747 1324.97 90.9766C1321.2 92.5223 1317.8 95.3735 1317.43 99.0456C1319.35 100.128 1322.03 99.6307 1324.22 99.491C1325.58 98.4605 1326.5 96.9847 1328.27 96.3778C1332.79 94.6749 1337.97 94.8015 1342.44 92.9764C1344.32 92.2996 1345.97 91.2648 1347.41 90.0597Z" fill="#F778E0"/>
<path d="M1609.55 103.762C1607.85 102.43 1606.1 101.155 1604.27 99.9497C1599.21 102.954 1592.59 102.246 1587.24 104.678C1583.25 106.29 1579.71 109.337 1579.56 113.25C1581.82 113.328 1584.19 113.717 1586.4 113.175C1587.71 112.228 1588.6 110.861 1590.21 110.228C1593.86 108.787 1597.98 108.626 1601.81 107.656C1604.7 106.879 1607.51 105.691 1609.55 103.762Z" fill="#F778E0"/>
<path d="M1586.38 217.903C1580.61 217.078 1574.36 218.077 1569.62 221.02C1570.36 223.212 1572.65 224.745 1574.09 226.631C1576.79 225.531 1579.65 224.422 1582.74 224.575C1585.25 224.522 1587.52 225.649 1589.99 225.819C1591.89 224.435 1593.12 222.391 1594.3 220.531C1592.06 219.003 1589.17 218.344 1586.38 217.903Z" fill="#F778E0"/>
<path d="M1557.06 301.458C1553.25 298.795 1546.7 300.668 1545.44 304.659C1544.08 308.047 1547.04 311.89 1551.17 312.475C1554.73 313.182 1558.41 311.553 1560.15 308.929C1558.07 310.436 1555.71 312.2 1552.74 311.986C1549.08 312.029 1545.89 309.069 1546.42 306.004C1546.75 302.803 1551.17 300.485 1554.73 301.742C1557.54 302.602 1558.9 305.816 1557.11 307.894C1555.69 309.776 1552.09 310.313 1550.26 308.567C1548.65 307.231 1549.02 304.554 1551.3 303.925C1553.14 303.188 1555.57 304.69 1554.94 306.397C1554.59 307.702 1551.73 307.51 1552.16 306.048C1552.6 305.912 1553.5 305.641 1553.94 305.506C1552.94 305.148 1551.46 304.515 1550.82 305.668C1549.96 307.598 1552.9 309.239 1554.83 308.165C1557.63 306.973 1556.57 303.161 1553.65 302.69C1550.25 301.825 1546.77 304.934 1548.02 307.737C1549 310.977 1554.32 311.759 1557.08 309.628C1560.15 307.681 1560.08 303.415 1557.06 301.458Z" fill="#F778E0"/>
</g>
</svg>
