<svg width="64" height="64" viewBox="0 0 64 64" fill="none" xmlns="http://www.w3.org/2000/svg">
<path d="M0 16C0 7.16344 7.16344 0 16 0H48C56.8366 0 64 7.16344 64 16V48C64 56.8366 56.8366 64 48 64H16C7.16344 64 0 56.8366 0 48V16Z" fill="#ED4C5C" fill-opacity="0.082"/>
<g clip-path="url(#clip0_203_2702)">
<path d="M18.8174 24.138L26.7723 16.183C27.0164 15.939 27.412 15.939 27.6562 16.183L37.412 25.9388C38.376 26.9028 38.9866 28.1459 39.1739 29.4771L39.1782 29.4728C39.411 29.2307 39.8294 29.2307 40.0622 29.4728L42.6191 32.0298C42.8632 32.2739 42.8632 32.6696 42.6191 32.9137L40.7181 34.8147L43.5095 38.452C43.7005 38.7008 43.6774 39.0526 43.4556 39.2745L41.9088 40.8213C41.6863 41.0436 41.3343 41.0655 41.0863 40.8751L37.449 38.0838L35.5481 39.9848C35.304 40.2288 34.9082 40.2288 34.6641 39.9848L32.1071 37.4278C31.8651 37.1951 31.8651 36.7767 32.1071 36.5439L32.1114 36.5397C30.7801 36.3523 29.5371 35.7417 28.5731 34.7777L18.8173 25.0219C18.5753 24.7891 18.5753 24.3707 18.8174 24.138ZM41.4125 39.5497L42.1841 38.7781L39.8265 35.7062L38.3405 37.1922L41.4125 39.5497ZM35.1061 38.6589L41.2933 32.4717L39.6202 30.7986L33.4331 36.9858L35.1061 38.6589ZM37.9752 30.6758C38.0525 29.4471 37.6818 28.2475 36.9421 27.2926L29.9269 34.3078C30.8817 35.0476 32.0811 35.4185 33.3101 35.341L37.9752 30.6758ZM29.0151 33.4518L36.0861 26.3808L29.203 19.4976L22.132 26.5686L29.0151 33.4518ZM21.2481 25.6848L28.3191 18.6137L27.2143 17.5089L20.1432 24.58L21.2481 25.6848Z" fill="#FF1F1F"/>
<path d="M27.1199 24.486C28.2166 23.3894 30.0008 23.3894 31.0975 24.486C32.1941 25.5826 32.1941 27.3669 31.0975 28.4635C30.0008 29.5601 28.2166 29.5601 27.1199 28.4635C26.0234 27.3669 26.0234 25.5826 27.1199 24.486ZM28.0038 27.5796C28.6129 28.1887 29.6044 28.1887 30.2135 27.5796C30.8227 26.9704 30.8227 25.9791 30.2135 25.3699C28.6939 23.9614 26.5961 26.0614 28.0038 27.5796Z" fill="#FF1F1F"/>
<path d="M42.3941 42.0067C42.6295 41.7237 43.1009 41.7237 43.3363 42.0067C43.388 42.0659 43.4434 42.1287 43.5015 42.1948C44.2437 43.0369 45.3652 44.3094 45.3652 45.5001C45.3652 46.8786 44.2437 48.0001 42.8652 48.0001C41.4867 48.0001 40.3652 46.8786 40.3652 45.5001C40.3652 44.3094 41.4868 43.0369 42.2289 42.1948C42.2871 42.1287 42.3425 42.0659 42.3941 42.0067ZM42.8652 46.75C43.5545 46.75 44.1152 46.1892 44.1152 45.5C44.1152 44.9007 43.4129 44.0044 42.8652 43.3666C42.3175 44.0044 41.6152 44.9007 41.6152 45.5C41.6152 46.1892 42.176 46.75 42.8652 46.75Z" fill="#FF1F1F"/>
</g>
<defs>
<clipPath id="clip0_203_2702">
<rect width="32" height="32" fill="white" transform="matrix(-1 0 0 1 48 16)"/>
</clipPath>
</defs>
</svg>
