<svg width="64" height="64" viewBox="0 0 64 64" fill="none" xmlns="http://www.w3.org/2000/svg">
<path d="M0 16C0 7.16344 7.16344 0 16 0H48C56.8366 0 64 7.16344 64 16V48C64 56.8366 56.8366 64 48 64H16C7.16344 64 0 56.8366 0 48V16Z" fill="#ED4C5C" fill-opacity="0.082"/>
<g clip-path="url(#clip0_203_2666)">
<path d="M31.9994 47.9968C28.2979 47.994 24.7119 46.708 21.8523 44.3578C18.9927 42.0077 17.0365 38.7389 16.317 35.1084C15.5974 31.4778 16.159 27.7101 17.9062 24.4472C19.6533 21.1842 22.4778 18.6279 25.8985 17.2138C29.3192 15.7997 33.1244 15.6152 36.6659 16.6918C40.2074 17.7684 43.266 20.0395 45.3206 23.1182C47.3752 26.1968 48.2987 29.8925 47.9338 33.5756C47.5689 37.2588 45.9381 40.7015 43.3193 43.3172C41.8337 44.8042 40.0689 45.9831 38.1263 46.7862C36.1837 47.5893 34.1015 48.0007 31.9994 47.9968ZM31.9994 17.8135C28.7166 17.8153 25.536 18.9551 22.9995 21.0389C20.4629 23.1226 18.7275 26.0213 18.0888 29.2411C17.45 32.4608 17.9476 35.8024 19.4966 38.6965C21.0457 41.5905 23.5504 43.858 26.584 45.1125C29.6176 46.3671 32.9924 46.531 36.1333 45.5765C39.2742 44.622 41.987 42.608 43.8094 39.8777C45.6317 37.1475 46.4509 33.8698 46.1274 30.6033C45.8039 27.3368 44.3577 24.2836 42.0351 21.9637C40.7184 20.6449 39.1539 19.5992 37.4316 18.887C35.7093 18.1747 33.8632 17.8099 31.9994 17.8135Z" fill="#FF1F1F"/>
<path d="M27.2553 31.6719C27.0812 31.6282 26.9021 31.6079 26.7226 31.6116H25.1372C25.0366 31.6071 24.9361 31.6231 24.8418 31.6585C24.7475 31.6939 24.6614 31.7481 24.5886 31.8177C24.5202 31.8855 24.4663 31.9666 24.4303 32.0561C24.3943 32.1455 24.377 32.2413 24.3794 32.3377C24.3715 32.4459 24.3916 32.5543 24.4377 32.6526C24.4838 32.7509 24.5543 32.8356 24.6425 32.8988C24.8443 33.0121 25.0743 33.065 25.3053 33.051H26.2565V34.0719C26.0142 34.2137 25.7582 34.3305 25.4923 34.4207C25.2138 34.511 24.9226 34.556 24.6299 34.5539C24.3545 34.5682 24.0797 34.5148 23.8298 34.3981C23.5799 34.2815 23.3625 34.1052 23.1967 33.8849C22.81 33.2981 22.6252 32.6013 22.6703 31.9001C22.6661 31.531 22.712 31.1631 22.8066 30.8063C22.8847 30.5128 23.017 30.2364 23.1967 29.9915C23.3541 29.7825 23.5583 29.6131 23.7928 29.4969C24.0436 29.3794 24.318 29.3209 24.595 29.3257C24.8373 29.317 25.0783 29.3647 25.2989 29.4652C25.4665 29.5497 25.6145 29.6686 25.7333 29.8139C25.8897 30.0278 26.0327 30.2513 26.1614 30.4829C26.2331 30.5907 26.3286 30.6808 26.4404 30.7461C26.5495 30.8084 26.673 30.8412 26.7987 30.8412C26.9049 30.8422 27.0102 30.8207 27.1074 30.778C27.2047 30.7354 27.2919 30.6726 27.3631 30.5939C27.517 30.434 27.6013 30.2197 27.5978 29.9978C27.5838 29.7588 27.5167 29.5259 27.4012 29.3162C27.2684 29.0516 27.0891 28.8132 26.8716 28.6123C26.6044 28.3738 26.2946 28.1877 25.9584 28.0638C25.5518 27.9176 25.1222 27.8456 24.6901 27.8514C24.1567 27.8436 23.6269 27.9395 23.1301 28.1336C22.6804 28.3168 22.2781 28.5998 21.9537 28.9611C21.6195 29.3383 21.3698 29.7826 21.2212 30.2641C21.0541 30.8062 20.9717 31.3709 20.9771 31.9382C20.9692 32.5102 21.0538 33.0798 21.2276 33.6249C21.3827 34.1027 21.6317 34.5446 21.96 34.9248C22.2797 35.2828 22.6765 35.5636 23.1206 35.746C23.5948 35.9378 24.1024 36.0338 24.614 36.0281C25.0526 36.0316 25.4894 35.9718 25.9109 35.8506C26.3417 35.7153 26.7539 35.5268 27.138 35.2894C27.2772 35.2094 27.4051 35.1114 27.5185 34.9977C27.6225 34.8929 27.6997 34.7646 27.7436 34.6236C27.7862 34.458 27.8054 34.2873 27.8007 34.1163V32.6547C27.8155 32.4225 27.765 32.1907 27.6548 31.9857C27.5654 31.835 27.4229 31.7231 27.2553 31.6719Z" fill="#FF1F1F"/>
<path d="M34.6953 27.9846H34.2641C34.0489 27.9714 33.8333 28.0016 33.6299 28.0733C33.4821 28.146 33.3684 28.2734 33.3129 28.4284C33.2297 28.6516 33.1629 28.8804 33.1131 29.1133L32.2538 32.7277L31.3913 29.1133C31.3418 28.8807 31.2761 28.6519 31.1947 28.4284C31.1334 28.2718 31.0142 28.1447 30.8618 28.0733C30.6585 28.0016 30.4428 27.9714 30.2276 27.9846H29.7964C29.5433 27.9723 29.293 28.0424 29.083 28.1843C28.9758 28.2838 28.8936 28.4071 28.8429 28.5442C28.7923 28.6814 28.7746 28.8285 28.7913 28.9738V35.0231C28.7736 35.2896 28.8487 35.5539 29.0037 35.7713C29.0705 35.8567 29.1563 35.9252 29.2543 35.9715C29.3523 36.0177 29.4598 36.0404 29.5681 36.0377C29.6782 36.0408 29.7875 36.018 29.8871 35.9712C29.9868 35.9244 30.0741 35.8549 30.142 35.7682C30.2925 35.55 30.3651 35.2876 30.3481 35.0231V30.9934L31.1726 34.6426C31.2106 34.8043 31.2486 34.9597 31.2835 35.1055C31.32 35.2558 31.3732 35.4015 31.4421 35.5399C31.516 35.6815 31.6252 35.8016 31.7591 35.8887C31.9037 35.9871 32.0758 36.0371 32.2506 36.0313C32.3608 36.0371 32.4711 36.0203 32.5746 35.9822C32.6782 35.944 32.7729 35.8853 32.8531 35.8094C32.9856 35.6815 33.0837 35.5223 33.1385 35.3465C33.186 35.1943 33.2463 34.9597 33.316 34.6426L34.1404 30.9934V35.0231C34.1226 35.2881 34.1965 35.5512 34.3497 35.7682C34.4162 35.8533 34.5014 35.9219 34.5988 35.9687C34.6961 36.0154 34.803 36.039 34.911 36.0377C35.0219 36.0408 35.1321 36.018 35.2328 35.9713C35.3335 35.9245 35.422 35.855 35.4912 35.7682C35.6417 35.55 35.7143 35.2876 35.6973 35.0231V28.9738C35.714 28.8285 35.6963 28.6814 35.6456 28.5442C35.595 28.4071 35.5127 28.2838 35.4056 28.1843C35.1967 28.0427 34.9475 27.9726 34.6953 27.9846Z" fill="#FF1F1F"/>
<path d="M43.1069 29.7886C42.856 29.2003 42.434 28.701 41.8957 28.3556C41.3218 28.0116 40.662 27.8379 39.9932 27.8546C39.4913 27.8462 38.9933 27.9434 38.5314 28.14C38.106 28.3262 37.7302 28.6096 37.4343 28.9675C37.1216 29.3496 36.8887 29.7905 36.7494 30.2642C36.5897 30.8022 36.5116 31.3612 36.5179 31.9224C36.513 32.4766 36.5878 33.0286 36.7399 33.5615C36.8732 34.0393 37.1007 34.4855 37.4089 34.8741C37.7063 35.2442 38.0879 35.5377 38.5219 35.7302C38.9946 35.9366 39.506 36.0393 40.0217 36.0314C40.5345 36.0399 41.0433 35.9405 41.5152 35.7397C41.9464 35.5471 42.3257 35.2548 42.6218 34.8868C42.9291 34.5007 43.1574 34.0579 43.294 33.5837C43.4464 33.0465 43.5212 32.4903 43.516 31.9319C43.5305 31.1968 43.3911 30.4667 43.1069 29.7886ZM39.2797 29.5223C39.5444 29.3967 39.8373 29.3427 40.1294 29.3655C40.4215 29.3883 40.7024 29.4872 40.9444 29.6523C41.2363 29.8722 41.4569 30.1732 41.5786 30.5178C41.8935 31.4516 41.8868 32.464 41.5595 33.3935C41.4285 33.7383 41.1978 34.0363 40.8968 34.2495C40.6306 34.4282 40.317 34.5232 39.9963 34.5222C39.7529 34.5252 39.512 34.472 39.2924 34.3668C39.0682 34.2527 38.8731 34.089 38.7217 33.8881C38.5402 33.6396 38.4078 33.3587 38.3316 33.0606C38.2323 32.6895 38.1843 32.3065 38.189 31.9224C38.184 31.5424 38.2321 31.1636 38.3316 30.7969C38.4056 30.5061 38.5336 30.2318 38.709 29.9884C38.8611 29.7914 39.0563 29.632 39.2797 29.5223Z" fill="#FF1F1F"/>
<path d="M35.9786 27.4138C36.2838 27.6513 36.4968 27.9876 36.581 28.365L43.1415 21.8052C43.2647 21.682 43.3339 21.5149 43.3339 21.3407C43.3339 21.1665 43.2647 20.9994 43.1415 20.8762C43.0183 20.7531 42.8512 20.6838 42.6769 20.6838C42.5027 20.6838 42.3356 20.7531 42.2124 20.8762L35.7852 27.3029C35.8517 27.3362 35.9162 27.3732 35.9786 27.4138Z" fill="#FF1F1F"/>
<path d="M28.2446 36.3865C28.1288 36.2412 28.0368 36.0786 27.9719 35.9045C27.8703 35.9852 27.7645 36.0603 27.6549 36.1296C27.2384 36.3832 26.7949 36.5895 26.3326 36.7447L20.863 42.2139C20.7716 42.3056 20.7095 42.4224 20.6844 42.5494C20.6592 42.6764 20.6722 42.808 20.7217 42.9276C20.7712 43.0472 20.855 43.1496 20.9625 43.2217C21.07 43.2939 21.1964 43.3326 21.3259 43.3331C21.5006 43.3319 21.6678 43.2625 21.792 43.1397L28.3937 36.5386C28.3407 36.4912 28.2909 36.4404 28.2446 36.3865Z" fill="#FF1F1F"/>
</g>
<defs>
<clipPath id="clip0_203_2666">
<rect width="32" height="32" fill="white" transform="translate(16 16)"/>
</clipPath>
</defs>
</svg>
