<svg width="64" height="64" viewBox="0 0 64 64" fill="none" xmlns="http://www.w3.org/2000/svg">
<path d="M0 16C0 7.16344 7.16344 0 16 0H48C56.8366 0 64 7.16344 64 16V48C64 56.8366 56.8366 64 48 64H16C7.16344 64 0 56.8366 0 48V16Z" fill="#FF6B7A" fill-opacity="0.082"/>
<g clip-path="url(#clip0_203_2694)">
<path d="M47.9875 30.0232L47.2429 20.339C47.0947 18.4116 45.5883 16.9052 43.6609 16.757L33.9767 16.0124C32.8091 15.9227 31.7544 16.3129 30.9264 17.1409L17.096 30.9713C16.3892 31.6781 16 32.6206 16 33.6253C16 34.63 16.3892 35.5725 17.096 36.2793L27.7206 46.9039C28.4524 47.6357 29.4133 48.0015 30.3746 48.0015C31.3356 48.0015 32.297 47.6356 33.0286 46.9039L46.8591 33.0735C47.6871 32.2454 48.0773 31.1907 47.9875 30.0232ZM45.4449 31.6593L31.6144 45.4897C30.9307 46.1734 29.8184 46.1732 29.1349 45.4897L18.5103 34.8651C18.1812 34.536 18 34.0957 18 33.6253C18 33.1548 18.1812 32.7145 18.5102 32.3855L32.3407 18.555C32.7133 18.1824 33.1436 17.9998 33.6515 17.9998C33.7078 17.9998 33.7651 18.002 33.8234 18.0065L43.5076 18.7512C44.4444 18.8231 45.1768 19.5554 45.2488 20.4923L45.9934 30.1765C46.0383 30.7603 45.8589 31.2453 45.4449 31.6593ZM39.4215 20.7788C37.3264 20.7788 35.6219 22.4833 35.6219 24.5784C35.6219 26.6735 37.3264 28.378 39.4215 28.3781C41.5166 28.378 43.2211 26.6735 43.2211 24.5784C43.2211 22.4833 41.5166 20.7788 39.4215 20.7788ZM39.4215 26.3781C38.4292 26.378 37.6219 25.5707 37.6219 24.5784C37.6219 23.5861 38.4292 22.7788 39.4215 22.7788C40.4138 22.7788 41.2211 23.5861 41.2211 24.5784C41.2211 25.5707 40.4138 26.378 39.4215 26.3781Z" fill="#FF1F1F"/>
</g>
<defs>
<clipPath id="clip0_203_2694">
<rect width="32" height="32" fill="white" transform="translate(16 16)"/>
</clipPath>
</defs>
</svg>
