<svg width="64" height="64" viewBox="0 0 64 64" fill="none" xmlns="http://www.w3.org/2000/svg">
<path d="M0 16C0 7.16344 7.16344 0 16 0H48C56.8366 0 64 7.16344 64 16V48C64 56.8366 56.8366 64 48 64H16C7.16344 64 0 56.8366 0 48V16Z" fill="#ED4C5C" fill-opacity="0.082"/>
<path d="M39.5192 35.2639H37.8232L35.8072 31.7759L36.6712 30.3039C36.7992 30.0799 36.7352 29.7919 36.5112 29.6639C36.2872 29.5359 35.9992 29.5999 35.8712 29.8239L35.0072 31.2959H30.9432L30.0792 29.8239C29.9512 29.5999 29.6632 29.5039 29.4392 29.6639C29.2152 29.7919 29.1192 30.0799 29.2792 30.3039L30.1432 31.7759L28.1272 35.2639H26.4312C26.1752 35.2639 25.9512 35.4879 25.9512 35.7439C25.9512 35.9999 26.1752 36.2239 26.4312 36.2239H28.1272L30.1112 39.6799L29.2472 41.1519C29.1192 41.3759 29.1832 41.6639 29.4072 41.7919C29.4712 41.8239 29.5672 41.8559 29.6312 41.8559C29.7912 41.8559 29.9512 41.7599 30.0472 41.5999L30.9112 40.1279H34.9112L35.7752 41.5999C35.8712 41.7599 36.0312 41.8559 36.1912 41.8559C36.2872 41.8559 36.3512 41.8239 36.4152 41.7919C36.6392 41.6639 36.7352 41.3759 36.5752 41.1519L35.8072 39.6799L37.8232 36.1919H39.5192C39.7752 36.1919 39.9992 35.9679 39.9992 35.7119C39.9992 35.4559 39.7752 35.2639 39.5192 35.2639ZM34.9752 39.1999H30.9432L28.9272 35.7119L30.9432 32.2239H34.9432L36.9592 35.7119L34.9752 39.1999Z" fill="#FF1F1F" stroke="#FF1F1F" stroke-width="0.3"/>
<path d="M25.92 21.888C25.824 21.728 25.664 21.632 25.504 21.632H23.84V18.08C23.84 17.824 23.616 17.6 23.36 17.6H20.416C20.16 17.6 19.936 17.824 19.936 18.08V21.632H18.304C18.112 21.632 17.952 21.728 17.888 21.888C17.792 22.048 17.824 22.24 17.92 22.4L21.536 27.36C21.632 27.488 21.76 27.552 21.92 27.552C22.08 27.552 22.208 27.488 22.304 27.36L25.888 22.4C25.984 22.24 26.016 22.048 25.92 21.888ZM21.888 26.24L19.232 22.592H20.416C20.672 22.592 20.896 22.368 20.896 22.112V18.56H22.88V22.112C22.88 22.368 23.104 22.592 23.36 22.592H24.544L21.888 26.24Z" fill="#FF1F1F" stroke="#FF1F1F" stroke-width="0.3"/>
<path d="M46.1432 26.048C46.0472 25.888 45.8872 25.792 45.7272 25.792H43.2632V20.704C43.2632 20.448 43.0392 20.224 42.7832 20.224H38.6872C38.4312 20.224 38.2072 20.448 38.2072 20.704V24.736C37.4712 23.68 36.7352 22.656 36.0312 21.632C35.0392 20.224 34.1112 18.912 33.3752 17.824C33.1832 17.568 32.7672 17.568 32.5752 17.824C31.8392 18.944 30.9112 20.256 29.9192 21.664C27.5832 24.96 24.9272 28.704 23.6472 31.296C22.9112 32.768 22.5592 34.336 22.5592 35.968C22.4952 41.696 27.1992 46.4 32.9592 46.4C38.7192 46.4 43.4232 41.696 43.4232 35.936C43.4232 34.4 43.1032 32.928 42.4632 31.552L46.1112 26.56C46.2072 26.4 46.2072 26.208 46.1432 26.048ZM42.4632 35.936C42.4632 41.184 38.2072 45.44 32.9592 45.44C27.7112 45.44 23.4552 41.184 23.4552 35.936C23.4552 34.432 23.7752 33.024 24.4472 31.712C25.7272 29.152 28.3512 25.472 30.6552 22.208C31.4872 21.056 32.2552 19.936 32.9272 18.944C33.5992 19.936 34.3672 21.024 35.1992 22.176C36.0312 23.36 36.8952 24.576 37.7272 25.792H35.6792C35.4872 25.792 35.3272 25.888 35.2632 26.048C35.1672 26.208 35.1992 26.4 35.2952 26.56L40.3192 33.408C40.4152 33.536 40.5432 33.6 40.7032 33.6C40.8632 33.6 40.9912 33.536 41.0872 33.408L41.7592 32.48C42.2392 33.568 42.4632 34.752 42.4632 35.936ZM40.7352 32.32L36.6712 26.752H38.6872C38.9432 26.752 39.1672 26.528 39.1672 26.272V21.184H42.2712V26.272C42.2712 26.528 42.4952 26.752 42.7512 26.752H44.7672L40.7352 32.32Z" fill="#FF1F1F" stroke="#FF1F1F" stroke-width="0.3"/>
</svg>
