<svg width="64" height="64" viewBox="0 0 64 64" fill="none" xmlns="http://www.w3.org/2000/svg">
<path d="M0 16C0 7.16344 7.16344 0 16 0H48C56.8366 0 64 7.16344 64 16V48C64 56.8366 56.8366 64 48 64H16C7.16344 64 0 56.8366 0 48V16Z" fill="#FF6B7A" fill-opacity="0.082"/>
<path d="M47.9566 28.8628C47.9121 28.3973 47.5437 28.0289 47.0783 27.9844C46.8175 27.9595 40.6503 27.4154 37.0589 31.0068C36.2802 31.7855 35.6962 32.6854 35.2588 33.6198C34.5386 30.6708 33.2576 28.2241 31.4989 26.4655C29.3314 24.298 26.1188 22.8558 22.2085 22.2951C19.299 21.8779 17.0334 22.0863 16.9384 22.0955C16.473 22.14 16.1046 22.5085 16.0601 22.9739C16.0509 23.0689 15.8425 25.3344 16.2597 28.244C16.8204 32.1542 18.2624 35.3669 20.4301 37.5344C22.5976 39.702 25.8103 41.1441 29.7205 41.7048C31.1606 41.9113 32.4426 41.9645 33.3819 41.9645C34.2332 41.9644 35.4738 41.9478 36.0449 41.9478C38.0423 41.9478 42.2226 41.5938 44.9343 38.882C48.5256 35.2908 47.9816 29.1236 47.9566 28.8628ZM26.6543 31.3101C26.2734 30.9292 25.6556 30.9292 25.2746 31.3101C24.8936 31.6911 24.8936 32.3088 25.2746 32.6899L32.5822 39.9975C29.7664 39.9026 24.9091 39.2541 21.8098 36.1548C18.1161 32.4611 17.9068 26.2383 17.9617 23.996C20.2041 23.9375 26.4165 24.1426 30.1193 27.8453C33.2096 30.9357 33.8608 35.796 33.9589 38.6148L26.6543 31.3101ZM43.5546 37.5024C41.8348 39.2221 39.2474 39.7726 37.3881 39.9327L41.6864 35.6343C42.0674 35.2533 42.0674 34.6356 41.6864 34.2545C41.3055 33.8736 40.6878 33.8736 40.3067 34.2545L36.0045 38.5567C36.1622 36.6998 36.7111 34.114 38.4386 32.3865C40.6768 30.1482 44.3843 29.89 46.0446 29.8963C46.0506 31.5566 45.7924 35.2645 43.5546 37.5024Z" fill="#FF1F1F"/>
</svg>
