<svg width="80" height="80" viewBox="0 0 80 80" fill="none" xmlns="http://www.w3.org/2000/svg">
<rect width="80" height="80" rx="40" fill="#FEE7F1"/>
<path d="M38.3614 24.69C38.4328 24.3077 38.6357 23.9624 38.9349 23.7139C39.2341 23.4654 39.6108 23.3293 39.9998 23.3293C40.3887 23.3293 40.7654 23.4654 41.0646 23.7139C41.3638 23.9624 41.5667 24.3077 41.6381 24.69L43.3898 33.9533C43.5142 34.6119 43.8342 35.2177 44.3081 35.6916C44.7821 36.1655 45.3878 36.4856 46.0464 36.61L55.3098 38.3617C55.6921 38.4331 56.0374 38.636 56.2859 38.9352C56.5344 39.2344 56.6704 39.6111 56.6704 40C56.6704 40.3889 56.5344 40.7656 56.2859 41.0648C56.0374 41.364 55.6921 41.5669 55.3098 41.6383L46.0464 43.39C45.3878 43.5144 44.7821 43.8345 44.3081 44.3084C43.8342 44.7823 43.5142 45.3881 43.3898 46.0467L41.6381 55.31C41.5667 55.6923 41.3638 56.0376 41.0646 56.2861C40.7654 56.5346 40.3887 56.6707 39.9998 56.6707C39.6108 56.6707 39.2341 56.5346 38.9349 56.2861C38.6357 56.0376 38.4328 55.6923 38.3614 55.31L36.6098 46.0467C36.4853 45.3881 36.1653 44.7823 35.6914 44.3084C35.2175 43.8345 34.6117 43.5144 33.9531 43.39L24.6898 41.6383C24.3074 41.5669 23.9621 41.364 23.7136 41.0648C23.4651 40.7656 23.3291 40.3889 23.3291 40C23.3291 39.6111 23.4651 39.2344 23.7136 38.9352C23.9621 38.636 24.3074 38.4331 24.6898 38.3617L33.9531 36.61C34.6117 36.4856 35.2175 36.1655 35.6914 35.6916C36.1653 35.2177 36.4853 34.6119 36.6098 33.9533L38.3614 24.69Z" stroke="#E92827" stroke-width="3.33333" stroke-linecap="round" stroke-linejoin="round"/>
<path d="M53.3335 23.3333V29.9999" stroke="#E92827" stroke-width="3.33333" stroke-linecap="round" stroke-linejoin="round"/>
<path d="M56.6667 26.6667H50" stroke="#E92827" stroke-width="3.33333" stroke-linecap="round" stroke-linejoin="round"/>
<path d="M26.6668 56.6667C28.5078 56.6667 30.0002 55.1743 30.0002 53.3333C30.0002 51.4924 28.5078 50 26.6668 50C24.8259 50 23.3335 51.4924 23.3335 53.3333C23.3335 55.1743 24.8259 56.6667 26.6668 56.6667Z" stroke="#E92827" stroke-width="3.33333" stroke-linecap="round" stroke-linejoin="round"/>
</svg>
