<svg width="40" height="40" viewBox="0 0 40 40" fill="none" xmlns="http://www.w3.org/2000/svg">
<path d="M13.8313 20.5104C12.7721 20.5104 11.7411 20.1323 10.8489 19.4174C9.70673 18.5131 8.84665 17.1253 8.40305 15.4801C7.54518 15.3299 6.8206 14.6056 6.62148 13.6286C6.53797 13.2414 6.54626 12.8349 6.64582 12.4585C6.70169 12.2483 6.87315 12.0884 7.08665 12.0475C9.04245 11.6725 9.85109 8.86077 9.85939 8.83256C9.90364 8.67409 10.0148 8.54218 10.1636 8.47221C10.3124 8.40196 10.485 8.4003 10.6349 8.46695C11.0895 8.66912 11.5353 8.84362 11.9601 8.98522C12.2842 9.08699 12.5387 9.15613 12.7759 9.20619C12.9009 9.23467 13.0171 9.25569 13.1327 9.27643C13.3069 9.3074 13.4834 9.32787 13.6648 9.34363C13.8562 9.36327 14.0514 9.37018 14.2765 9.36438C14.4049 9.36852 14.4911 9.36382 14.5818 9.35525L14.9331 9.32123C15.0902 9.30215 15.2566 9.27588 15.4336 9.23965L15.8501 9.14064C15.9585 9.10967 16.0974 9.06708 16.2412 9.01896C16.4314 8.95563 16.6156 8.91719 16.8031 8.90142C16.807 8.90115 16.8717 8.8981 16.8756 8.8981C17.1179 8.88317 17.3645 8.91719 17.5814 8.996C17.682 9.03555 17.7661 9.0715 17.8507 9.12239C17.9691 9.18406 18.1057 9.28334 18.2407 9.41028C18.5996 9.75681 18.8209 10.1935 19.0161 10.5787C19.0753 10.6957 19.1356 10.8149 19.1931 10.9156C19.4697 10.9338 19.7175 10.9974 19.947 11.1089C20.1832 11.2228 20.3934 11.3904 20.5687 11.6061C20.572 11.6103 20.5753 11.6147 20.5787 11.6189C20.5953 11.6338 20.6107 11.6484 20.6235 11.6631C20.6489 11.6908 20.6716 11.7217 20.6915 11.7549C21.0527 12.2873 21.1799 12.9701 21.0405 13.6319C20.8359 14.6059 20.1118 15.3286 19.26 15.4798C18.8153 17.1295 17.9553 18.5195 16.8109 19.4254C15.9171 20.1351 14.8866 20.5104 13.8313 20.5104ZM8.85328 14.3709C9.11656 14.3709 9.34776 14.5537 9.40584 14.815C9.74877 16.3673 10.5325 17.7219 11.5552 18.5313C12.256 19.0936 13.021 19.3776 13.8313 19.3776C14.6283 19.3776 15.4148 19.0872 16.1068 18.5377C17.1295 17.7285 17.9127 16.3717 18.2567 14.815C18.3187 14.5365 18.5808 14.3507 18.8602 14.3731C19.3375 14.4187 19.8082 13.9881 19.9321 13.399C20.0045 13.0542 19.9454 12.6913 19.7728 12.4189C19.7529 12.3993 19.7346 12.3785 19.7175 12.3561C19.7031 12.3387 19.6915 12.3238 19.6804 12.3091C19.6113 12.2273 19.5394 12.1697 19.4536 12.1285C19.3331 12.0699 19.1975 12.0431 19.025 12.0431C18.9652 12.0467 18.9298 12.0486 18.895 12.0486C18.7302 12.0486 18.5742 11.977 18.4663 11.8525C18.2849 11.6424 18.1494 11.3744 18.0056 11.0906C17.843 10.7704 17.6754 10.4391 17.4591 10.23C17.4044 10.1788 17.3485 10.1373 17.2937 10.1083C17.2373 10.0754 17.2075 10.066 17.1792 10.0547C17.1322 10.0378 17.0614 10.0267 16.9801 10.0267C16.9132 10.0306 16.8806 10.0323 16.8501 10.0323C16.8009 10.0383 16.703 10.0591 16.599 10.0939C16.4359 10.1479 16.2804 10.196 16.13 10.238L15.6798 10.345C15.4535 10.3921 15.2572 10.4228 15.0548 10.4474L14.6919 10.4828C14.542 10.4969 14.4021 10.5016 14.2621 10.4963C14.0321 10.5032 13.7881 10.4949 13.558 10.4711C13.3517 10.4534 13.1432 10.4286 12.9341 10.3918C12.7992 10.3674 12.6664 10.3431 12.5326 10.3127C12.1863 10.2394 11.8406 10.1349 11.6111 10.063C11.3246 9.96754 11.0342 9.86024 10.7405 9.74187C10.36 10.7007 9.4335 12.506 7.69839 13.0589C7.69562 13.1712 7.70613 13.2856 7.72992 13.3965C7.85105 13.9892 8.32119 14.4098 8.8024 14.3731C8.81954 14.3717 8.83669 14.3709 8.85328 14.3709Z" fill="#303030"/>
<path d="M7.19381 13.1702C7.00077 13.1702 6.81769 13.0712 6.7126 12.9027C6.66227 12.8214 5.47972 10.8839 5.98969 8.63827C6.66835 5.67415 9.75139 2.73769 14.9064 3.29578C17.0253 3.51813 18.8279 4.46865 19.9789 5.97255C20.9662 7.25466 21.9004 9.38856 20.74 12.2664C20.6681 12.4442 20.5116 12.5736 20.323 12.6104C20.1393 12.6472 19.9491 12.5889 19.8163 12.4575C19.7798 12.4282 19.7466 12.3942 19.7179 12.3563C19.7146 12.3518 19.7029 12.3369 19.6908 12.3209C19.6189 12.2327 19.5436 12.1718 19.454 12.1287C19.3335 12.07 19.198 12.0432 19.0254 12.0432C18.9656 12.0468 18.9303 12.0487 18.8954 12.0487C18.7306 12.0487 18.5746 11.9771 18.4667 11.8527C18.2853 11.6425 18.1498 11.3745 18.006 11.0908C17.8434 10.7705 17.6758 10.4392 17.4595 10.2301C17.4048 10.179 17.3489 10.1375 17.2942 10.1084C17.2377 10.0755 17.2079 10.0661 17.1797 10.0548C17.1326 10.0379 17.0618 10.0268 16.9805 10.0268C16.9136 10.0307 16.881 10.0324 16.8506 10.0324C16.8013 10.0385 16.7034 10.0592 16.5994 10.0941C16.4363 10.148 16.2809 10.1961 16.1304 10.2381L15.6802 10.3452C15.454 10.3922 15.2576 10.4229 15.0552 10.4475L14.6923 10.4829C14.5424 10.497 14.4025 10.5017 14.2626 10.4964C14.0325 10.5034 13.7885 10.4951 13.5584 10.4713C13.3521 10.4536 13.1436 10.4287 12.9345 10.3919C12.7996 10.3676 12.6668 10.3432 12.533 10.3128C12.1867 10.2395 11.841 10.135 11.6115 10.0631C11.325 9.96767 11.0346 9.86036 10.7409 9.742C10.3322 10.7719 9.29397 12.7777 7.30056 13.1599C7.26461 13.1669 7.22921 13.1702 7.19381 13.1702ZM13.6093 4.35664C9.32052 4.35664 7.49912 7.12357 7.09425 8.89021C6.80552 10.1624 7.22036 11.3515 7.4853 11.9331C9.15348 11.2888 9.85205 8.85896 9.8598 8.83268C9.90405 8.67422 10.0152 8.5423 10.164 8.47233C10.3128 8.40209 10.4854 8.40043 10.6353 8.46708C11.0899 8.66924 11.5357 8.84375 11.9605 8.98534C12.2846 9.08711 12.5391 9.15625 12.7763 9.20631C12.9013 9.2348 13.0175 9.25581 13.1331 9.27656C13.3073 9.30753 13.4838 9.32799 13.6652 9.34376C13.8566 9.36339 14.0518 9.37031 14.2769 9.3645C14.4053 9.36865 14.4915 9.36395 14.5823 9.35537L14.9335 9.32136C15.0906 9.30227 15.257 9.276 15.434 9.23977L15.8505 9.14077C15.9589 9.10979 16.0978 9.0672 16.2416 9.01908C16.4319 8.95575 16.616 8.91731 16.8035 8.90155C16.8074 8.90127 16.8721 8.89823 16.876 8.89823C17.1183 8.88329 17.3649 8.91731 17.5818 8.99613C17.6824 9.03568 17.7665 9.07163 17.8511 9.12251C17.9695 9.18419 18.1061 9.28347 18.2411 9.41041C18.6 9.75693 18.8213 10.1936 19.0165 10.5789C19.0757 10.6958 19.136 10.815 19.1935 10.9157C19.4673 10.9337 19.7129 10.9962 19.9402 11.1057C20.3905 9.48148 20.1023 7.98975 19.0807 6.66228C18.1194 5.407 16.5945 4.6119 14.7863 4.42218C14.3748 4.37766 13.9827 4.35664 13.6093 4.35664Z" fill="#303030"/>
<path d="M21.3483 36.2061H3.5921C2.64058 36.2061 1.87598 35.4415 1.87598 34.49V31.6467C1.87598 27.5121 5.22896 24.1648 9.36357 24.1648H9.4372L9.36924 24.2497L11.4195 26.9174L13.4415 24.6066L13.8323 24.1648L14.2175 24.6009L16.2395 26.9174L18.2955 24.2497L18.2275 24.1648H18.3011C18.8335 24.1648 19.3603 24.2214 19.8587 24.329H19.5642V34.422C19.5642 35.028 19.87 35.5661 20.3345 35.889C20.6233 36.0929 20.9688 36.2061 21.3483 36.2061Z" fill="white"/>
<path d="M21.3482 36.7724H3.59226C2.33338 36.7724 1.30957 35.7486 1.30957 34.49V31.6467C1.30957 27.2088 4.92249 23.5984 9.36396 23.5984H9.43752C9.65545 23.5984 9.85402 23.7234 9.94804 23.9197C9.98289 23.9917 10.0011 24.0683 10.0034 24.1451L11.4481 26.0249L13.4083 23.7892C13.5162 23.6678 13.6705 23.5984 13.8325 23.5984C13.9946 23.5984 14.1495 23.6684 14.2573 23.79L16.2126 26.0249L17.6617 24.1446C17.6645 24.068 17.6827 23.9914 17.717 23.9197C17.8111 23.7234 18.0096 23.5984 18.2275 23.5984H18.3011C18.8697 23.5984 19.4339 23.6578 19.9781 23.7754C20.2613 23.8365 20.4527 24.1012 20.4217 24.3891C20.4018 24.5793 20.2884 24.7392 20.1308 24.8257V34.4219C20.1308 34.8199 20.3277 35.1943 20.6579 35.4242C20.8615 35.5677 21.0932 35.6396 21.3482 35.6396C21.6613 35.6396 21.9146 35.8932 21.9146 36.206C21.9146 36.5188 21.6613 36.7724 21.3482 36.7724ZM9.03154 24.7392C5.36884 24.9131 2.44234 27.945 2.44234 31.6467V34.49C2.44234 35.1238 2.95839 35.6396 3.59226 35.6396H19.3393C19.1192 35.277 18.998 34.8569 18.998 34.4219V24.766C18.8769 24.7538 18.7558 24.745 18.6335 24.7392L16.6882 27.263C16.5848 27.3974 16.4266 27.4782 16.2568 27.4834C16.0948 27.4986 15.9244 27.4176 15.8132 27.2898L13.832 25.0204L11.8463 27.2901C11.7346 27.4182 11.5598 27.4953 11.4022 27.4834C11.2324 27.4782 11.0742 27.3969 10.9707 27.2625L9.03154 24.7392Z" fill="#303030"/>
<path d="M16.2399 27.483C16.0768 27.483 15.9208 27.4125 15.8135 27.2891L13.408 24.5388C13.2957 24.4113 13.2465 24.2401 13.2741 24.0722C13.3012 23.9044 13.403 23.7581 13.5501 23.6732L16.595 21.9184C16.8434 21.7752 17.1559 21.838 17.329 22.0634L18.7378 23.8947C18.9009 24.0985 18.9037 24.3878 18.7444 24.5947L16.6885 27.2623C16.5851 27.3967 16.4269 27.4775 16.2571 27.4827C16.2515 27.483 16.2455 27.483 16.2399 27.483ZM14.7155 24.3095L16.2128 26.0242L17.5801 24.2501L16.7338 23.148L14.7155 24.3095Z" fill="#303030"/>
<path d="M11.4194 27.4829C11.4133 27.4829 11.4072 27.4829 11.4017 27.4826C11.2319 27.4773 11.0737 27.396 10.9703 27.2616L8.91988 24.594C8.76114 24.3871 8.76391 24.0984 8.92707 23.8946L8.99511 23.8097L10.3358 22.0632C10.509 21.8378 10.8215 21.7753 11.0698 21.9183L14.1147 23.6731C14.2618 23.758 14.3636 23.9045 14.3912 24.0727C14.4184 24.2405 14.3691 24.412 14.2563 24.5395L11.8458 27.2893C11.738 27.4126 11.5826 27.4829 11.4194 27.4829ZM10.0847 24.2505L11.4476 26.024L12.9482 24.3089L10.931 23.1479L10.0847 24.2505Z" fill="#303030"/>
<path d="M13.8309 24.7301C13.7336 24.7301 13.6357 24.705 13.5483 24.6546L10.9205 23.1424C10.7451 23.0415 10.6367 22.8542 10.6367 22.6515V18.9756C10.6367 18.7576 10.7617 18.5591 10.9581 18.465C11.1544 18.3702 11.3873 18.3973 11.5576 18.5336C12.2557 19.0937 13.0206 19.3777 13.8309 19.3777C14.628 19.3777 15.4145 19.0873 16.1064 18.5378C16.2773 18.4025 16.5107 18.3768 16.7049 18.4714C16.9007 18.5657 17.0251 18.764 17.0251 18.9814V22.6515C17.0251 22.8542 16.9167 23.0415 16.7414 23.1424L14.1136 24.6546C14.0262 24.705 13.9283 24.7301 13.8309 24.7301ZM11.7695 22.3241L13.8309 23.5102L15.8924 22.3241V20.0135C14.5854 20.6686 13.0732 20.6681 11.7695 20.0118V22.3241Z" fill="#303030"/>
<path d="M19.5664 24.3296H38.1242V21.8924C38.1242 20.9067 37.3251 20.1077 36.3395 20.1077H21.3508C20.3653 20.1077 19.5664 20.9066 19.5664 21.8921V24.3296Z" fill="white"/>
<path d="M38.1248 24.8959H19.5674C19.2543 24.8959 19.001 24.6423 19.001 24.3295V21.892C19.001 20.5958 20.0558 19.5413 21.3517 19.5413H36.3404C37.6364 19.5413 38.6911 20.596 38.6911 21.8923V24.3295C38.6911 24.6423 38.4378 24.8959 38.1248 24.8959ZM20.1337 23.7632H37.5584V21.8923C37.5584 21.2205 37.0119 20.674 36.3404 20.674H21.3517C20.6802 20.674 20.1337 21.2205 20.1337 21.892V23.7632Z" fill="#303030"/>
<path d="M36.3121 36.7724H21.3482C20.862 36.7724 20.3985 36.6269 20.008 36.352C19.3764 35.9126 18.998 35.1902 18.998 34.422V24.3291C18.998 24.0163 19.2514 23.7627 19.5644 23.7627H38.1246C38.4377 23.7627 38.691 24.0163 38.691 24.3291V34.3937C38.691 35.7054 37.624 36.7724 36.3121 36.7724ZM20.1308 24.8955V34.422C20.1308 34.8199 20.3277 35.1944 20.6579 35.4242C20.8615 35.5677 21.0932 35.6396 21.3482 35.6396H36.3121C36.999 35.6396 37.5582 35.0807 37.5582 34.3937V24.8955H20.1308Z" fill="#303030"/>
<path d="M24.2778 23.1351C23.1638 23.1351 22.291 21.8051 22.291 20.1071C22.291 18.4093 23.1638 17.0793 24.2778 17.0793C25.3917 17.0793 26.2646 18.4093 26.2646 20.1071C26.2646 20.4199 26.0112 20.6735 25.6982 20.6735C25.3851 20.6735 25.1318 20.4199 25.1318 20.1071C25.1318 18.9502 24.6262 18.2121 24.2778 18.2121C23.9293 18.2121 23.4238 18.9502 23.4238 20.1071C23.4238 21.2639 23.9293 22.0023 24.2778 22.0023C24.5908 22.0023 24.8442 22.2559 24.8442 22.5687C24.8442 22.8815 24.5908 23.1351 24.2778 23.1351Z" fill="#303030"/>
<path d="M33.4145 23.1351C32.3005 23.1351 31.4277 21.8051 31.4277 20.1071C31.4277 18.4093 32.3005 17.0793 33.4145 17.0793C34.5285 17.0793 35.4013 18.4093 35.4013 20.1071C35.4013 20.4199 35.148 20.6735 34.8349 20.6735C34.5218 20.6735 34.2685 20.4199 34.2685 20.1071C34.2685 18.9502 33.763 18.2121 33.4145 18.2121C33.066 18.2121 32.5605 18.9502 32.5605 20.1071C32.5605 21.2639 33.066 22.0023 33.4145 22.0023C33.7276 22.0023 33.9809 22.2559 33.9809 22.5687C33.9809 22.8815 33.7276 23.1351 33.4145 23.1351Z" fill="#303030"/>
<path d="M32.013 29.7529L30.6523 30.7421C30.5176 30.8396 30.4572 31.016 30.513 31.174L31.0285 32.7715C31.1446 33.1291 30.7359 33.4263 30.434 33.2081L29.0733 32.2189C28.9386 32.1213 28.7529 32.1213 28.6182 32.2189L27.2575 33.2081C26.951 33.4263 26.5423 33.1291 26.6584 32.7715L27.1785 31.174C27.2296 31.016 27.1739 30.8396 27.0392 30.7421L25.6785 29.7529C25.3766 29.5299 25.5299 29.0516 25.906 29.0516H27.5872C27.7544 29.0516 27.903 28.9402 27.9587 28.7822L28.4742 27.1847C28.5903 26.8271 29.0965 26.8271 29.2126 27.1847L29.7327 28.7822C29.7839 28.9402 29.9325 29.0516 30.1043 29.0516H31.7854C32.1616 29.0516 32.3149 29.5299 32.013 29.7529Z" fill="white"/>
<path d="M30.6588 33.8473C30.4636 33.8473 30.2683 33.7873 30.1018 33.6669L28.8452 32.7535L27.5902 33.6658C27.2495 33.9095 26.7981 33.907 26.4629 33.6611C26.13 33.4169 25.9917 32.9888 26.1195 32.5961L26.599 31.1226L25.3451 30.2106C25.0083 29.9619 24.8711 29.5324 25 29.1395C25.131 28.7421 25.4867 28.4851 25.906 28.4851H27.4596L27.9348 27.0105C28.0636 26.6151 28.4281 26.3499 28.843 26.3499C29.2584 26.3499 29.6229 26.6151 29.7512 27.0094L30.2313 28.4851H31.785C32.2042 28.4851 32.5593 28.7418 32.6904 29.1389C32.8198 29.5319 32.6827 29.9617 32.3497 30.2081L31.0914 31.1229L31.5676 32.5972C31.6948 32.9905 31.556 33.4194 31.2208 33.6636C31.0526 33.7861 30.8557 33.8473 30.6588 33.8473ZM26.4557 29.6179L27.3717 30.2838C27.7063 30.5256 27.8452 30.9542 27.7168 31.3491L27.3651 32.4291L28.2849 31.7607C28.6201 31.5173 29.0697 31.517 29.4049 31.7598L30.322 32.4263L29.9735 31.3478C29.8408 30.9722 29.9813 30.5283 30.3203 30.283L31.2352 29.6179H30.1041C29.687 29.6179 29.3209 29.3519 29.1931 28.9558L28.8441 27.8825L28.4978 28.9561C28.3557 29.3579 27.9917 29.6179 27.5869 29.6179H26.4557ZM31.0466 30.9849L31.0504 30.996C31.0493 30.9924 31.0482 30.9885 31.0466 30.9849Z" fill="#303030"/>
</svg>
