<svg width="40" height="40" viewBox="0 0 40 40" fill="none" xmlns="http://www.w3.org/2000/svg">
<path d="M39.915 30.3125L37.8125 26.7056V23.75C37.8125 23.5842 37.7467 23.4253 37.6294 23.3081C37.5122 23.1908 37.3533 23.125 37.1875 23.125H33.4375V15.625C33.4375 15.4592 33.3717 15.3003 33.2544 15.1831C33.1372 15.0658 32.9783 15 32.8125 15H29.375V11.875H30C30.1658 11.875 30.3247 11.8092 30.4419 11.6919C30.5592 11.5747 30.625 11.4158 30.625 11.25V8.75C30.625 8.60074 30.5716 8.45641 30.4744 8.34313L26.875 4.14375V0.625C26.875 0.45924 26.8092 0.300269 26.6919 0.183058C26.5747 0.065848 26.4158 0 26.25 0L13.75 0C13.5842 0 13.4253 0.065848 13.3081 0.183058C13.1908 0.300269 13.125 0.45924 13.125 0.625V4.14375L9.52563 8.34313C9.42844 8.45641 9.37501 8.60074 9.375 8.75V11.25C9.375 11.4158 9.44085 11.5747 9.55806 11.6919C9.67527 11.8092 9.83424 11.875 10 11.875H10.625V15H7.1875C7.02174 15 6.86277 15.0658 6.74556 15.1831C6.62835 15.3003 6.5625 15.4592 6.5625 15.625V23.125H2.8125C2.64674 23.125 2.48777 23.1908 2.37056 23.3081C2.25335 23.4253 2.1875 23.5842 2.1875 23.75V26.7056L0.085 30.3125C0.0297022 30.4074 0.000384648 30.5152 0 30.625L0 33.125C0 33.2908 0.065848 33.4497 0.183058 33.5669C0.300269 33.6842 0.45924 33.75 0.625 33.75H0.9375V39.375C0.9375 39.5408 1.00335 39.6997 1.12056 39.8169C1.23777 39.9342 1.39674 40 1.5625 40H12.8125C12.9783 40 13.1372 39.9342 13.2544 39.8169C13.3717 39.6997 13.4375 39.5408 13.4375 39.375V36.875H26.5625V39.375C26.5625 39.5408 26.6283 39.6997 26.7456 39.8169C26.8628 39.9342 27.0217 40 27.1875 40H38.4375C38.6033 40 38.7622 39.9342 38.8794 39.8169C38.9967 39.6997 39.0625 39.5408 39.0625 39.375V33.75H39.375C39.5408 33.75 39.6997 33.6842 39.8169 33.5669C39.9342 33.4497 40 33.2908 40 33.125V30.625C39.9996 30.5152 39.9703 30.4074 39.915 30.3125ZM38.29 30H35.515L35.0288 27.5H36.8281L38.29 30ZM36.5625 24.375V26.25H29.0625V24.375H36.5625ZM34.375 31.25V32.5H31.25V31.25H34.375ZM31.3831 30L31.8694 27.5H33.7556L34.2419 30H31.3831ZM30.5962 27.5L30.11 30H27.3381L28.7969 27.5H30.5962ZM29.375 10.625H26.625V9.375H29.375V10.625ZM25 13.125C24.8342 13.125 24.6753 13.1908 24.5581 13.3081C24.4408 13.4253 24.375 13.5842 24.375 13.75V17.5C24.375 17.6658 24.4408 17.8247 24.5581 17.9419C24.6753 18.0592 24.8342 18.125 25 18.125H28.125V20.625H23.125V13.75C23.125 13.5842 23.0592 13.4253 22.9419 13.3081C22.8247 13.1908 22.6658 13.125 22.5 13.125H17.5C17.3342 13.125 17.1753 13.1908 17.0581 13.3081C16.9408 13.4253 16.875 13.5842 16.875 13.75V20.625H11.875V18.125H15C15.1658 18.125 15.3247 18.0592 15.4419 17.9419C15.5592 17.8247 15.625 17.6658 15.625 17.5V13.75C15.625 13.5842 15.5592 13.4253 15.4419 13.3081C15.3247 13.1908 15.1658 13.125 15 13.125H11.875V11.875H28.125V13.125H25ZM28.125 14.375V16.875H25.625V14.375H28.125ZM21.875 14.375V20.625H20.625V14.375H21.875ZM19.375 14.375V20.625H18.125V14.375H19.375ZM11.875 16.875V14.375H14.375V16.875H11.875ZM17.375 9.375V10.625H14.625V9.375H17.375ZM15.0244 8.125L16.6313 5H18.0063L17.47 8.125H15.0244ZM21.375 9.375V10.625H18.625V9.375H21.375ZM18.7412 8.125L19.2769 5H20.7231L21.2588 8.125H18.7412ZM22.5275 8.125L21.9913 5H23.3663L24.9731 8.125H22.5275ZM25.375 9.375V10.625H22.625V9.375H25.375ZM28.6413 8.125H26.3812L24.7744 5H25.9619L28.6413 8.125ZM14.375 1.25H25.625V3.75H14.375V1.25ZM14.0375 5H15.225L13.6188 8.125H11.3587L14.0375 5ZM10.625 9.375H13.375V10.625H10.625V9.375ZM3.4375 24.375H10.9375V26.25H3.4375V24.375ZM11.2031 27.5L12.6619 30H9.89L9.40375 27.5H11.2031ZM8.75 31.25V32.5H5.625V31.25H8.75ZM5.75813 30L6.24438 27.5H8.13062L8.61687 30H5.75813ZM3.17188 27.5H4.97125L4.485 30H1.71312L3.17188 27.5ZM1.25 32.5V31.25H4.375V32.5H1.25ZM8.125 38.75H6.25V36.875H8.125V38.75ZM12.1875 38.75H9.375V36.25C9.375 36.0842 9.30915 35.9253 9.19194 35.8081C9.07473 35.6908 8.91576 35.625 8.75 35.625H5.625C5.45924 35.625 5.30027 35.6908 5.18306 35.8081C5.06585 35.9253 5 36.0842 5 36.25V38.75H2.1875V33.75H12.1875V38.75ZM13.125 32.5H10V31.25H13.125V32.5ZM26.25 33.75H26.5625V35.625H13.4375V33.75H13.75C13.9158 33.75 14.0747 33.6842 14.1919 33.5669C14.3092 33.4497 14.375 33.2908 14.375 33.125V30.625C14.3746 30.5152 14.3453 30.4074 14.29 30.3125L12.1875 26.7056V23.75C12.1875 23.5842 12.1217 23.4253 12.0044 23.3081C11.8872 23.1908 11.7283 23.125 11.5625 23.125H7.8125V16.25H10.625V21.25C10.625 21.4158 10.6908 21.5747 10.8081 21.6919C10.9253 21.8092 11.0842 21.875 11.25 21.875H28.75C28.9158 21.875 29.0747 21.8092 29.1919 21.6919C29.3092 21.5747 29.375 21.4158 29.375 21.25V16.25H32.1875V23.125H28.4375C28.2717 23.125 28.1128 23.1908 27.9956 23.3081C27.8783 23.4253 27.8125 23.5842 27.8125 23.75V26.7056L25.71 30.3125C25.6547 30.4074 25.6254 30.5152 25.625 30.625V33.125C25.625 33.2908 25.6908 33.4497 25.8081 33.5669C25.9253 33.6842 26.0842 33.75 26.25 33.75ZM26.875 32.5V31.25H30V32.5H26.875ZM33.75 38.75H31.875V36.875H33.75V38.75ZM37.8125 38.75H35V36.25C35 36.0842 34.9342 35.9253 34.8169 35.8081C34.6997 35.6908 34.5408 35.625 34.375 35.625H31.25C31.0842 35.625 30.9253 35.6908 30.8081 35.8081C30.6908 35.9253 30.625 36.0842 30.625 36.25V38.75H27.8125V33.75H37.8125V38.75ZM38.75 32.5H35.625V31.25H38.75V32.5Z" fill="#303030"/>
</svg>
