<svg width="64" height="46" viewBox="0 0 64 46" fill="none" xmlns="http://www.w3.org/2000/svg">
<path d="M26.3369 9.84924C25.4156 9.84924 24.4086 10.1802 23.7134 10.9645C22.8031 11.9915 22.5177 15.0606 22.5515 16.6094C24.0886 16.6466 27.0274 16.6059 28.2179 15.422C29.4628 14.184 29.8034 12.0207 28.4797 10.7042C27.9035 10.1312 27.1343 9.84924 26.3369 9.84924Z" fill="#303030"/>
<path d="M14.6054 9.84924C15.5267 9.84924 16.5338 10.1802 17.2289 10.9645C18.1392 11.9915 18.4246 15.0606 18.3908 16.6094C16.8538 16.6466 13.9148 16.6059 12.7244 15.422C11.4795 14.184 11.1389 12.0207 12.4626 10.7042C13.0388 10.1312 13.808 9.84924 14.6054 9.84924Z" fill="#303030"/>
<path d="M31.3811 7.79783C33.7186 10.1221 34.03 13.7854 32.4285 16.6095H64.0005V6.2967C64.0005 3.05991 61.3717 0.435913 58.129 0.435913H22.5234V6.76385C25.401 5.14019 29.0369 5.46689 31.3811 7.79783C32.7128 9.122 29.0369 5.46689 31.3811 7.79783Z" fill="#303030"/>
<path d="M13.9103 28.1445L10.9973 25.2504L15.5229 20.712H0V39.7032C0 42.9401 2.62879 45.5641 5.87145 45.5641H18.4129V23.6292L13.9103 28.1445Z" fill="#303030"/>
<path d="M25.3954 20.712L29.8606 25.213L26.9401 28.0995L22.5234 23.6476V45.5641H58.129C61.3717 45.5641 64.0005 42.9401 64.0005 39.7034V20.712H25.3954Z" fill="#303030"/>
<path d="M8.50776 16.6095C6.90598 13.785 7.21792 10.1219 9.55515 7.79783C11.8992 5.46689 15.5352 5.14032 18.4129 6.76385V0.435913H5.87145C2.62879 0.435913 0 3.05991 0 6.2967V16.6095H8.50776Z" fill="#303030"/>
</svg>
