<svg width="80" height="80" viewBox="0 0 80 80" fill="none" xmlns="http://www.w3.org/2000/svg">
<rect width="80" height="80" rx="40" fill="#FEE7F1"/>
<path d="M45.7951 41.4834L48.3201 55.6934C48.3484 55.8607 48.3249 56.0327 48.2528 56.1863C48.1807 56.3399 48.0634 56.4679 47.9166 56.5531C47.7698 56.6382 47.6006 56.6766 47.4314 56.6629C47.2623 56.6493 47.1013 56.5843 46.9701 56.4767L41.0034 51.9984C40.7154 51.7832 40.3655 51.6669 40.0059 51.6669C39.6464 51.6669 39.2964 51.7832 39.0084 51.9984L33.0317 56.4751C32.9006 56.5825 32.7398 56.6473 32.5709 56.661C32.402 56.6746 32.2329 56.6364 32.0862 56.5515C31.9395 56.4666 31.8222 56.3389 31.7499 56.1856C31.6777 56.0323 31.6539 55.8606 31.6817 55.6934L34.2051 41.4834" stroke="#E92827" stroke-width="3.33333" stroke-linecap="round" stroke-linejoin="round"/>
<path d="M40 43.3333C45.5228 43.3333 50 38.8561 50 33.3333C50 27.8104 45.5228 23.3333 40 23.3333C34.4772 23.3333 30 27.8104 30 33.3333C30 38.8561 34.4772 43.3333 40 43.3333Z" stroke="#E92827" stroke-width="3.33333" stroke-linecap="round" stroke-linejoin="round"/>
</svg>
