<svg width="60" height="60" viewBox="0 0 60 60" fill="none" xmlns="http://www.w3.org/2000/svg">
<path d="M25.7961 36.1953L24.916 38.4756H26.6761L25.7961 36.1953Z" fill="#303030"/>
<path d="M35.252 38.4756H37.0121L36.132 36.1953L35.252 38.4756Z" fill="#303030"/>
<path d="M47.6203 22.8378C46.6061 20.3939 46.5114 17.9288 46.4278 15.7551C46.3896 14.7459 45.5882 13.9454 44.6038 13.9068C42.408 13.8231 39.9443 13.7294 37.4967 12.7137C35.1121 11.7257 33.3487 10.0731 31.7936 8.6154C31.6995 8.55302 31.2506 7.96375 30.34 7.96375C29.4299 7.96375 28.9843 8.55204 28.8901 8.61448C27.3299 10.075 25.567 11.7257 23.1833 12.7137C20.7352 13.7266 18.2706 13.8194 16.096 13.9013C15.0859 13.9408 14.2835 14.7422 14.2454 15.7285C14.1594 17.927 14.0634 20.3911 13.0491 22.8351C12.0737 25.1866 10.5173 26.8658 8.80509 28.6926C8.12448 29.4196 8.12448 30.5639 8.80738 31.2937C10.5037 33.1057 12.0736 34.8001 13.0482 37.1531C14.0606 39.5961 14.1562 42.0593 14.2398 44.2321C14.2793 45.2533 15.0813 46.0557 16.0675 46.0933C18.2688 46.177 20.7325 46.2707 23.181 47.2864C25.5443 48.265 27.2303 49.8319 29.0376 51.5244C29.7697 52.2092 30.914 52.211 31.6442 51.5262C33.4647 49.7787 35.2611 48.2139 37.4986 47.2845C39.9452 46.2698 42.4076 46.1742 44.5804 46.0906C45.5918 46.0511 46.3928 45.2487 46.4305 44.2634C46.5137 42.0639 46.607 39.5979 47.6208 37.1503C48.596 34.7965 50.1486 33.1205 51.8588 31.2946C52.5418 30.5639 52.5418 29.4196 51.8584 28.6898C50.1638 26.8818 48.5947 25.1875 47.6203 22.8378ZM27.0661 26.3323H28.1934C29.2247 26.3323 30.1567 25.9295 30.8668 25.2864L27.062 19.4536C26.8487 19.1264 26.9407 18.6889 27.2674 18.4766C27.5932 18.2624 28.0312 18.3553 28.244 18.6816L31.7702 24.0873C32.0326 23.5551 32.1934 22.9647 32.1934 22.3323V16.3277C32.1934 15.938 32.5096 15.6218 32.8993 15.6218C33.289 15.6218 33.6052 15.938 33.6052 16.3277V22.3323V23.9867C33.6052 25.2593 34.7244 26.2436 35.9917 26.0897C37.0523 25.9592 38.0436 25.7937 39.0022 25.6338C39.812 25.4977 40.584 25.3691 41.3814 25.2625C40.9007 24.7156 40.5367 24.1761 40.2338 23.7275C39.5643 22.7358 39.2807 22.3884 38.7306 22.3884C37.6479 22.3884 37.2283 23.699 37.2242 23.7128C37.1093 24.0851 36.7159 24.2965 36.3409 24.177C35.9682 24.0621 35.7605 23.6659 35.8758 23.2937C35.9053 23.199 36.6194 20.9766 38.7306 20.9766C40.0803 20.9766 40.7233 21.9297 41.4043 22.938C41.755 23.4582 42.153 24.0474 42.7049 24.6145C43.3876 25.3139 42.979 26.4879 42.005 26.6053C41.0748 26.7183 40.181 26.8681 39.2348 27.0262C38.2614 27.1889 37.255 27.3562 36.1635 27.4904C34.7387 27.6634 33.259 26.9697 32.5558 25.5216C31.5702 26.866 29.9843 27.7441 28.1934 27.7441H27.0661C26.6764 27.7441 26.3602 27.4279 26.3602 27.0382C26.3602 26.6485 26.6764 26.3323 27.0661 26.3323ZM32.9572 39.5639C33.0746 39.5639 33.1732 39.6611 33.1732 39.7799V40.3479C33.1732 40.4667 33.0746 40.5639 32.9572 40.5639H29.4531C29.3357 40.5639 29.2371 40.4667 29.2371 40.3479V35.1797C29.2371 35.0609 29.3357 34.9637 29.4531 34.9637H30.1011C30.2185 34.9637 30.3171 35.0609 30.3171 35.1797V39.5639H32.9572ZM18.5684 32.2588C18.1787 32.2588 17.8625 31.9426 17.8625 31.5529C17.8625 31.1632 18.1787 30.847 18.5684 30.847H42.0978C42.4875 30.847 42.8037 31.1632 42.8037 31.5529C42.8037 31.9426 42.4875 32.2588 42.0978 32.2588H18.5684ZM18.3295 23.2542C18.7192 23.2542 19.0353 23.5704 19.0353 23.9601C19.0353 25.268 20.0992 26.3323 21.4071 26.3323C22.715 26.3323 23.7789 25.268 23.7789 23.9601V16.3277C23.7789 15.938 24.0951 15.6218 24.4848 15.6218C24.8745 15.6218 25.1907 15.938 25.1907 16.3277V23.9601C25.1907 26.0465 23.4935 27.7441 21.4071 27.7441C19.3207 27.7441 17.6236 26.0465 17.6236 23.9601C17.6236 23.5704 17.9397 23.2542 18.3295 23.2542ZM22.3566 40.3479C22.3566 40.4647 22.2596 40.5639 22.1406 40.5639H21.4926C21.3752 40.5639 21.2766 40.4667 21.2766 40.3479V38.2358H18.8602V40.3479C18.8602 40.4667 18.7617 40.5639 18.6443 40.5639H17.9963C17.8822 40.5639 17.7803 40.4807 17.7803 40.3479V35.1797C17.7803 35.0609 17.8789 34.9637 17.9963 34.9637H18.6443C18.7617 34.9637 18.8602 35.0609 18.8602 35.1797V37.2358H21.2766V35.1797C21.2766 35.0609 21.3752 34.9637 21.4926 34.9637H22.1406C22.2598 34.9637 22.3566 35.063 22.3566 35.1797V40.3479ZM23.3005 40.5639C23.1505 40.5639 23.0514 40.4092 23.0928 40.2919L25.0528 35.2358C25.1345 35.0047 25.2263 34.9637 25.3566 34.9637H26.2366C26.3681 34.9637 26.4595 35.0056 26.5409 35.2358L28.5009 40.2919C28.5421 40.4087 28.4437 40.5639 28.2932 40.5639H27.7169C27.5733 40.5639 27.4646 40.5238 27.4048 40.3636L27.0611 39.4757H24.5326L24.1888 40.3636C24.1291 40.5238 24.0197 40.5639 23.8768 40.5639H23.3005ZM35.9802 44.5391H24.6861C24.2964 44.5391 23.9802 44.2229 23.9802 43.8332C23.9802 43.4435 24.2964 43.1273 24.6861 43.1273H35.9802C36.3699 43.1273 36.6861 43.4435 36.6861 43.8332C36.6861 44.2229 36.3699 44.5391 35.9802 44.5391ZM38.6295 40.5639H38.0533C37.9096 40.5639 37.801 40.5238 37.7412 40.3636L37.3975 39.4757H34.869L34.5252 40.3636C34.4655 40.5238 34.3561 40.5639 34.2132 40.5639H33.6369C33.5179 40.5639 33.4209 40.464 33.4209 40.3479C33.4209 40.2536 33.3982 40.3857 35.3892 35.2358C35.4709 35.0047 35.5627 34.9637 35.693 34.9637H36.573C36.7045 34.9637 36.7959 35.0056 36.8773 35.2358L38.8373 40.2919C38.8785 40.4087 38.7801 40.5639 38.6295 40.5639ZM43.5096 40.3479C43.5096 40.4667 43.411 40.5639 43.2936 40.5639H39.7895C39.6721 40.5639 39.5735 40.4667 39.5735 40.3479V35.1797C39.5735 35.0609 39.6721 34.9637 39.7895 34.9637H40.4375C40.5549 34.9637 40.6534 35.0609 40.6534 35.1797V39.5639H43.2936C43.411 39.5639 43.5096 39.6611 43.5096 39.7799L43.5096 40.3479Z" fill="#303030"/>
<path d="M53.488 20.4045C52.1081 17.0778 53.6404 11.7085 51.133 9.20101C48.6257 6.69354 43.2562 8.22559 39.9293 6.8456C36.7196 5.51415 34.0349 0.588135 30.3442 0.588135C26.6509 0.588135 23.9635 5.51363 20.7525 6.84342C17.4226 8.22238 12.0528 6.68792 9.54366 9.19435C7.03332 11.7019 8.56251 17.0733 7.18119 20.4008C5.84835 23.6117 0.921875 26.2974 0.921875 29.9897C0.921875 33.6845 5.84777 36.3729 7.17899 39.585C8.55928 42.9156 7.02768 48.2872 9.53699 50.7965C12.0464 53.3059 17.418 51.7745 20.7487 53.1548C23.9608 54.4861 26.6492 59.4119 30.3442 59.4119C34.0364 59.4119 36.722 54.4855 39.9329 53.1527C43.2603 51.7715 48.6315 53.3007 51.139 50.7906C53.6456 48.2813 52.1112 42.9114 53.4901 39.5815C54.82 36.3705 59.7454 33.683 59.7454 29.9897C59.7454 26.299 54.8194 23.6143 53.488 20.4045ZM52.8892 32.2587C51.3279 33.9258 49.8118 35.5494 48.9246 37.6907C48.0078 39.9049 47.9196 42.2358 47.8419 44.2918C47.7753 46.0345 46.3791 47.4324 44.6618 47.4995C42.5804 47.5804 40.2518 47.6705 38.0391 48.5878C35.9164 49.4696 34.3133 50.9594 32.6774 52.4922C32.6769 52.4922 32.6094 52.5556 32.6094 52.5565C31.3406 53.7436 29.3488 53.7494 28.074 52.5565C26.4082 50.9966 24.7787 49.4759 22.6402 48.5896C20.4255 47.6723 18.096 47.5832 16.0409 47.5041C14.2946 47.4389 12.8961 46.04 12.8304 44.3203C12.7495 42.2321 12.6595 39.903 11.7436 37.6935C10.8658 35.575 9.38188 33.9738 7.83592 32.3222C6.5873 30.9876 6.5873 28.9959 7.77617 27.7247C9.32718 26.0703 10.8546 24.4397 11.7445 22.2946C12.6622 20.0841 12.7527 17.7541 12.8327 15.6981C12.9007 13.9554 14.2992 12.5584 16.017 12.4922C18.0983 12.4132 20.4287 12.3249 22.6429 11.4085C24.7795 10.5237 26.3959 9.01609 28.0363 7.48116C29.3474 6.25414 31.3396 6.25506 32.6098 7.44716C34.2684 9.00109 35.8946 10.522 38.0367 11.4104C40.2509 12.3277 42.5804 12.4168 44.6356 12.4959C46.3745 12.563 47.7716 13.9591 47.8378 15.676C47.9173 17.756 48.0069 20.0869 48.9242 22.2973C49.8025 24.4156 51.2858 26.0148 52.8318 27.6641C54.0781 28.9959 54.0781 30.9876 52.8892 32.2587Z" fill="#303030"/>
</svg>
