<svg width="80" height="80" viewBox="0 0 80 80" fill="none" xmlns="http://www.w3.org/2000/svg">
<rect width="80" height="80" rx="40" fill="#FEE7F1"/>
<path d="M38.3333 30C43.4023 30.1306 48.3565 28.4792 52.3333 25.3333C52.5809 25.1476 52.8754 25.0345 53.1837 25.0067C53.4919 24.9789 53.8018 25.0375 54.0787 25.176C54.3555 25.3144 54.5884 25.5272 54.7511 25.7904C54.9138 26.0537 55 26.3571 55 26.6667V46.6667C55 46.9762 54.9138 47.2796 54.7511 47.5429C54.5884 47.8062 54.3555 48.019 54.0787 48.1574C53.8018 48.2958 53.4919 48.3544 53.1837 48.3266C52.8754 48.2988 52.5809 48.1857 52.3333 48C48.3565 44.8542 43.4023 43.2028 38.3333 43.3333H28.3333C27.4493 43.3333 26.6014 42.9821 25.9763 42.357C25.3512 41.7319 25 40.8841 25 40V33.3333C25 32.4493 25.3512 31.6014 25.9763 30.9763C26.6014 30.3512 27.4493 30 28.3333 30H38.3333Z" stroke="#E92827" stroke-width="3.33333" stroke-linecap="round" stroke-linejoin="round"/>
<path d="M30 43.3333C30 47.6607 31.4036 51.8713 34 55.3333C34.5304 56.0405 35.3201 56.5081 36.1953 56.6331C37.0704 56.7581 37.9594 56.5304 38.6667 55.9999C39.3739 55.4695 39.8415 54.6798 39.9665 53.8047C40.0915 52.9295 39.8638 52.0405 39.3333 51.3333C37.6024 49.0253 36.6667 46.2182 36.6667 43.3333" stroke="#E92827" stroke-width="3.33333" stroke-linecap="round" stroke-linejoin="round"/>
<path d="M33.3335 30V43.3333" stroke="#E92827" stroke-width="3.33333" stroke-linecap="round" stroke-linejoin="round"/>
</svg>
