<svg width="64" height="64" viewBox="0 0 64 64" fill="none" xmlns="http://www.w3.org/2000/svg">
<path d="M27.4631 38.1953L26.583 40.4756H28.3431L27.4631 38.1953Z" fill="#303030"/>
<path d="M36.9194 40.4756H38.6795L37.7995 38.1953L36.9194 40.4756Z" fill="#303030"/>
<path d="M49.2864 24.8377C48.2721 22.3938 48.1775 19.9287 48.0938 17.755C48.0557 16.7458 47.2542 15.9452 46.2698 15.9066C44.074 15.823 41.6104 15.7292 39.1627 14.7136C36.7781 13.7256 35.0148 12.073 33.4596 10.6153C33.3655 10.5529 32.9167 9.96362 32.006 9.96362C31.0959 9.96362 30.6503 10.5519 30.5561 10.6144C28.9959 12.0748 27.2331 13.7256 24.8493 14.7136C22.4013 15.7265 19.9366 15.8193 17.762 15.9011C16.7519 15.9406 15.9495 16.7421 15.9114 17.7283C15.8254 19.9269 15.7294 22.391 14.7151 24.835C13.7397 27.1865 12.1833 28.8657 10.4711 30.6925C9.7905 31.4195 9.7905 32.5638 10.4734 33.2936C12.1697 35.1056 13.7396 36.8 14.7142 39.153C15.7266 41.596 15.8222 44.0592 15.9058 46.232C15.9454 47.2531 16.7473 48.0555 17.7335 48.0932C19.9348 48.1769 22.3985 48.2706 24.847 49.2862C27.2103 50.2649 28.8963 51.8318 30.7036 53.5243C31.4357 54.209 32.58 54.2109 33.3103 53.5261C35.1307 51.7785 36.9271 50.2137 39.1646 49.2844C41.6113 48.2697 44.0736 48.1741 46.2464 48.0905C47.2579 48.0509 48.0589 47.2486 48.0965 46.2633C48.1797 44.0638 48.273 41.5978 49.2868 39.1502C50.262 36.7964 51.8146 35.1204 53.5249 33.2945C54.2078 32.5638 54.2078 31.4195 53.5244 30.6897C51.8298 28.8817 50.2607 27.1874 49.2864 24.8377Z" fill="#303030"/>
<path d="M55.1546 22.4045C53.7746 19.0778 55.3069 13.7085 52.7995 11.201C50.2922 8.69354 44.9227 10.2256 41.5958 8.8456C38.3861 7.51415 35.7014 2.58813 32.0107 2.58813C28.3174 2.58813 25.63 7.51363 22.419 8.84342C19.0891 10.2224 13.7194 8.68792 11.2102 11.1943C8.69982 13.7019 10.229 19.0733 8.84769 22.4008C7.51485 25.6117 2.58838 28.2974 2.58838 31.9897C2.58838 35.6845 7.51427 38.3729 8.8455 41.585C10.2258 44.9156 8.69419 50.2872 11.2035 52.7965C13.7129 55.3059 19.0845 53.7745 22.4152 55.1548C25.6273 56.4861 28.3157 61.4119 32.0107 61.4119C35.7029 61.4119 38.3885 56.4855 41.5994 55.1527C44.9268 53.7715 50.2981 55.3007 52.8055 52.7906C55.3121 50.2813 53.7777 44.9114 55.1566 41.5815C56.4865 38.3705 61.4119 35.683 61.4119 31.9897C61.4119 28.299 56.4859 25.6143 55.1546 22.4045ZM54.5557 34.2587C52.9944 35.9258 51.4783 37.5494 50.5911 39.6907C49.6743 41.9049 49.5861 44.2358 49.5084 46.2918C49.4418 48.0345 48.0456 49.4324 46.3283 49.4995C44.2469 49.5804 41.9183 49.6705 39.7056 50.5878C37.5829 51.4696 35.9798 52.9594 34.3439 54.4922C34.3434 54.4922 34.2759 54.5556 34.2759 54.5565C33.0071 55.7436 31.0153 55.7494 29.7405 54.5565C28.0747 52.9966 26.4452 51.4759 24.3067 50.5896C22.092 49.6723 19.7625 49.5832 17.7074 49.5041C15.9611 49.4389 14.5626 48.04 14.4969 46.3203C14.416 44.2321 14.326 41.903 13.4101 39.6935C12.5323 37.575 11.0484 35.9738 9.50242 34.3222C8.2538 32.9876 8.2538 30.9959 9.44268 29.7247C10.9937 28.0703 12.5211 26.4397 13.411 24.2946C14.3287 22.0841 14.4192 19.7541 14.4992 17.6981C14.5672 15.9554 15.9657 14.5584 17.6835 14.4922C19.7648 14.4132 22.0952 14.3249 24.3094 13.4085C26.446 12.5237 28.0624 11.0161 29.7028 9.48116C31.0139 8.25414 33.0061 8.25506 34.2763 9.44716C35.9349 11.0011 37.5611 12.522 39.7033 13.4104C41.9174 14.3277 44.2469 14.4168 46.3021 14.4959C48.041 14.563 49.4381 15.9591 49.5043 17.676C49.5838 19.756 49.6734 22.0869 50.5907 24.2973C51.469 26.4156 52.9523 28.0148 54.4983 29.6641C55.7446 30.9959 55.7446 32.9876 54.5557 34.2587Z" fill="#303030"/>
<path d="M27.775 28V22.4H28.735L31.431 26.448V22.4H32.391V28H31.431L28.735 23.96V28H27.775ZM35.3652 28.096C34.9812 28.096 34.6346 28.008 34.3252 27.832C34.0212 27.6507 33.7812 27.4027 33.6052 27.088C33.4346 26.768 33.3492 26.4027 33.3492 25.992C33.3492 25.5707 33.4372 25.2027 33.6132 24.888C33.7892 24.568 34.0292 24.32 34.3332 24.144C34.6426 23.9627 34.9892 23.872 35.3732 23.872C35.7572 23.872 36.1012 23.9627 36.4052 24.144C36.7146 24.32 36.9546 24.5653 37.1252 24.88C37.3012 25.1947 37.3892 25.5627 37.3892 25.984C37.3892 26.4053 37.3012 26.7733 37.1252 27.088C36.9492 27.4027 36.7066 27.6507 36.3972 27.832C36.0932 28.008 35.7492 28.096 35.3652 28.096ZM35.3652 27.272C35.5572 27.272 35.7306 27.224 35.8852 27.128C36.0452 27.032 36.1732 26.888 36.2692 26.696C36.3652 26.504 36.4132 26.2667 36.4132 25.984C36.4132 25.7013 36.3652 25.4667 36.2692 25.28C36.1786 25.088 36.0532 24.944 35.8932 24.848C35.7386 24.752 35.5652 24.704 35.3732 24.704C35.1866 24.704 35.0132 24.752 34.8532 24.848C34.6932 24.944 34.5652 25.088 34.4692 25.28C34.3732 25.4667 34.3252 25.7013 34.3252 25.984C34.3252 26.2667 34.3732 26.504 34.4692 26.696C34.5652 26.888 34.6906 27.032 34.8452 27.128C35.0052 27.224 35.1786 27.272 35.3652 27.272ZM19.2502 38.096C18.7222 38.096 18.2582 37.976 17.8582 37.736C17.4635 37.496 17.1569 37.1627 16.9382 36.736C16.7195 36.304 16.6102 35.8 16.6102 35.224C16.6102 34.6533 16.7222 34.1493 16.9462 33.712C17.1702 33.2693 17.4902 32.9253 17.9062 32.68C18.3275 32.4293 18.8262 32.304 19.4022 32.304C20.0529 32.304 20.5915 32.4613 21.0182 32.776C21.4502 33.0853 21.7302 33.5173 21.8582 34.072H20.7782C20.6982 33.7947 20.5409 33.5787 20.3062 33.424C20.0715 33.2693 19.7675 33.192 19.3942 33.192C19.0155 33.192 18.6902 33.2747 18.4182 33.44C18.1515 33.6 17.9462 33.8347 17.8022 34.144C17.6635 34.448 17.5942 34.8107 17.5942 35.232C17.5942 35.6533 17.6635 36.016 17.8022 36.32C17.9462 36.624 18.1489 36.856 18.4102 37.016C18.6715 37.1707 18.9782 37.248 19.3302 37.248C19.8529 37.248 20.2475 37.1013 20.5142 36.808C20.7809 36.5147 20.9382 36.1333 20.9862 35.664H19.5382V34.936H21.9542V38H21.0742L20.9942 37.232C20.8715 37.4133 20.7302 37.5707 20.5702 37.704C20.4102 37.832 20.2209 37.9307 20.0022 38C19.7889 38.064 19.5382 38.096 19.2502 38.096ZM24.8459 38.096C24.4459 38.096 24.0939 38.0107 23.7899 37.84C23.4859 37.664 23.2485 37.4187 23.0779 37.104C22.9072 36.7893 22.8219 36.4267 22.8219 36.016C22.8219 35.5893 22.9045 35.216 23.0699 34.896C23.2405 34.576 23.4779 34.3253 23.7819 34.144C24.0912 33.9627 24.4485 33.872 24.8539 33.872C25.2485 33.872 25.5925 33.96 25.8859 34.136C26.1792 34.312 26.4059 34.5493 26.5659 34.848C26.7259 35.1413 26.8059 35.472 26.8059 35.84C26.8059 35.8933 26.8059 35.952 26.8059 36.016C26.8059 36.08 26.8005 36.1467 26.7899 36.216H23.5099V35.6H25.8379C25.8272 35.3067 25.7285 35.0773 25.5419 34.912C25.3552 34.7413 25.1232 34.656 24.8459 34.656C24.6485 34.656 24.4672 34.7013 24.3019 34.792C24.1365 34.8827 24.0059 35.0187 23.9099 35.2C23.8139 35.376 23.7659 35.6 23.7659 35.872V36.104C23.7659 36.3547 23.8112 36.5707 23.9019 36.752C23.9979 36.9333 24.1259 37.072 24.2859 37.168C24.4512 37.2587 24.6352 37.304 24.8379 37.304C25.0619 37.304 25.2459 37.256 25.3899 37.16C25.5392 37.064 25.6485 36.936 25.7179 36.776H26.6939C26.6192 37.0267 26.4965 37.2533 26.3259 37.456C26.1552 37.6533 25.9445 37.8107 25.6939 37.928C25.4432 38.04 25.1605 38.096 24.8459 38.096ZM27.6923 38V32.24H28.6523V38H27.6923ZM31.0675 38.096C30.7368 38.096 30.4622 38.04 30.2435 37.928C30.0248 37.816 29.8622 37.6667 29.7555 37.48C29.6488 37.2933 29.5955 37.0907 29.5955 36.872C29.5955 36.616 29.6595 36.3947 29.7875 36.208C29.9208 36.0213 30.1155 35.8773 30.3715 35.776C30.6275 35.6693 30.9422 35.616 31.3155 35.616H32.3315C32.3315 35.4027 32.3022 35.2267 32.2435 35.088C32.1848 34.944 32.0942 34.8373 31.9715 34.768C31.8488 34.6987 31.6915 34.664 31.4995 34.664C31.2808 34.664 31.0942 34.7147 30.9395 34.816C30.7848 34.912 30.6888 35.0613 30.6515 35.264H29.7075C29.7395 34.976 29.8355 34.7307 29.9955 34.528C30.1555 34.32 30.3662 34.16 30.6275 34.048C30.8942 33.9307 31.1848 33.872 31.4995 33.872C31.8782 33.872 32.2008 33.9387 32.4675 34.072C32.7342 34.2 32.9368 34.3867 33.0755 34.632C33.2195 34.872 33.2915 35.1627 33.2915 35.504V38H32.4755L32.3795 37.352C32.3262 37.4587 32.2568 37.5573 32.1715 37.648C32.0915 37.7387 31.9982 37.8187 31.8915 37.888C31.7848 37.952 31.6622 38.0027 31.5235 38.04C31.3902 38.0773 31.2382 38.096 31.0675 38.096ZM31.2835 37.336C31.4382 37.336 31.5742 37.3093 31.6915 37.256C31.8142 37.1973 31.9182 37.1173 32.0035 37.016C32.0942 36.9093 32.1635 36.792 32.2115 36.664C32.2595 36.536 32.2915 36.4 32.3075 36.256V36.24H31.4195C31.2328 36.24 31.0782 36.264 30.9555 36.312C30.8328 36.3547 30.7448 36.4187 30.6915 36.504C30.6382 36.5893 30.6115 36.688 30.6115 36.8C30.6115 36.912 30.6382 37.008 30.6915 37.088C30.7448 37.168 30.8222 37.2293 30.9235 37.272C31.0248 37.3147 31.1448 37.336 31.2835 37.336ZM36.0068 38C35.7348 38 35.4974 37.9573 35.2948 37.872C35.0974 37.7867 34.9428 37.6453 34.8308 37.448C34.7188 37.2507 34.6628 36.984 34.6628 36.648V34.776H33.9748V33.968H34.6628L34.7747 32.904H35.6228V33.968H36.7188V34.776H35.6228V36.648C35.6228 36.8507 35.6654 36.992 35.7508 37.072C35.8414 37.1467 35.9908 37.184 36.1988 37.184H36.6948V38H36.0068ZM37.6619 38V33.968H38.6219V38H37.6619ZM38.1419 33.328C37.9659 33.328 37.8193 33.2747 37.7019 33.168C37.5899 33.056 37.5339 32.92 37.5339 32.76C37.5339 32.5947 37.5899 32.4613 37.7019 32.36C37.8193 32.2533 37.9659 32.2 38.1419 32.2C38.3179 32.2 38.4619 32.2533 38.5739 32.36C38.6913 32.4613 38.7499 32.5947 38.7499 32.76C38.7499 32.92 38.6913 33.056 38.5739 33.168C38.4619 33.2747 38.3179 33.328 38.1419 33.328ZM39.7313 38V33.968H40.5793L40.6513 34.64C40.774 34.4053 40.95 34.2187 41.1793 34.08C41.4086 33.9413 41.6806 33.872 41.9953 33.872C42.3206 33.872 42.598 33.9413 42.8273 34.08C43.0566 34.2133 43.2326 34.4107 43.3553 34.672C43.4833 34.9333 43.5473 35.2587 43.5473 35.648V38H42.5873V35.736C42.5873 35.4 42.5126 35.1413 42.3633 34.96C42.214 34.7787 41.9926 34.688 41.6993 34.688C41.5073 34.688 41.334 34.7333 41.1793 34.824C41.03 34.9147 40.91 35.048 40.8193 35.224C40.734 35.3947 40.6913 35.6027 40.6913 35.848V38H39.7313ZM46.4474 38.096C46.0474 38.096 45.6954 38.0107 45.3914 37.84C45.0874 37.664 44.8501 37.4187 44.6794 37.104C44.5088 36.7893 44.4234 36.4267 44.4234 36.016C44.4234 35.5893 44.5061 35.216 44.6714 34.896C44.8421 34.576 45.0794 34.3253 45.3834 34.144C45.6928 33.9627 46.0501 33.872 46.4554 33.872C46.8501 33.872 47.1941 33.96 47.4874 34.136C47.7808 34.312 48.0074 34.5493 48.1674 34.848C48.3274 35.1413 48.4074 35.472 48.4074 35.84C48.4074 35.8933 48.4074 35.952 48.4074 36.016C48.4074 36.08 48.4021 36.1467 48.3914 36.216H45.1114V35.6H47.4394C47.4288 35.3067 47.3301 35.0773 47.1434 34.912C46.9568 34.7413 46.7248 34.656 46.4474 34.656C46.2501 34.656 46.0688 34.7013 45.9034 34.792C45.7381 34.8827 45.6074 35.0187 45.5114 35.2C45.4154 35.376 45.3674 35.6 45.3674 35.872V36.104C45.3674 36.3547 45.4128 36.5707 45.5034 36.752C45.5994 36.9333 45.7274 37.072 45.8874 37.168C46.0528 37.2587 46.2368 37.304 46.4394 37.304C46.6634 37.304 46.8474 37.256 46.9914 37.16C47.1408 37.064 47.2501 36.936 47.3194 36.776H48.2954C48.2208 37.0267 48.0981 37.2533 47.9274 37.456C47.7568 37.6533 47.5461 37.8107 47.2954 37.928C47.0448 38.04 46.7621 38.096 46.4474 38.096Z" fill="white"/>
</svg>
