<svg width="80" height="80" viewBox="0 0 80 80" fill="none" xmlns="http://www.w3.org/2000/svg">
<rect width="80" height="80" rx="40" fill="#FEE7F1"/>
<path d="M38.3334 53.3333C35.4068 53.3421 32.5838 52.2508 30.4242 50.2756C28.2647 48.3005 26.9263 45.5858 26.6746 42.6701C26.4229 39.7544 27.2762 36.8505 29.0653 34.5345C30.8544 32.2185 33.4486 30.6594 36.3334 30.1666C45.8334 28.3333 48.3334 27.4666 51.6667 23.3333C53.3334 26.6666 55 30.2999 55 36.6666C55 45.8333 47.0334 53.3333 38.3334 53.3333Z" stroke="#E92827" stroke-width="3.33333" stroke-linecap="round" stroke-linejoin="round"/>
<path d="M23.3335 55C23.3335 50 26.4168 46.0667 31.8002 45C35.8335 44.2 40.0002 41.6667 41.6668 40" stroke="#E92827" stroke-width="3.33333" stroke-linecap="round" stroke-linejoin="round"/>
</svg>
