<svg width="80" height="80" viewBox="0 0 80 80" fill="none" xmlns="http://www.w3.org/2000/svg">
<rect width="80" height="80" rx="40" fill="#FEE7F1"/>
<path d="M43.3335 50.0001V30.0001C43.3335 29.116 42.9823 28.2682 42.3572 27.6431C41.7321 27.0179 40.8842 26.6667 40.0002 26.6667H26.6668C25.7828 26.6667 24.9349 27.0179 24.3098 27.6431C23.6847 28.2682 23.3335 29.116 23.3335 30.0001V48.3334C23.3335 48.7754 23.5091 49.1994 23.8217 49.5119C24.1342 49.8245 24.5581 50.0001 25.0002 50.0001H28.3335" stroke="#E92827" stroke-width="3.33333" stroke-linecap="round" stroke-linejoin="round"/>
<path d="M45 50H35" stroke="#E92827" stroke-width="3.33333" stroke-linecap="round" stroke-linejoin="round"/>
<path d="M51.6668 49.9999H55.0002C55.4422 49.9999 55.8661 49.8243 56.1787 49.5118C56.4912 49.1992 56.6668 48.7753 56.6668 48.3333V42.2499C56.6662 41.8717 56.5369 41.5049 56.3002 41.2099L50.5002 33.9599C50.3443 33.7647 50.1465 33.6071 49.9215 33.4986C49.6965 33.3901 49.45 33.3336 49.2002 33.3333H43.3335" stroke="#E92827" stroke-width="3.33333" stroke-linecap="round" stroke-linejoin="round"/>
<path d="M48.3333 53.3334C50.1743 53.3334 51.6667 51.841 51.6667 50.0001C51.6667 48.1591 50.1743 46.6667 48.3333 46.6667C46.4924 46.6667 45 48.1591 45 50.0001C45 51.841 46.4924 53.3334 48.3333 53.3334Z" stroke="#E92827" stroke-width="3.33333" stroke-linecap="round" stroke-linejoin="round"/>
<path d="M31.6668 53.3334C33.5078 53.3334 35.0002 51.841 35.0002 50.0001C35.0002 48.1591 33.5078 46.6667 31.6668 46.6667C29.8259 46.6667 28.3335 48.1591 28.3335 50.0001C28.3335 51.841 29.8259 53.3334 31.6668 53.3334Z" stroke="#E92827" stroke-width="3.33333" stroke-linecap="round" stroke-linejoin="round"/>
</svg>
