<svg width="65" height="64" viewBox="0 0 65 64" fill="none" xmlns="http://www.w3.org/2000/svg">
<g clip-path="url(#clip0_2098_30506)">
<path d="M19.9493 15.5649H17.4727V13.0883C17.4727 12.0528 16.6333 11.2133 15.5977 11.2133C14.5623 11.2133 13.7227 12.0528 13.7227 13.0883V17.4398C13.7228 18.4754 14.5623 19.3149 15.5978 19.3149H19.9493C20.9849 19.3149 21.8243 18.4754 21.8243 17.4399C21.8243 16.4044 20.9849 15.5649 19.9493 15.5649Z" fill="#303030"/>
<path d="M15.5972 2.5105C7.36522 2.5105 0.667969 9.20775 0.667969 17.4397C0.667969 25.6715 7.36522 32.3686 15.5972 32.3686C23.8291 32.3686 30.5265 25.6715 30.5265 17.4396C30.5265 9.20775 23.8292 2.5105 15.5972 2.5105ZM15.5972 28.6189C9.43284 28.6186 4.41797 23.6039 4.41797 17.4397C4.41797 11.2755 9.43284 6.2605 15.5972 6.2605C21.7615 6.2605 26.7765 11.2755 26.7765 17.4397C26.7765 23.6039 21.7616 28.6189 15.5972 28.6189Z" fill="#303030"/>
<path d="M64.4756 34.6911C64.4731 34.6862 64.4725 34.6811 64.47 34.6762L58.4451 22.6262C58.1275 21.9909 57.4783 21.5897 56.7681 21.5897H42.5765V17.4398C42.5765 16.4043 41.7371 15.5648 40.7015 15.5648H34.1827C34.2445 16.1817 34.2765 16.8069 34.2765 17.4398C34.2765 27.7393 25.8971 36.1188 15.5972 36.1188C9.50184 36.1188 4.07959 33.1839 0.667969 28.6533V53.5897C0.667969 54.6252 1.50747 55.4647 2.54297 55.4647H10.9362C11.7805 58.9183 14.8996 61.4896 18.6096 61.4896C22.3198 61.4896 25.439 58.9183 26.283 55.4647H39.0532C39.8972 58.9183 43.0163 61.4896 46.7263 61.4896C50.4363 61.4896 53.5555 58.9183 54.3997 55.4647H62.793C63.8286 55.4647 64.668 54.6252 64.668 53.5897V35.5147C64.668 35.2187 64.5977 34.9399 64.4756 34.6911ZM18.6096 57.7394C16.3212 57.7394 14.4597 55.8778 14.4597 53.5896C14.4597 51.3013 16.3213 49.4397 18.6096 49.4397C20.8978 49.4397 22.7597 51.3013 22.7597 53.5896C22.7597 55.8778 20.898 57.7394 18.6096 57.7394ZM46.7263 57.7394C44.438 57.7394 42.5765 55.8778 42.5765 53.5896C42.5765 51.3013 44.4381 49.4397 46.7263 49.4397C49.0146 49.4397 50.8762 51.3013 50.8762 53.5896C50.8762 55.8778 49.0146 57.7394 46.7263 57.7394ZM42.5765 33.6396V25.3396H55.6095L59.7593 33.6396H42.5765Z" fill="#303030"/>
</g>
<defs>
<clipPath id="clip0_2098_30506">
<rect width="64" height="64" fill="white" transform="translate(0.667969)"/>
</clipPath>
</defs>
</svg>
