<svg width="40" height="40" viewBox="0 0 40 40" fill="none" xmlns="http://www.w3.org/2000/svg">
<g clip-path="url(#clip0_1393_8790)">
<path d="M20 28.2815V18.8284C22.5781 18.8284 24.6875 20.9377 24.6875 23.5159C24.6875 26.094 22.5781 28.2815 20 28.2815Z" fill="white"/>
<path d="M28.2031 36.4846V40.0002H20V28.2815C22.9297 28.2815 25.5078 29.8516 26.9608 32.1722C27.7344 33.4377 28.2031 34.891 28.2031 36.4846Z" fill="white"/>
<path d="M31.7187 30.1252C29.4097 30.1252 27.5312 28.2467 27.5312 25.9377C27.5312 23.618 29.4204 21.6721 31.7187 21.6721C34.0171 21.6721 35.9062 23.618 35.9062 25.9377C35.9062 28.2467 34.0278 30.1252 31.7187 30.1252Z" fill="white" stroke="#303030"/>
<path d="M25.8048 35.9974L27.3507 32.5055C28.5964 31.6416 30.094 31.1252 31.7184 31.1252C35.9788 31.1252 39.4996 34.5803 39.4996 38.8284V39.5002H28.4516L25.8048 35.9974Z" fill="white" stroke="#303030"/>
<path d="M6.1691 9.45672L5.9375 9.33567L5.7059 9.45672L2.96452 10.8895L3.4898 7.71711L3.53312 7.45551L3.34086 7.2729L1.09507 5.13988L4.22449 4.69853L4.50453 4.65904L4.61497 4.39867L5.94306 1.2676L7.3054 4.4027L7.41642 4.65818L7.69209 4.69824L10.7227 5.13855L8.52939 7.27748L8.34257 7.45967L8.3852 7.71711L8.91048 10.8895L6.1691 9.45672Z" fill="white" stroke="#303030"/>
<path d="M22.5819 7.26579L22.3929 7.44875L22.4366 7.70816L22.9725 10.8879L20.2316 9.45548L20 9.33446L19.7684 9.45548L17.0275 10.8879L17.5634 7.70816L17.6071 7.44875L17.4181 7.26579L15.221 5.13927L18.2898 4.69835L18.569 4.65823L18.6791 4.39853L20.006 1.26751L21.3698 4.40287L21.4809 4.65818L21.7564 4.69823L24.7805 5.1378L22.5819 7.26579Z" fill="white" stroke="#303030"/>
<path d="M34.2941 9.45672L34.0625 9.33567L33.8309 9.45672L31.0895 10.8895L31.6148 7.71711L31.6574 7.45967L31.4706 7.27748L29.2787 5.13991L32.3508 4.69834L32.6299 4.65823L32.74 4.39867L34.0681 1.2676L35.4304 4.4027L35.5418 4.659L35.8184 4.69843L38.9063 5.13854L36.6591 7.2729L36.4669 7.45551L36.5102 7.71711L37.0355 10.8895L34.2941 9.45672Z" fill="white" stroke="#303030"/>
<path d="M8.28125 30.1252C5.97225 30.1252 4.09375 28.2467 4.09375 25.9377C4.09375 23.618 5.98291 21.6721 8.28125 21.6721C10.5796 21.6721 12.4688 23.618 12.4688 25.9377C12.4688 28.2467 10.5903 30.1252 8.28125 30.1252Z" fill="white" stroke="#303030"/>
<path d="M0.5 38.8284C0.5 34.5803 4.02088 31.1252 8.28125 31.1252C9.90088 31.1252 11.3944 31.6386 12.6379 32.4981L14.1325 36.3911L11.5615 39.5002H0.5V38.8284Z" fill="white" stroke="#303030"/>
<path d="M15.8125 23.5159C15.8125 21.2139 17.698 19.3284 20 19.3284C22.302 19.3284 24.1875 21.2139 24.1875 23.5159C24.1875 25.8286 22.2913 27.7815 20 27.7815C17.7087 27.7815 15.8125 25.8286 15.8125 23.5159Z" fill="white" stroke="#303030"/>
<path d="M27.7031 36.4846V39.5002H12.2969V36.4846C12.2969 34.9935 12.7344 33.6303 13.4645 32.4352C14.8321 30.2526 17.2542 28.7815 20 28.7815C22.7458 28.7815 25.1679 30.2526 26.5355 32.4352C27.2656 33.6303 27.7031 34.9935 27.7031 36.4846Z" fill="white" stroke="#303030"/>
</g>
<defs>
<clipPath id="clip0_1393_8790">
<rect width="40" height="40" fill="white"/>
</clipPath>
</defs>
</svg>
