<svg width="12" height="12" viewBox="0 0 12 12" fill="none" xmlns="http://www.w3.org/2000/svg">
<path d="M5.99935 0.166504C4.84563 0.166504 3.71781 0.508623 2.75852 1.1496C1.79924 1.79057 1.05157 2.70161 0.610054 3.76752C0.168543 4.83342 0.0530237 6.00631 0.278104 7.13786C0.503185 8.26942 1.05876 9.30882 1.87456 10.1246C2.69037 10.9404 3.72977 11.496 4.86132 11.7211C5.99288 11.9462 7.16577 11.8306 8.23167 11.3891C9.29757 10.9476 10.2086 10.2 10.8496 9.24066C11.4906 8.28138 11.8327 7.15356 11.8327 5.99984C11.8327 5.23379 11.6818 4.47525 11.3886 3.76752C11.0955 3.05978 10.6658 2.41672 10.1241 1.87505C9.58247 1.33337 8.9394 0.903692 8.23167 0.61054C7.52394 0.317388 6.7654 0.166504 5.99935 0.166504ZM8.50768 4.60567L5.84185 8.10567C5.78751 8.17626 5.71772 8.23347 5.63784 8.27291C5.55796 8.31234 5.4701 8.33296 5.38102 8.33317C5.29241 8.33365 5.20486 8.31393 5.12502 8.27553C5.04517 8.23712 4.97512 8.18102 4.92018 8.1115L3.49685 6.29734C3.44974 6.23682 3.41501 6.16762 3.39464 6.09368C3.37428 6.01974 3.36867 5.94251 3.37815 5.8664C3.38763 5.7903 3.41201 5.7168 3.44989 5.65012C3.48777 5.58344 3.53842 5.52487 3.59893 5.47775C3.72116 5.38261 3.87617 5.33991 4.02987 5.35905C4.10597 5.36853 4.17947 5.39291 4.24615 5.43079C4.31284 5.46867 4.37141 5.51932 4.41852 5.57984L5.36935 6.79317L7.57435 3.8765C7.62108 3.81522 7.67942 3.76374 7.74605 3.725C7.81267 3.68627 7.88627 3.66103 7.96265 3.65074C8.03902 3.64045 8.11668 3.6453 8.19118 3.66502C8.26568 3.68474 8.33557 3.71894 8.39685 3.76567C8.45813 3.8124 8.50961 3.87074 8.54835 3.93737C8.58709 4.00399 8.61232 4.07759 8.62261 4.15397C8.63291 4.23034 8.62805 4.308 8.60833 4.3825C8.58861 4.457 8.55441 4.52689 8.50768 4.58817V4.60567Z" fill="#E92827"/>
</svg>
