<svg width="16" height="16"
                                            viewBox="0 0 16 16" fill="none" xmlns="http://www.w3.org/2000/svg">
                                            <path
                                                d="M8 5.99998C7.46957 5.99998 6.96086 6.21069 6.58579 6.58577C6.21072 6.96084 6 7.46955 6 7.99998C6 8.53041 6.21072 9.03912 6.58579 9.41419C6.96086 9.78927 7.46957 9.99998 8 9.99998C8.53044 9.99998 9.03914 9.78927 9.41422 9.41419C9.78929 9.03912 10 8.53041 10 7.99998C10 7.46955 9.78929 6.96084 9.41422 6.58577C9.03914 6.21069 8.53044 5.99998 8 5.99998ZM8 4.66665C8.88406 4.66665 9.7319 5.01784 10.357 5.64296C10.9821 6.26808 11.3333 7.11592 11.3333 7.99998C11.3333 8.88403 10.9821 9.73188 10.357 10.357C9.7319 10.9821 8.88406 11.3333 8 11.3333C7.11595 11.3333 6.2681 10.9821 5.64298 10.357C5.01786 9.73188 4.66667 8.88403 4.66667 7.99998C4.66667 7.11592 5.01786 6.26808 5.64298 5.64296C6.2681 5.01784 7.11595 4.66665 8 4.66665ZM12.3333 4.49998C12.3333 4.72099 12.2455 4.93296 12.0893 5.08924C11.933 5.24552 11.721 5.33331 11.5 5.33331C11.279 5.33331 11.067 5.24552 10.9107 5.08924C10.7545 4.93296 10.6667 4.72099 10.6667 4.49998C10.6667 4.27897 10.7545 4.067 10.9107 3.91072C11.067 3.75444 11.279 3.66665 11.5 3.66665C11.721 3.66665 11.933 3.75444 12.0893 3.91072C12.2455 4.067 12.3333 4.27897 12.3333 4.49998ZM8 2.66665C6.35067 2.66665 6.08134 2.67131 5.314 2.70531C4.79134 2.72998 4.44067 2.79998 4.11534 2.92665C3.826 3.03865 3.61734 3.17265 3.39534 3.39531C3.18667 3.59691 3.02624 3.84304 2.926 4.11531C2.79934 4.44198 2.72934 4.79198 2.70534 5.31398C2.67067 6.04998 2.66667 6.30731 2.66667 7.99998C2.66667 9.64931 2.67134 9.91865 2.70534 10.686C2.73 11.208 2.8 11.5593 2.926 11.884C3.03934 12.174 3.17267 12.3826 3.394 12.604C3.61867 12.828 3.82734 12.962 4.114 13.0726C4.44334 13.2 4.794 13.2706 5.314 13.2946C6.05 13.3293 6.30734 13.3333 8 13.3333C9.64934 13.3333 9.91867 13.3286 10.686 13.2946C11.2073 13.27 11.5587 13.2 11.884 13.074C12.1727 12.9613 12.3827 12.8273 12.604 12.606C12.8287 12.3813 12.9627 12.1726 13.0733 11.886C13.2 11.5573 13.2707 11.206 13.2947 10.686C13.3293 9.94998 13.3333 9.69265 13.3333 7.99998C13.3333 6.35065 13.3287 6.08131 13.2947 5.31398C13.27 4.79265 13.2 4.44065 13.0733 4.11531C12.9729 3.84331 12.8127 3.59729 12.6047 3.39531C12.4032 3.18654 12.157 3.02609 11.8847 2.92598C11.558 2.79931 11.2073 2.72931 10.686 2.70531C9.95 2.67065 9.69267 2.66665 8 2.66665ZM8 1.33331C9.81134 1.33331 10.0373 1.33998 10.748 1.37331C11.458 1.40665 11.9413 1.51798 12.3667 1.68331C12.8067 1.85265 13.1773 2.08198 13.548 2.45198C13.887 2.78524 14.1493 3.18837 14.3167 3.63331C14.4813 4.05798 14.5933 4.54198 14.6267 5.25198C14.658 5.96265 14.6667 6.18865 14.6667 7.99998C14.6667 9.81131 14.66 10.0373 14.6267 10.748C14.5933 11.458 14.4813 11.9413 14.3167 12.3666C14.1498 12.8118 13.8874 13.2151 13.548 13.548C13.2146 13.8869 12.8115 14.1491 12.3667 14.3166C11.942 14.4813 11.458 14.5933 10.748 14.6266C10.0373 14.658 9.81134 14.6666 8 14.6666C6.18867 14.6666 5.96267 14.66 5.252 14.6266C4.542 14.5933 4.05867 14.4813 3.63334 14.3166C3.18822 14.1496 2.78502 13.8873 2.452 13.548C2.11294 13.2148 1.85062 12.8116 1.68334 12.3666C1.518 11.942 1.40667 11.458 1.37334 10.748C1.342 10.0373 1.33334 9.81131 1.33334 7.99998C1.33334 6.18865 1.34 5.96265 1.37334 5.25198C1.40667 4.54131 1.518 4.05865 1.68334 3.63331C1.85016 3.1881 2.11254 2.78486 2.452 2.45198C2.78512 2.1128 3.18829 1.85047 3.63334 1.68331C4.05867 1.51798 4.54134 1.40665 5.252 1.37331C5.96267 1.34198 6.18867 1.33331 8 1.33331Z"
                                                fill="#E92827" />
                                        </svg>
