 <svg xmlns="http://www.w3.org/2000/svg"
                                            viewBox="0 0 24 24" fill="#E92827" width="48px" height="48px">
                                            <path
                                                d="M12.121 2c.604 1.787 2.26 3.083 4.215 3.088h.152v2.495c-.002 0-.027 0-.077-.001-1.894 0-3.599-.879-4.68-2.258l-.094-.113-.093-.114v10.71c-.33 2.607-2.504 4.566-5.03 4.566a5.151 5.151 0 0 1-1.582-.244l-.272-.094.557-2.287c.41.099.83.147 1.247.147 1.634 0 2.988-1.216 3.215-2.83l.023-.19v-3.856l-1.009.038c-1.624.1-2.95 1.254-3.341 2.803l-.044.181-2.267-.548c.588-2.435 2.705-4.238 5.194-4.347l.146-.004V4.983l2.188-.54V2zM16.48 0v2.009c0 .885.722 1.601 1.598 1.601H22v2.188h-3.922c-1.965-.002-3.752-.793-5.06-2.078L13 1.55v4.158l-2.187.54V.467L12.713.03C13.864.01 14.985 0 16.049 0H16.48z">
                                            </path>
                                        </svg>
